<?xml version="1.0" standalone="no"?> <!DOCTYPE svg PUBLIC "-//W3C//DTD SVG 1.0//EN" "http://www.w3.org/TR/2001/REC-SVG-20010904/DTD/svg10.dtd" > <svg xmlns="http://www.w3.org/2000/svg" width="100%" height="100%">
<defs >
<font id="Taz_300_" horiz-adv-x="988" ><font-face
    font-family="Taz Light"
    units-per-em="2048"
    panose-1="2 11 3 3 4 5 2 2 2 4"
    ascent="1780"
    descent="-420"
    alphabetic="0" />
<missing-glyph horiz-adv-x="1024" />
<glyph unicode="&#xd;" glyph-name="CR" horiz-adv-x="1024" />
<glyph unicode=" " glyph-name="space" horiz-adv-x="438" />
<glyph unicode="!" glyph-name="exclam" horiz-adv-x="589" d="M279 380L274 1488H395L390 380H279ZM273 0V167H396V0H273Z" />
<glyph unicode="&quot;" glyph-name="quotedbl" horiz-adv-x="884" d="M578 949V1475H687V949H578ZM195 949V1475H303V949H195Z" />
<glyph unicode="#" glyph-name="numbersign" horiz-adv-x="1251" d="M919 952L870 488H1111V397H861L821 0H714L755 397H400L360 0H254L294 397H68V488H303L352 952H125V1042H361L396 1380H503L469 1042H822L856 1380H963L930 1042H1168V952H919ZM459 952L410
488H764L812 952H459Z" />
<glyph unicode="$" glyph-name="dollar" horiz-adv-x="895" d="M815 339Q815 271 793 215T731 118T637 49T521 8V-238H419V0Q381 0 345 4T273 15T199 35T117 67L154 161Q214 132 284 116T426 99Q485 99 535 114T622 159T679 230T700 328Q700 390 675 436T607 517T512
582T402 640T293 700T197 772T130 867T104 994Q104 1072 131 1130T202 1229T303 1292T419 1321V1524H521V1321Q594 1313 656 1292T774 1239L735 1156Q670 1189 601 1208T464 1228Q419 1228 375 1216T297 1178T240 1110T218 1010Q218 951 244 907T311 828T407 763T517
704T626 641T722 565T789 467T815 339Z" />
<glyph unicode="%" glyph-name="percent" horiz-adv-x="1407" d="M623 1049Q623 977 608 915T559 806T473 733T345 706Q274 706 224 728T143 794T96 901T81 1045Q81 1117 96 1179T145 1288T232 1361T359 1388Q430 1388 480 1366T562 1299T608 1192T623 1049ZM353
0H244L1055 1380H1163L353 0ZM523 1047Q523 1103 516 1151T490 1233T438 1287T352 1307Q303 1307 271 1287T218 1231T190 1147T181 1045Q181 989 188 942T214 861T267 806T352 786Q400 786 433 806T486 863T514 946T523 1047ZM1319 335Q1319 263 1304 201T1255
92T1169 19T1041 -8Q969 -8 919 15T838 81T792 188T777 332Q777 403 792 466T841 575T927 648T1055 675Q1125 675 1175 652T1258 585T1304 478T1319 335ZM1219 334Q1219 390 1212 437T1186 519T1133 574T1048 594Q998 594 966 573T913 517T885 433T876 332Q876
276 883 229T909 147T962 93T1047 73Q1096 73 1129 93T1182 149T1210 232T1219 334Z" />
<glyph unicode="&amp;" glyph-name="ampersand" horiz-adv-x="1532" d="M1400 939Q1344 922 1289 899T1190 856Q1254 751 1287 659T1321 484Q1321 374 1280 284T1162 129T973 28T721 -8Q579 -8 472 22T291 109T180 243T142 416Q142 483 159 540T208 642T286 716T389
758Q342 773 308 800T252 865T219 945T208 1037Q208 1106 230 1169T299 1281T415 1359T582 1388Q653 1388 731 1370T882 1324L855 1238Q783 1264 713 1278T579 1292Q509 1292 460 1272T380 1218T335 1139T320 1044Q320 989 335 945T381 870T459 821T569 803H619V707H552Q481
707 427 688T336 632T279 546T260 433Q260 358 289 295T376 186T524 115T733 90Q850 90 938 118T1085 197T1175 316T1205 467Q1205 541 1176 621T1084 805Q1054 790 1029 777T977 749T923 717T861 679L818 761Q873 796 938 832T1074 903T1217 967T1359 1023L1400
939V939Z" />
<glyph unicode="&apos;" glyph-name="quotesingle" horiz-adv-x="500" d="M195 949V1475H305V949H195Z" />
<glyph unicode="(" glyph-name="parenleft" horiz-adv-x="651" d="M220 635Q220 753 236 874T284 1113T363 1345T473 1561L567 1541Q456 1336 394 1105T332 629Q332 391 393 172T563 -249L463 -267Q342 -60 281 167T220 635Z" />
<glyph unicode=")" glyph-name="parenright" horiz-adv-x="651" d="M440 658Q440 540 424 419T376 180T297 -52T188 -267L93 -247Q206 -43 267 188T328 665Q328 900 267 1121T97 1542L198 1561Q318 1354 379 1127T440 658Z" />
<glyph unicode="*" glyph-name="asterisk" horiz-adv-x="906" d="M741 908L492 1076L514 778L404 776L425 1076L176 908L121 1000L391 1131L121 1263L176 1358L425 1190L404 1491H514L492 1190L741 1358L796 1267L526 1135L796 1003L741 908Z" />
<glyph unicode="+" glyph-name="plus" horiz-adv-x="1126" d="M616 563V142H510V563H125V657H510V1075H616V657H1002V563H616Z" />
<glyph unicode="," glyph-name="comma" horiz-adv-x="537" d="M165 -353L77 -326L258 202L392 159L165 -353Z" />
<glyph unicode="-" glyph-name="hyphen" horiz-adv-x="519" d="M78 533V634H458V533H78Z" />
<glyph unicode="." glyph-name="period" horiz-adv-x="519" d="M194 0V193H325V0H194Z" />
<glyph unicode="/" glyph-name="slash" horiz-adv-x="827" d="M134 -297H32L707 1638H809L134 -297Z" />
<glyph unicode="0" glyph-name="zero" horiz-adv-x="1126" d="M1004 666Q1004 583 996 501T967 344T913 204T829 93T710 19T550 -8Q462 -8 396 19T283 93T204 205T155 344T129 501T121 666Q121 749 130 831T159 989T213 1128T297 1238T415 1312T573 1339Q661 1339
727 1312T842 1238T922 1127T971 988T996 831T1004 666ZM888 666Q888 779 874 883T822 1067T723 1194T563 1241Q499 1241 450 1220T365 1160T305 1067T266 950T245 814T238 666Q238 591 244 519T265 382T303 265T363 172T449 112T563 91Q658 91 720 138T820 264T872
448T888 666Z" />
<glyph unicode="1" glyph-name="one" horiz-adv-x="700" d="M396 0V1210L59 1056L28 1145L407 1333H511V0H396Z" />
<glyph unicode="2" glyph-name="two" horiz-adv-x="1021" d="M91 0V89L480 495Q548 566 595 629T672 752T715 867T729 978Q729 1036 714 1084T667 1167T586 1221T470 1240Q397 1240 320 1212T144 1132L108 1212Q202 1272 298 1305T490 1339Q577 1339 643 1315T754
1246T823 1138T847 996Q847 926 833 862T787 733T705 602T582 462L233 101H908V0H91Z" />
<glyph unicode="3" glyph-name="three" horiz-adv-x="1012" d="M877 368Q877 289 851 221T772 101T638 21T447 -8Q389 -8 335 0T232 22T143 52T70 85L104 171Q181 135 268 113T453 90Q541 90 599 113T692 174T741 258T756 354Q756 417 742 468T686 556T571 612T381
632H234V727H386Q452 727 511 735T614 771T684 852T710 994Q710 1045 699 1090T660 1169T585 1222T463 1242Q418 1242 375 1234T290 1212T211 1182T139 1147L102 1225Q143 1249 190 1270T285 1306T383 1330T481 1339Q575 1339 641 1314T748 1245T809 1139T828 1007Q828
947 814 894T773 798T707 726T615 684Q681 675 730 650T812 583T861 488T877 368Z" />
<glyph unicode="4" glyph-name="four" horiz-adv-x="1038" d="M795 274V0H679V274H47V361L622 1331H795V375H998V274H795ZM679 1231H677L167 375H679V1231Z" />
<glyph unicode="5" glyph-name="five" horiz-adv-x="1020" d="M901 408Q901 289 869 210T777 82T631 13T435 -8Q324 -8 234 17T75 78L108 169Q149 151 193 137T282 112T368 96T446 90Q537 90 600 107T704 161T762 255T781 395Q781 478 765 532T703 619T576 665T366
679Q337 679 312 678T263 675T216 671T169 666L233 1331H816L807 1230H322L280 773Q420 781 521 774T692 745T802 691T865 615T894 519T901 408Z" />
<glyph unicode="6" glyph-name="six" horiz-adv-x="1065" d="M949 446Q949 342 922 258T841 115T707 24T520 -8Q403 -8 327 31T205 149T143 344T125 618Q125 788 150 922T234 1148T393 1290T640 1339Q711 1339 777 1328T889 1303L870 1214Q806 1226 745 1234T625
1242Q511 1242 437 1201T319 1089T258 924T240 723V721Q278 739 317 756T397 788T484 810T577 818Q688 818 760 790T874 712T932 594T949 446ZM834 430Q834 489 824 541T784 634T697 697T545 720Q507 720 466 713T385 692T308 662T241 624Q241 475 256 373T305
207T394 117T529 90Q609 90 667 112T762 178T816 284T834 430Z" />
<glyph unicode="7" glyph-name="seven" horiz-adv-x="920" d="M311 0H185L737 1230H85V1331H856V1243L311 0Z" />
<glyph unicode="8" glyph-name="eight" horiz-adv-x="1084" d="M845 293Q845 354 819 403T751 492T653 567T538 637Q480 604 426 570T331 495T264 408T239 302Q239 199 315 144T544 88Q619 88 675 103T769 145T826 210T845 293ZM960 302Q960 237 935 181T856 82T723
16T534 -8H526Q424 -8 349 12T223 71T148 165T123 290Q123 362 150 419T221 525T322 612T441 690Q387 722 337 758T249 837T188 935T165 1056Q165 1116 188 1168T260 1258T380 1317T550 1339H556Q647 1339 715 1321T828 1267T896 1181T919 1069Q919 1003 896 950T835
851T747 768T641 696Q701 662 759 625T861 541T933 436T960 302ZM807 1056Q807 1148 740 1196T540 1244Q475 1244 426 1231T344 1194T294 1137T277 1066Q277 1010 299 966T357 883T442 813T545 750Q596 781 643 813T727 882T785 962T807 1056Z" />
<glyph unicode="9" glyph-name="nine" horiz-adv-x="1065" d="M115 885Q115 989 142 1073T224 1216T358 1307T545 1339Q662 1339 738 1300T859 1183T922 987T940 713Q940 543 915 409T830 183T671 41T425 -8Q353 -8 287 3T175 29L193 117Q258 105 319 98T440 90Q515
90 572 109T672 162T744 243T790 349T816 472T825 610V612Q787 593 748 575T668 544T581 522T488 513Q377 513 305 541T191 619T132 737T115 885ZM231 901Q231 842 240 790T280 697T368 634T520 611Q558 611 599 618T680 639T757 670T825 708Q825 857 810 959T760
1124T671 1214T536 1242Q375 1242 303 1154T231 901Z" />
<glyph unicode=":" glyph-name="colon" horiz-adv-x="633" d="M263 0V193H395V0H263ZM263 849V1042H395V849H263Z" />
<glyph unicode=";" glyph-name="semicolon" horiz-adv-x="633" d="M263 849V1042H395V849H263ZM189 -353L102 -326L282 202L416 159L189 -353Z" />
<glyph unicode="&lt;" glyph-name="less" horiz-adv-x="1126" d="M143 571V650L940 1114V997L262 612L940 228V107L143 571Z" />
<glyph unicode="=" glyph-name="equal" horiz-adv-x="1126" d="M125 761V855H1001V761H125ZM125 365V460H1001V365H125Z" />
<glyph unicode="&gt;" glyph-name="greater" horiz-adv-x="1126" d="M186 107V224L865 608L186 993V1114L983 650V571L186 107Z" />
<glyph unicode="?" glyph-name="question" horiz-adv-x="872" d="M742 1195Q742 1115 719 1055T660 944T584 849T508 758T449 655T424 528V382H313L312 517Q312 579 325 629T360 722T409 800T466 869T523 936T573 1007T608 1087T622 1183Q622 1226 609 1265T569
1334T498 1380T394 1397Q343 1397 283 1386T166 1356L148 1444Q215 1467 285 1481T416 1496Q492 1496 552 1475T655 1415T719 1320T742 1195ZM306 0V167H430V0H306Z" />
<glyph unicode="@" glyph-name="at" horiz-adv-x="1907" d="M1219 -195Q1178 -199 1130 -202T1033 -207T938 -210T854 -211Q690 -211 569 -175T367 -61T247 135T207 418Q207 639 262 820T429 1131T706 1332T1094 1403Q1282 1403 1406 1358T1605 1234T1710 1048T1741
817Q1741 628 1698 502T1576 299T1391 190T1155 158H1075L1085 289Q993 218 925 182T797 145Q752 145 714 163T647 219T604 312T588 446Q588 519 599 592T633 733T687 858T760 959T850 1026T956 1051Q989 1051 1020 1039T1080 1007T1137 960T1192 905L1229 1042H1313L1174
248Q1280 248 1365 272T1511 359T1605 530T1638 807Q1638 921 1613 1014T1524 1174T1354 1277T1083 1313Q882 1313 736 1247T496 1064T356 785T311 432Q311 285 344 181T446 10T621 -88T874 -119H1229L1219 -195ZM1167 809Q1132 848 1104 876T1051 921T1007 947T965
956Q926 956 894 941T836 899Q800 864 774 811T730 696T703 570T694 449Q694 393 703 353T729 288T768 252T817 240Q845 240 877 252T945 284T1018 332T1094 391L1167 809Z" />
<glyph unicode="A" glyph-name="A" horiz-adv-x="1049" d="M881 0L789 320H253L162 0H44L451 1380H600L1005 0H881ZM521 1255H518L278 417H764L521 1255Z" />
<glyph unicode="B" glyph-name="B" horiz-adv-x="1032" d="M914 391Q914 307 888 235T804 111T652 28T425 -2Q363 -2 304 -1T174 0V1378Q211 1379 243 1379T306 1380T369 1381T437 1382Q554 1382 637 1360T772 1295T849 1187T874 1037Q874 978 860 927T815 834T738
764T628 723Q709 710 764 681T852 609T900 511T914 391ZM759 1030Q759 1088 745 1135T693 1216T586 1267T410 1285Q369 1285 341 1284T289 1281V764Q317 762 340 762T387 762Q506 762 579 784T692 842T745 928T759 1030ZM796 385Q796 443 781 494T720 583T595 643T383
665Q362 665 338 665T289 663V100Q323 97 353 97T426 96Q508 96 567 108T668 140T734 189T773 250T791 316T796 385Z" />
<glyph unicode="C" glyph-name="C" horiz-adv-x="997" d="M940 79Q851 39 759 16T581 -8Q468 -8 383 27T239 143T151 357T121 686Q121 869 157 1001T257 1219T409 1346T604 1388Q646 1388 691 1381T780 1362T863 1336T934 1306L900 1212Q876 1224 842 1237T770
1262T691 1282T614 1290Q527 1290 458 1255T341 1146T267 960T242 690Q242 524 264 410T331 226T443 124T603 93Q635 93 673 99T753 116T834 141T911 170L940 79V79Z" />
<glyph unicode="D" glyph-name="D" horiz-adv-x="1167" d="M1044 704Q1044 537 1010 405T902 182T714 44T441 -4Q408 -4 373 -4T304 -3T236 -2T174 0V1380Q246 1382 313 1383T447 1384Q610 1384 723 1340T908 1210T1012 997T1044 704ZM926 702Q926 840 903 948T823
1132T674 1246T440 1286Q425 1286 407 1286T369 1285T329 1284T290 1282V99Q304 98 324 98T367 97T409 96T444 95Q580 95 672 135T820 254T901 444T926 702Z" />
<glyph unicode="E" glyph-name="E" horiz-adv-x="872" d="M174 0V1380H778V1282H290V762H734V664H290V99H784V0H174Z" />
<glyph unicode="F" glyph-name="F" horiz-adv-x="835" d="M290 1282V761H717V662H290V0H174V1380H750V1282H290Z" />
<glyph unicode="G" glyph-name="G" horiz-adv-x="1103" d="M963 81Q923 60 878 44T786 16T691 -2T599 -8Q479 -8 390 25T241 138T151 349T121 675Q121 864 156 999T256 1220T417 1347T633 1388Q673 1388 717 1382T805 1365T889 1341T959 1313L930 1222Q854 1252
778 1271T641 1290Q538 1290 463 1254T338 1143T266 953T242 679Q242 515 263 403T331 222T447 123T615 93Q671 93 730 105T848 140V636H963V81V81Z" />
<glyph unicode="H" glyph-name="H" horiz-adv-x="1212" d="M921 0V664H290V0H174V1380H290V763H921V1380H1037V0H921Z" />
<glyph unicode="I" glyph-name="I" horiz-adv-x="466" d="M174 0V1380H290V0H174Z" />
<glyph unicode="J" glyph-name="J" horiz-adv-x="662" d="M487 436Q487 329 472 247T423 108T334 22T199 -7Q136 -7 87 -1T-11 17L-3 111Q15 108 39 105T88 98T139 94T186 92Q247 92 284 120T340 197T366 310T372 447V1380H487V436V436Z" />
<glyph unicode="K" glyph-name="K" horiz-adv-x="916" d="M756 0L296 698H290V0H174V1380H290V723H296L713 1380H853L413 718L903 0H756Z" />
<glyph unicode="L" glyph-name="L" horiz-adv-x="727" d="M174 0V1380H290V101H707V0H174Z" />
<glyph unicode="M" glyph-name="M" horiz-adv-x="1537" d="M1294 0L1208 1277H1206L806 0H725L325 1277H323L237 0H127L224 1380H412L769 233H771L1128 1380H1312L1410 0H1294Z" />
<glyph unicode="N" glyph-name="N" horiz-adv-x="1207" d="M880 0L282 1254V0H174V1380H344L925 155V1380H1032V0H880Z" />
<glyph unicode="O" glyph-name="O" horiz-adv-x="1269" d="M1147 694Q1147 520 1116 389T1021 169T862 37T638 -8H626Q489 -8 394 32T238 156T149 371T121 684Q121 859 153 990T248 1210T406 1343T630 1388H643Q779 1388 874 1348T1030 1224T1119 1008T1147 694ZM1030
692Q1030 828 1012 938T948 1127T825 1247T631 1290Q522 1290 448 1250T327 1133T259 945T238 690Q238 553 257 443T321 254T444 134T638 91Q746 91 821 131T942 247T1009 436T1030 692Z" />
<glyph unicode="P" glyph-name="P" horiz-adv-x="1013" d="M936 960Q936 862 907 783T820 646T676 558T477 527Q429 527 383 527T290 529V0H174V1378Q213 1379 254 1380T337 1381T420 1382T501 1382Q618 1382 700 1354T835 1271T912 1138T936 960ZM815 953Q815
1027 801 1088T750 1193T649 1260T484 1284Q461 1284 436 1284T384 1283T334 1282T290 1280V630Q323 628 367 627T480 625Q575 625 639 649T742 716T798 820T815 953Z" />
<glyph unicode="Q" glyph-name="Q" horiz-adv-x="1269" d="M1236 -14L1158 -90L972 113Q910 52 828 22T638 -8H626Q489 -8 394 32T238 156T149 371T121 684Q121 859 153 990T248 1210T406 1343T630 1388H643Q779 1388 874 1348T1030 1224T1119 1008T1147 694Q1147
535 1120 410T1039 196L1236 -14ZM959 280Q995 349 1012 453T1030 692Q1030 828 1012 938T948 1127T825 1247T631 1290Q522 1290 448 1250T327 1133T259 945T238 690Q238 553 257 442T322 254T444 134T638 91Q722 91 786 115T897 189L718 380L796 456L959 280Z"
/>
<glyph unicode="R" glyph-name="R" horiz-adv-x="1042" d="M834 0L493 673H290V0H174V1378Q214 1379 254 1380T335 1381T414 1382T489 1382Q606 1382 686 1358T817 1290T889 1183T911 1041Q911 972 891 913T833 808T738 733T610 691L968 0H834ZM791 1033Q791 1091
778 1137T730 1217T635 1267T482 1285Q436 1285 386 1284T290 1281V770H489Q571 770 628 790T722 844T774 927T791 1033Z" />
<glyph unicode="S" glyph-name="S" horiz-adv-x="933" d="M850 358Q850 273 823 205T746 90T622 17T454 -8Q377 -8 290 14T121 84L161 172Q230 137 300 115T454 93Q591 93 662 159T734 345Q734 411 707 459T636 547T535 617T420 680T305 744T204 821T133 921T106
1053Q106 1126 131 1187T204 1293T322 1363T481 1388Q522 1388 564 1383T648 1366T727 1340T798 1305L759 1222Q731 1235 698 1248T628 1270T556 1285T483 1291Q418 1291 369 1274T287 1227T238 1156T221 1066Q221 1003 248 957T319 875T420 808T535 746T650 681T751
601T823 497T850 358Z" />
<glyph unicode="T" glyph-name="T" horiz-adv-x="852" d="M484 1280V0H369V1280H16V1380H837V1280H484Z" />
<glyph unicode="U" glyph-name="U" horiz-adv-x="1199" d="M1024 411Q1024 322 1001 246T926 113T792 25T592 -7Q482 -7 404 18T274 95T199 223T174 404V1380H290V405Q290 325 306 266T358 169T454 111T600 91Q693 91 752 113T846 176T894 275T908 406V1380H1024V411V411Z"
/>
<glyph unicode="V" glyph-name="V" horiz-adv-x="1046" d="M595 0H449L42 1380H168L492 252L527 114L562 254L883 1380H1003L595 0Z" />
<glyph unicode="W" glyph-name="W" horiz-adv-x="1593" d="M1244 0H1087L832 1066L797 1248H794L759 1066L505 0H346L37 1380H162L401 287L428 125H430L463 280L723 1380H876L1137 287L1168 125H1170L1199 284L1436 1380H1556L1244 0Z" />
<glyph unicode="X" glyph-name="X" horiz-adv-x="1021" d="M578 735L975 0H836L557 531L510 628H508L464 542L180 0H45L442 725L93 1380H225L462 929L510 832H512L567 941L794 1380H927L578 735Z" />
<glyph unicode="Y" glyph-name="Y" horiz-adv-x="944" d="M530 595V0H417V595L20 1380H153L332 1015L477 713L606 987L796 1380H925L530 595Z" />
<glyph unicode="Z" glyph-name="Z" horiz-adv-x="914" d="M87 0V89L684 1282H95V1380H806V1294L210 101H827V0H87Z" />
<glyph unicode="[" glyph-name="bracketleft" horiz-adv-x="740" d="M176 -389V1638H583V1544H286V-294H590V-389H176Z" />
<glyph unicode="\" glyph-name="backslash" horiz-adv-x="827" d="M693 -297L19 1638H120L795 -297H693Z" />
<glyph unicode="]" glyph-name="bracketright" horiz-adv-x="740" d="M564 1638V-389H151V-294H454V1544H156V1638H564Z" />
<glyph unicode="^" glyph-name="asciicircum" horiz-adv-x="1126" d="M854 756L562 1279L271 756H142L507 1384H621L993 756H854Z" />
<glyph unicode="_" glyph-name="underscore" horiz-adv-x="1024" d="M0 -399V-307H1024V-399H0Z" />
<glyph unicode="`" glyph-name="grave" horiz-adv-x="712" d="M400 1174L135 1443L237 1497L474 1212L400 1174Z" />
<glyph unicode="a" glyph-name="a" horiz-adv-x="983" d="M607 496Q491 496 415 484T295 448T234 387T217 301Q217 257 229 219T263 152T318 107T393 90Q434 90 470 98T542 125T619 175T710 252V496H607ZM718 151Q662 103 618 72T533 24T453 -1T367 -8Q307 -8
258 14T174 76T120 171T101 293Q101 366 130 421T222 513T383 569T620 588H710V636Q710 708 702 767T669 869T596 934T469 957Q432 957 396 952T324 939T250 919T171 893L149 979Q240 1013 322 1032T485 1051Q575 1051 639 1029T743 960T803 841T822 671V0H732L718
151Z" />
<glyph unicode="b" glyph-name="b" horiz-adv-x="994" d="M884 524Q884 397 859 298T790 131T686 28T554 -8Q527 -8 497 0T431 26T355 74T266 150L252 0H163V1482L274 1496V899Q323 942 364 971T442 1018T512 1043T580 1051Q652 1051 708 1013T804 904T863 737T884
524ZM772 520Q772 613 758 692T715 829T646 918T554 951Q501 951 432 913T274 791V254Q362 171 428 131T543 91Q592 91 634 123T706 212T754 347T772 520Z" />
<glyph unicode="c" glyph-name="c" horiz-adv-x="770" d="M737 91Q675 43 605 18T454 -8Q413 -8 371 1T291 32T219 92T162 187T124 324T110 510Q110 650 137 752T213 920T331 1019T481 1051Q551 1051 611 1027T722 958L682 879Q634 915 587 934T483 953Q429 953
381 931T299 857T244 723T224 521Q224 399 244 317T300 186T379 114T473 92Q533 92 585 110T696 167L737 91Z" />
<glyph unicode="d" glyph-name="d" horiz-adv-x="994" d="M742 0L727 151Q674 104 631 74T551 25T481 0T414 -8Q342 -8 286 30T190 138T131 305T110 518Q110 644 135 743T204 911T308 1015T439 1051Q466 1051 495 1044T559 1019T632 973T720 902V1482L831 1496V0H742ZM720
790Q632 872 566 911T451 951Q402 951 360 920T288 831T240 695T222 522Q222 429 236 350T279 214T348 124T440 91Q493 91 562 130T720 252V790Z" />
<glyph unicode="e" glyph-name="e" horiz-adv-x="949" d="M809 58Q719 25 638 9T479 -8Q386 -8 317 20T201 109T132 270T109 513Q109 643 135 743T210 912T330 1015T491 1051Q574 1051 639 1019T747 928T814 788T837 612Q837 598 837 583T836 552T834 522T832
496H223Q223 391 239 315T289 188T374 114T497 90Q522 90 557 93T632 103T710 118T786 138L809 58ZM725 608Q725 674 713 737T672 849T596 927T481 957Q410 957 362 924T284 839T240 720T223 588H725V608Z" />
<glyph unicode="f" glyph-name="f" horiz-adv-x="535" d="M549 1394Q528 1397 497 1399T441 1402Q359 1402 324 1349T288 1199V1042H513V950H288V0H177V950H0V1042H177V1195Q177 1344 241 1420T440 1496Q479 1496 508 1493T560 1483L549 1394Z" />
<glyph unicode="g" glyph-name="g" horiz-adv-x="994" d="M831 7Q831 -89 808 -164T736 -290T617 -369T449 -396Q428 -396 403 -396T352 -394T303 -391T258 -387L246 -301H416Q509 -301 568 -278T660 -214T707 -121T720 -9V144Q669 101 628 72T551 24T482 -1T414
-8Q342 -8 286 30T190 138T131 305T110 518Q110 644 135 743T204 911T308 1015T439 1051Q466 1051 496 1043T562 1017T638 969T727 893L743 1042H831V7ZM720 789Q632 872 566 911T451 951Q402 951 360 920T288 831T240 695T222 522Q222 429 236 350T279 214T348
124T440 91Q493 91 562 130T720 252V789Z" />
<glyph unicode="h" glyph-name="h" horiz-adv-x="1017" d="M745 0V650Q745 708 735 762T702 859T644 926T561 951Q502 951 432 913T274 791V0H163V1482L274 1496V899Q325 943 366 972T445 1018T517 1043T590 1051Q651 1051 700 1025T784 950T837 833T856 683V0H745Z" />
<glyph unicode="i" glyph-name="i" horiz-adv-x="437" d="M163 1304V1475H274V1304H163ZM163 0V1042H274V0H163Z" />
<glyph unicode="j" glyph-name="j" horiz-adv-x="438" d="M163 1304V1475H274V1304H163ZM274 59Q274 -25 266 -90T242 -210T201 -309T142 -396L66 -346Q117 -267 140 -178T163 21V1042H274V59Z" />
<glyph unicode="k" glyph-name="k" horiz-adv-x="835" d="M680 0L276 565H274V0H163V1482L274 1496V580H276L628 1042H765L398 580L825 0H680Z" />
<glyph unicode="l" glyph-name="l" horiz-adv-x="437" d="M163 0V1482L274 1496V0H163Z" />
<glyph unicode="m" glyph-name="m" horiz-adv-x="1583" d="M1311 0V650Q1311 708 1301 762T1269 859T1214 926T1131 951Q1072 951 1003 913T848 791V0H737V650Q737 708 728 762T696 859T640 926T558 951Q499 951 430 913T274 791V0H163V1042H252L267 892Q320 939
362 969T442 1018T513 1043T586 1051Q668 1051 727 1004T817 873Q878 927 925 961T1011 1016T1086 1043T1160 1051Q1221 1051 1269 1025T1351 950T1403 833T1422 683V0H1311Z" />
<glyph unicode="n" glyph-name="n" horiz-adv-x="1017" d="M745 0V650Q745 708 735 762T702 859T644 926T561 951Q502 951 432 913T274 791V0H163V1042H252L267 892Q320 939 363 969T444 1018T517 1043T590 1051Q651 1051 700 1025T784 950T837 833T856 683V0H745Z" />
<glyph unicode="o" glyph-name="o" horiz-adv-x="1023" d="M913 525Q913 411 891 314T819 146T694 33T510 -8H506Q400 -8 325 26T202 127T132 292T109 517Q109 631 132 728T204 897T329 1010T512 1051H517Q623 1051 698 1017T821 915T891 750T913 525ZM800 521Q800
615 785 694T737 831T648 921T512 954Q431 954 376 921T287 830T238 693T223 521Q223 427 238 348T286 212T375 122T511 90Q592 90 647 123T736 213T785 349T800 521Z" />
<glyph unicode="p" glyph-name="p" horiz-adv-x="994" d="M884 524Q884 397 859 298T790 131T686 28T554 -8Q527 -8 498 -1T435 24T361 70T274 140V-381L163 -396V1042H252L267 892Q320 939 363 969T443 1018T513 1043T580 1051Q652 1051 708 1013T804 904T863
737T884 524ZM772 520Q772 613 758 692T715 829T646 918T554 951Q500 951 431 913T274 791V252Q362 171 428 131T543 91Q592 91 634 123T706 212T754 347T772 520Z" />
<glyph unicode="q" glyph-name="q" horiz-adv-x="994" d="M414 -8Q342 -8 286 30T190 138T131 305T110 518Q110 644 135 743T204 911T308 1015T439 1051Q466 1051 496 1043T562 1017T638 969T727 893L743 1042H831V-379L720 -396V144Q670 101 629 72T552 25T482
0T414 -8ZM451 951Q402 951 360 920T288 831T240 695T222 522Q222 429 236 350T279 214T348 124T440 91Q493 91 562 130T720 252V789Q632 872 566 911T451 951Z" />
<glyph unicode="r" glyph-name="r" horiz-adv-x="621" d="M534 943Q497 943 468 935T410 908T349 859T274 785V0H163V1042H254L267 888Q321 946 359 978T429 1026T485 1047T539 1051H586V943H534Z" />
<glyph unicode="s" glyph-name="s" horiz-adv-x="725" d="M631 262Q631 199 610 149T550 64T456 11T329 -8Q255 -8 196 10T81 58L121 148Q178 117 228 103T330 89Q381 89 416 102T473 137T506 189T517 253Q517 284 509 312T479 368T418 426T318 494Q251 533 206
569T135 640T97 715T86 798Q86 856 107 903T165 982T252 1033T363 1051Q430 1051 489 1033T597 989L561 905Q522 924 470 940T363 956Q322 956 291 945T239 913T208 866T197 806Q197 776 205 750T234 698T292 644T386 584Q458 543 505 504T580 425T619 346T631
262Z" />
<glyph unicode="t" glyph-name="t" horiz-adv-x="597" d="M535 19Q498 8 455 0T371 -8Q326 -8 290 2T229 38T190 107T177 215V950H0V1042H177V1361L288 1375V1042H533V950H288V236Q288 195 293 168T313 123T349 98T407 90Q431 90 458 93T522 102L535 19V19Z" />
<glyph unicode="u" glyph-name="u" horiz-adv-x="1017" d="M272 1042V392Q272 334 282 280T315 184T372 117T456 91Q515 91 585 130T743 252V1042H854V0H765L751 151Q696 104 653 73T573 25T500 0T427 -8Q366 -8 317 18T233 93T180 209T161 359V1042H272Z" />
<glyph unicode="v" glyph-name="v" horiz-adv-x="796" d="M460 0H325L38 1042H162L362 282L398 132H400L439 291L634 1042H757L460 0Z" />
<glyph unicode="w" glyph-name="w" horiz-adv-x="1309" d="M997 0H844L658 788H656L469 0H307L61 1042H182L393 111H395L618 1042H706L929 111H931L1134 1042H1257L997 0Z" />
<glyph unicode="x" glyph-name="x" horiz-adv-x="865" d="M700 0L431 454H429L162 0H30L365 533L50 1042H187L435 619H437L685 1042H815L501 544L838 0H700Z" />
<glyph unicode="y" glyph-name="y" horiz-adv-x="781" d="M488 70Q468 -2 449 -58T410 -158T368 -237T321 -300T264 -351T195 -396L143 -317Q179 -295 208 -271T261 -215T305 -137T344 -27L36 1042H159L375 265L405 138H407L448 311L632 1042H756L488 70Z" />
<glyph unicode="z" glyph-name="z" horiz-adv-x="692" d="M56 0V68L486 946H69V1042H612V970L185 97H634V0H56Z" />
<glyph unicode="{" glyph-name="braceleft" horiz-adv-x="819" d="M274 298Q274 428 229 499T82 570V664Q140 664 177 681T236 731T266 812T274 925V1231Q274 1351 303 1431T386 1559T516 1625T688 1638V1544Q611 1548 554 1536T459 1488T403 1394T384 1248V937Q384
868 375 815T344 723T289 659T204 619Q251 610 285 584T341 518T373 427T384 314V29Q384 -77 404 -141T465 -240T561 -286T688 -294V-388Q595 -394 519 -378T388 -316T304 -191T274 10V298V298Z" />
<glyph unicode="|" glyph-name="bar" horiz-adv-x="447" d="M178 -405V1638H269V-405H178Z" />
<glyph unicode="}" glyph-name="braceright" horiz-adv-x="819" d="M545 936Q545 869 555 818T588 733T647 681T737 664V570Q679 570 642 553T584 503T554 422T545 309V18Q545 -101 517 -181T434 -309T303 -375T131 -388V-294Q208 -299 265 -289T361 -247T417
-154T436 3V297Q436 366 445 419T475 512T530 577T615 617Q577 622 545 643T488 703T450 795T436 919V1222Q436 1327 415 1391T355 1491T259 1536T131 1544V1638Q224 1644 300 1628T431 1567T515 1441T545 1239V936V936Z" />
<glyph unicode="~" glyph-name="asciitilde" horiz-adv-x="1126" d="M991 1264Q994 1197 978 1142T929 1047T850 987T747 965Q700 965 664 981T597 1023T541 1077T490 1131T437 1172T375 1189Q335 1189 310 1171T271 1124T250 1060T243 989H143Q139 1056 156 1110T205
1204T284 1264T384 1285Q432 1285 468 1269T535 1227T591 1173T642 1119T695 1078T755 1061Q796 1061 821 1079T862 1126T884 1191T891 1264H991V1264Z" />
<glyph unicode="&#xa0;" glyph-name="space" horiz-adv-x="438" />
<glyph unicode="&#xa1;" glyph-name="exclamdown" horiz-adv-x="589" d="M193 1057V1225H315V1057H193ZM195 -178L199 845H309L314 -178H195Z" />
<glyph unicode="&#xa2;" glyph-name="cent" horiz-adv-x="860" d="M748 366Q700 338 646 318T528 289V74H426V285Q366 289 311 309T215 376T149 500T124 698Q124 799 145 875T206 1005T301 1088T426 1126V1331H528V1129Q587 1124 644 1101T744 1048L711 966Q666
993 611 1015T497 1037Q440 1037 393 1019T311 962T257 861T238 709Q238 614 256 552T308 452T386 398T484 382Q539 382 592 398T717 448L748 366V366Z" />
<glyph unicode="&#xa3;" glyph-name="sterling" horiz-adv-x="1024" d="M113 0V77L250 94V627H68V722H250V916Q250 1036 276 1117T346 1247T447 1317T566 1339Q619 1339 662 1333T740 1318T799 1296T840 1273L808 1191Q783 1202 759 1211T708 1227T648 1237T576
1241Q520 1241 480 1223T414 1164T376 1060T363 910V722H702V627H363V99H837V0H113Z" />
<glyph unicode="&#xa4;" glyph-name="currency" horiz-adv-x="1126" d="M295 323Q271 347 253 377T221 448T200 539T193 651Q193 764 222 850T298 984L95 1289L189 1337L376 1039Q419 1065 469 1075T569 1086H573Q630 1086 677 1074T755 1043L939 1337L1028 1289L831
993Q884 940 909 854T934 662Q934 543 906 462T831 327L1018 44L926 -8L753 272Q717 251 671 238T569 225H563Q538 225 513 228T462 236T414 251T371 272L198 -8L110 40L295 323ZM823 655Q823 727 810 788T766 895T686 965T565 991Q495 991 446 967T365 899T319
792T304 655Q304 583 317 522T361 417T441 347T565 322Q636 322 685 347T765 417T809 523T823 655Z" />
<glyph unicode="&#xa5;" glyph-name="yen" horiz-adv-x="1126" d="M634 611H942V521H630V300H942V211H630V0H518V211H205V300H518V521H205V611H513L125 1331H256L424 1011L578 703L746 1037L895 1331H1020L634 611Z" />
<glyph unicode="&#xa6;" glyph-name="brokenbar" horiz-adv-x="581" d="M236 846V1652H347V846H236ZM236 -396V411H347V-396H236Z" />
<glyph unicode="&#xa7;" glyph-name="section" horiz-adv-x="1126" d="M957 599Q957 550 946 509T909 429T845 356T748 282Q778 260 802 234T844 178T871 113T881 40Q881 -23 855 -77T781 -171T662 -234T501 -257Q459 -257 415 -250T327 -231T242 -203T166 -166L205
-80Q238 -96 275 -110T350 -134T425 -151T498 -157Q564 -157 614 -142T697 -102T747 -43T764 32Q764 88 738 129T668 203T570 260T456 312T343 369T244 438T174 531T147 658Q147 705 158 746T195 826T260 900T357 975Q333 991 310 1014T268 1067T238 1133T226 1210Q226
1272 248 1325T315 1416T424 1476T576 1498Q663 1498 745 1476T887 1419L849 1338Q822 1350 791 1361T726 1382T654 1396T579 1401Q516 1401 471 1387T396 1348T353 1290T339 1218Q339 1163 365 1124T435 1053T534 995T648 943T761 887T860 816T930 723T957 599ZM843
587Q844 634 827 670T779 735T709 787T624 832T533 875T443 922Q390 891 355 861T300 800T271 737T261 669Q260 622 278 585T327 519T399 466T485 420T575 377T662 333Q714 362 748 391T803 452T833 517T843 587Z" />
<glyph unicode="&#xa8;" glyph-name="dieresis" horiz-adv-x="819" d="M537 1308V1469H645V1308H537ZM174 1308V1469H282V1308H174Z" />
<glyph unicode="&#xa9;" glyph-name="copyright" horiz-adv-x="1603" d="M1481 690Q1481 544 1432 416T1295 191T1084 40T815 -16Q669 -16 547 39T336 191T198 415T149 690Q149 836 198 965T335 1189T546 1340T815 1396Q912 1396 1000 1371T1162 1300T1295 1190T1395
1047T1458 878T1481 690ZM1383 690Q1383 818 1342 930T1225 1127T1046 1261T815 1310Q688 1310 584 1262T405 1129T289 933T247 690Q247 562 288 450T405 253T584 120T815 71Q942 71 1046 119T1225 251T1341 447T1383 690ZM1064 329Q1011 298 946 274T802 250Q740
250 683 266T583 328T515 459T489 679Q489 795 513 879T581 1020T688 1103T830 1131Q857 1131 887 1126T947 1112T1005 1089T1060 1058L1030 977Q1010 987 987 998T940 1017T892 1031T844 1037Q788 1037 743 1020T667 962T619 855T602 690Q602 590 618 525T664
420T734 364T823 347Q852 347 879 352T932 366T983 386T1034 408L1064 329Z" />
<glyph unicode="&#xaa;" glyph-name="ordfeminine" horiz-adv-x="772" d="M166 480V569H658V480H166ZM492 1021Q417 1021 369 1014T294 991T258 953T248 903Q248 879 255 858T277 820T310 794T355 784Q376 784 396 789T439 806T486 837T543 884V1021H492ZM551
801Q523 777 498 758T446 727T392 708T332 702Q289 702 256 716T198 756T161 817T147 895Q147 945 168 982T232 1045T341 1084T501 1097H543V1120Q543 1165 538 1200T518 1258T475 1292T400 1304Q350 1304 305 1294T204 1267L187 1343Q247 1364 301 1375T412 1387Q474
1387 517 1373T587 1329T628 1253T641 1142V707H559L551 801Z" />
<glyph unicode="&#xab;" glyph-name="guillemotleft" horiz-adv-x="1041" d="M774 190L507 607L777 1028L849 995L635 611L849 225L774 190ZM403 168L120 607L405 1049L479 1017L253 611L479 203L403 168Z" />
<glyph unicode="&#xac;" glyph-name="logicalnot" horiz-adv-x="1126" d="M866 269V563H125V657H970V269H866Z" />
<glyph unicode="&#xad;" glyph-name="hyphen" horiz-adv-x="519" d="M78 533V634H458V533H78Z" />
<glyph unicode="&#xae;" glyph-name="registered" horiz-adv-x="1224" d="M1096 1023Q1096 925 1060 836T959 680T805 574T612 534Q503 534 414 572T261 678T162 833T127 1023Q127 1123 163 1212T263 1367T416 1473T612 1512Q719 1512 808 1474T961 1369T1060
1213T1096 1023ZM1001 1019Q1001 1101 973 1175T893 1305T771 1395T612 1428Q525 1428 454 1396T331 1308T251 1180T223 1025Q223 944 251 871T330 741T453 652T612 619Q699 619 770 651T893 737T972 864T1001 1019ZM602 953H526V734H426V1291H606Q709 1291 759
1250T810 1127Q810 1067 781 1031T697 975L837 734H721L602 953ZM526 1206V1038H578Q617 1038 642 1044T682 1061T701 1087T707 1119Q707 1144 702 1160T682 1187T642 1201T578 1206H526Z" />
<glyph unicode="&#xaf;" glyph-name="macron" horiz-adv-x="819" d="M168 1287V1377H651V1287H168Z" />
<glyph unicode="&#xb0;" glyph-name="degree" horiz-adv-x="950" d="M819 1249Q819 1178 792 1116T719 1008T611 935T477 908Q405 908 343 934T235 1007T162 1115T135 1249Q135 1320 162 1382T235 1490T344 1563T477 1590Q549 1590 611 1564T720 1491T792 1383T819
1249ZM719 1249Q719 1301 700 1347T648 1427T571 1480T477 1500Q428 1500 384 1481T306 1427T254 1347T235 1249Q235 1197 254 1152T306 1072T383 1018T477 998Q526 998 570 1017T648 1071T700 1151T719 1249Z" />
<glyph unicode="&#xb1;" glyph-name="plusminus" horiz-adv-x="1126" d="M615 677V296H511V677H163V770H511V1148H615V770H963V677H615ZM163 0V95H963V0H163Z" />
<glyph unicode="&#xb2;" glyph-name="twosuperior" horiz-adv-x="645" d="M87 1305Q136 1342 194 1365T318 1388Q377 1388 419 1373T489 1333T529 1274T542 1202Q542 1164 534 1130T508 1063T459 998T383 931L213 799H566V712H73V786L306 977Q347 1010 372 1038T410
1091T427 1142T431 1194Q431 1242 400 1273T304 1305Q259 1305 214 1287T120 1240L87 1305V1305Z" />
<glyph unicode="&#xb3;" glyph-name="threesuperior" horiz-adv-x="643" d="M282 704Q224 704 169 721T70 766L101 825Q146 807 192 797T292 786Q335 786 363 794T408 818T431 853T437 897Q437 918 429 938T396 973T324 997T203 1002V1083Q267 1081 309 1087T376
1109T411 1147T422 1199Q422 1246 390 1278T292 1310Q268 1310 247 1306T206 1293T163 1274T115 1249L81 1311Q124 1343 182 1365T307 1388Q365 1388 407 1374T475 1335T514 1277T527 1206Q527 1154 498 1112T405 1054Q463 1044 500 1003T538 903Q538 806 474 755T282
704Z" />
<glyph unicode="&#xb4;" glyph-name="acute" horiz-adv-x="819" d="M420 1174L345 1212L582 1497L684 1443L420 1174Z" />
<glyph unicode="&#xb5;" glyph-name="mu" horiz-adv-x="1126" d="M982 9Q957 2 924 -3T856 -8Q811 -8 781 2T732 33T709 81T707 145Q649 101 601 72T513 24T440 -1T376 -8Q339 -8 312 0T265 20T232 48T211 79L118 -387H8L286 1042H397L268 379Q241 236 270 164T386
91Q449 91 529 132T716 256L868 1042H979L821 238Q812 191 813 162T825 117T856 96T908 91Q920 91 943 93T986 98L982 9V9Z" />
<glyph unicode="&#xb6;" glyph-name="paragraph" horiz-adv-x="1117" d="M903 1369V-280H797V1369H604V57Q604 -37 594 -102T562 -209T505 -270T422 -289Q397 -289 376 -287T335 -282T297 -275T259 -266V-175Q312 -186 350 -192T415 -194T458 -175T482 -127T494
-42T497 85V740Q415 740 350 768T238 844T168 957T143 1093Q143 1136 152 1180T181 1264T232 1341T309 1403T414 1445T550 1461H1052V1369H903Z" />
<glyph unicode="&#xb7;" glyph-name="periodcentered" horiz-adv-x="335" d="M99 518V701H236V518H99Z" />
<glyph unicode="&#xb8;" glyph-name="cedilla" horiz-adv-x="801" d="M334 -389H240L339 -104H466L334 -389Z" />
<glyph unicode="&#xb9;" glyph-name="onesuperior" horiz-adv-x="471" d="M236 1280L74 1212L55 1294L250 1380H340V711H236V1280Z" />
<glyph unicode="&#xba;" glyph-name="ordmasculine" horiz-adv-x="765" d="M155 480V569H629V480H155ZM663 1048Q663 971 647 907T598 798T512 727T388 702H384Q310 702 258 723T173 786T124 892T108 1041Q108 1120 124 1183T175 1292T262 1362T388 1387H392Q462
1387 513 1367T597 1306T646 1200T663 1048ZM562 1046Q562 1102 554 1148T524 1229T470 1282T386 1301Q338 1301 305 1283T250 1232T218 1150T208 1043Q208 986 217 939T248 859T303 806T386 787Q435 787 468 806T523 859T553 941T562 1046Z" />
<glyph unicode="&#xbb;" glyph-name="guillemotright" horiz-adv-x="1041" d="M266 1028L534 610L264 190L192 223L406 606L192 993L266 1028ZM638 1049L920 610L636 168L561 202L787 606L561 1015L638 1049Z" />
<glyph unicode="&#xbc;" glyph-name="onequarter" horiz-adv-x="1249" d="M236 1280L74 1212L55 1294L250 1380H340V711H236V1280ZM252 0H143L953 1380H1063L252 0ZM989 1V136H658V208L942 670H1092V218H1192V136H1092V1H989ZM989 494L991 590H989L938 507L760
218H989V494Z" />
<glyph unicode="&#xbd;" glyph-name="onehalf" horiz-adv-x="1335" d="M236 1280L74 1212L55 1294L250 1380H340V711H236V1280ZM252 0H143L953 1380H1063L252 0ZM777 595Q826 632 884 655T1008 678Q1067 678 1109 663T1179 623T1219 564T1232 492Q1232 454 1224
420T1198 353T1149 288T1073 221L903 89H1256V2H763V76L996 267Q1037 300 1062 328T1100 381T1117 432T1121 484Q1121 532 1090 563T994 595Q949 595 904 577T810 530L777 595V595Z" />
<glyph unicode="&#xbe;" glyph-name="threequarters" horiz-adv-x="1358" d="M282 704Q224 704 169 721T70 766L101 825Q146 807 192 797T292 786Q335 786 363 794T408 818T431 853T437 897Q437 918 429 938T396 973T324 997T203 1002V1083Q267 1081 309 1087T376
1109T411 1147T422 1199Q422 1246 390 1278T292 1310Q268 1310 247 1306T206 1293T163 1274T115 1249L81 1311Q124 1343 182 1365T307 1388Q365 1388 407 1374T475 1335T514 1277T527 1206Q527 1154 498 1112T405 1054Q463 1044 500 1003T538 903Q538 806 474 755T282
704ZM360 0H251L1061 1380H1171L360 0ZM1095 1V136H764V208L1048 670H1198V218H1298V136H1198V1H1095ZM1095 494L1097 590H1095L1044 507L866 218H1095V494Z" />
<glyph unicode="&#xbf;" glyph-name="questiondown" horiz-adv-x="872" d="M130 30Q130 110 153 170T212 281T289 375T365 467T424 570T449 697V843H560L561 708Q561 625 538 563T481 450T406 355T331 265T274 165T251 42Q251 -1 263 -40T303 -109T374 -156T479
-173Q530 -173 590 -162T706 -132L725 -219Q659 -242 589 -256T457 -271Q380 -271 320 -250T217 -190T153 -96T130 30ZM566 1225V1057H443V1225H566Z" />
<glyph unicode="&#xc0;" glyph-name="Agrave" horiz-adv-x="1049" d="M881 0L789 320H253L162 0H44L451 1380H600L1005 0H881ZM521 1255H518L278 417H764L521 1255ZM470 1490L280 1741H417L569 1490H470Z" />
<glyph unicode="&#xc1;" glyph-name="Aacute" horiz-adv-x="1049" d="M881 0L789 320H253L162 0H44L451 1380H600L1005 0H881ZM521 1255H518L278 417H764L521 1255ZM625 1741H762L573 1490H473L625 1741Z" />
<glyph unicode="&#xc2;" glyph-name="Acircumflex" horiz-adv-x="1049" d="M881 0L789 320H253L162 0H44L451 1380H600L1005 0H881ZM521 1255H518L278 417H764L521 1255ZM291 1491L254 1548L523 1742L791 1550L752 1491L521 1629L291 1491Z" />
<glyph unicode="&#xc3;" glyph-name="Atilde" horiz-adv-x="1049" d="M881 0L789 320H253L162 0H44L451 1380H600L1005 0H881ZM521 1255H518L278 417H764L521 1255ZM655 1500Q620 1500 593 1511T544 1540T503 1577T467 1614T431 1642T391 1654Q341 1654 319 1619T296
1512H221Q214 1563 223 1605T255 1678T311 1725T390 1742Q425 1742 452 1731T501 1703T541 1666T578 1629T614 1601T654 1589Q704 1589 726 1624T748 1731H824Q831 1680 822 1638T790 1565T733 1517T655 1500Z" />
<glyph unicode="&#xc4;" glyph-name="Adieresis" horiz-adv-x="1049" d="M881 0L789 320H253L162 0H44L451 1380H600L1005 0H881ZM521 1255H518L278 417H764L521 1255ZM390 1521H280V1680H390V1521ZM767 1521H657V1680H767V1521Z" />
<glyph unicode="&#xc5;" glyph-name="Aring" horiz-adv-x="1049" d="M881 0L789 320H253L162 0H44L451 1380H600L1005 0H881ZM521 1255H518L278 417H764L521 1255ZM724 1597Q724 1560 713 1529T677 1475T614 1437T523 1423Q467 1423 429 1434T366 1468T331 1523T320
1596Q320 1634 333 1665T370 1719T433 1755T527 1769Q628 1769 676 1727T724 1597ZM626 1597Q626 1617 621 1635T604 1665T572 1685T523 1694Q496 1694 476 1687T444 1666T425 1635T419 1596Q419 1576 424 1559T442 1528T474 1507T523 1499Q550 1499 570 1506T602
1527T620 1558T626 1597Z" />
<glyph unicode="&#xc6;" glyph-name="AE" horiz-adv-x="1332" d="M636 320H195L50 0H-72L571 1380H1238V1282H750V762H1194V664H750V99H1244V0H636V320ZM636 1281H633L237 417H636V1281Z" />
<glyph unicode="&#xc7;" glyph-name="Ccedilla" horiz-adv-x="997" d="M940 79Q851 39 759 16T581 -8Q468 -8 383 27T239 143T151 357T121 686Q121 869 157 1001T257 1219T409 1346T604 1388Q646 1388 691 1381T780 1362T863 1336T934 1306L900 1212Q876 1224
842 1237T770 1262T691 1282T614 1290Q527 1290 458 1255T341 1146T267 960T242 690Q242 524 264 410T331 226T443 124T603 93Q635 93 673 99T753 116T834 141T911 170L940 79V79ZM497 -389H403L502 -104H629L497 -389Z" />
<glyph unicode="&#xc8;" glyph-name="Egrave" horiz-adv-x="872" d="M174 0V1380H778V1282H290V762H734V664H290V99H784V0H174ZM440 1490L250 1741H387L539 1490H440Z" />
<glyph unicode="&#xc9;" glyph-name="Eacute" horiz-adv-x="872" d="M174 0V1380H778V1282H290V762H734V664H290V99H784V0H174ZM572 1741H709L520 1490H420L572 1741Z" />
<glyph unicode="&#xca;" glyph-name="Ecircumflex" horiz-adv-x="872" d="M174 0V1380H778V1282H290V762H734V664H290V99H784V0H174ZM244 1491L207 1548L476 1742L744 1550L705 1491L474 1629L244 1491Z" />
<glyph unicode="&#xcb;" glyph-name="Edieresis" horiz-adv-x="872" d="M174 0V1380H778V1282H290V762H734V664H290V99H784V0H174ZM337 1521H227V1680H337V1521ZM714 1521H604V1680H714V1521Z" />
<glyph unicode="&#xcc;" glyph-name="Igrave" horiz-adv-x="466" d="M174 0V1380H290V0H174ZM187 1490L-3 1741H134L286 1490H187Z" />
<glyph unicode="&#xcd;" glyph-name="Iacute" horiz-adv-x="466" d="M174 0V1380H290V0H174ZM329 1741H466L277 1490H177L329 1741Z" />
<glyph unicode="&#xce;" glyph-name="Icircumflex" horiz-adv-x="466" d="M174 0V1380H290V0H174ZM2 1491L-35 1548L234 1742L502 1550L463 1491L232 1629L2 1491Z" />
<glyph unicode="&#xcf;" glyph-name="Idieresis" horiz-adv-x="466" d="M174 0V1380H290V0H174ZM100 1521H-10V1680H100V1521ZM477 1521H367V1680H477V1521Z" />
<glyph unicode="&#xd0;" glyph-name="Eth" horiz-adv-x="1190" d="M53 665V762H197V1380Q269 1382 336 1383T470 1384Q633 1384 746 1340T931 1210T1034 997T1066 704Q1066 537 1032 405T924 182T737 44T464 -4Q430 -4 395 -4T326 -3T258 -2T197 0V665H53ZM313
665V99Q327 98 347 98T389 97T431 96T467 95Q603 95 695 135T843 254T924 444T948 702Q948 840 925 948T846 1132T696 1246T463 1286Q447 1286 429 1286T390 1285T350 1284T313 1282V762H557V665H313Z" />
<glyph unicode="&#xd1;" glyph-name="Ntilde" horiz-adv-x="1207" d="M880 0L282 1254V0H174V1380H344L925 155V1380H1032V0H880ZM736 1500Q701 1500 674 1511T625 1540T584 1577T548 1614T512 1642T472 1654Q422 1654 400 1619T377 1512H302Q295 1563 304 1605T336
1678T392 1725T471 1742Q506 1742 533 1731T582 1703T622 1666T659 1629T695 1601T735 1589Q785 1589 807 1624T829 1731H905Q912 1680 903 1638T871 1565T814 1517T736 1500Z" />
<glyph unicode="&#xd2;" glyph-name="Ograve" horiz-adv-x="1269" d="M1147 694Q1147 520 1116 389T1021 169T862 37T638 -8H626Q489 -8 394 32T238 156T149 371T121 684Q121 859 153 990T248 1210T406 1343T630 1388H643Q779 1388 874 1348T1030 1224T1119 1008T1147
694ZM1030 692Q1030 828 1012 938T948 1127T825 1247T631 1290Q522 1290 448 1250T327 1133T259 945T238 690Q238 553 257 443T321 254T444 134T638 91Q746 91 821 131T942 247T1009 436T1030 692ZM586 1490L396 1741H533L685 1490H586Z" />
<glyph unicode="&#xd3;" glyph-name="Oacute" horiz-adv-x="1269" d="M1147 694Q1147 520 1116 389T1021 169T862 37T638 -8H626Q489 -8 394 32T238 156T149 371T121 684Q121 859 153 990T248 1210T406 1343T630 1388H643Q779 1388 874 1348T1030 1224T1119 1008T1147
694ZM1030 692Q1030 828 1012 938T948 1127T825 1247T631 1290Q522 1290 448 1250T327 1133T259 945T238 690Q238 553 257 443T321 254T444 134T638 91Q746 91 821 131T942 247T1009 436T1030 692ZM732 1741H869L680 1490H580L732 1741Z" />
<glyph unicode="&#xd4;" glyph-name="Ocircumflex" horiz-adv-x="1269" d="M1147 694Q1147 520 1116 389T1021 169T862 37T638 -8H626Q489 -8 394 32T238 156T149 371T121 684Q121 859 153 990T248 1210T406 1343T630 1388H643Q779 1388 874 1348T1030 1224T1119
1008T1147 694ZM1030 692Q1030 828 1012 938T948 1127T825 1247T631 1290Q522 1290 448 1250T327 1133T259 945T238 690Q238 553 257 443T321 254T444 134T638 91Q746 91 821 131T942 247T1009 436T1030 692ZM404 1491L367 1548L636 1742L904 1550L865 1491L634
1629L404 1491Z" />
<glyph unicode="&#xd5;" glyph-name="Otilde" horiz-adv-x="1269" d="M1147 694Q1147 520 1116 389T1021 169T862 37T638 -8H626Q489 -8 394 32T238 156T149 371T121 684Q121 859 153 990T248 1210T406 1343T630 1388H643Q779 1388 874 1348T1030 1224T1119 1008T1147
694ZM1030 692Q1030 828 1012 938T948 1127T825 1247T631 1290Q522 1290 448 1250T327 1133T259 945T238 690Q238 553 257 443T321 254T444 134T638 91Q746 91 821 131T942 247T1009 436T1030 692ZM768 1500Q733 1500 706 1511T657 1540T616 1577T580 1614T544
1642T504 1654Q454 1654 432 1619T409 1512H334Q327 1563 336 1605T368 1678T424 1725T503 1742Q538 1742 565 1731T614 1703T654 1666T691 1629T727 1601T767 1589Q817 1589 839 1624T861 1731H937Q944 1680 935 1638T903 1565T846 1517T768 1500Z" />
<glyph unicode="&#xd6;" glyph-name="Odieresis" horiz-adv-x="1269" d="M1147 694Q1147 520 1116 389T1021 169T862 37T638 -8H626Q489 -8 394 32T238 156T149 371T121 684Q121 859 153 990T248 1210T406 1343T630 1388H643Q779 1388 874 1348T1030 1224T1119
1008T1147 694ZM1030 692Q1030 828 1012 938T948 1127T825 1247T631 1290Q522 1290 448 1250T327 1133T259 945T238 690Q238 553 257 443T321 254T444 134T638 91Q746 91 821 131T942 247T1009 436T1030 692ZM499 1521H389V1680H499V1521ZM876 1521H766V1680H876V1521Z"
/>
<glyph unicode="&#xd7;" glyph-name="multiply" horiz-adv-x="1126" d="M969 135L563 542L157 135L91 201L497 607L91 1013L162 1083L567 678L973 1083L1038 1018L633 611L1038 206L969 135Z" />
<glyph unicode="&#xd8;" glyph-name="Oslash" horiz-adv-x="1275" d="M911 1331Q1038 1265 1095 1109T1153 694Q1153 520 1122 389T1027 169T867 37T641 -8H629Q577 -8 533 -3T450 15L348 -277H247L363 49Q299 82 254 136T179 269T136 451T121 684Q121 859 153
990T248 1210T408 1343T633 1388H646Q695 1388 740 1383T825 1365L923 1646H1024L911 1331ZM486 115Q518 102 557 96T642 89Q751 89 826 129T949 247T1017 437T1039 694Q1039 783 1031 864T1005 1014T955 1136T876 1225L486 115ZM789 1265Q756 1278 717 1285T631
1292Q523 1292 448 1252T326 1135T258 945T236 689Q236 599 243 518T270 368T320 245T399 156L789 1265Z" />
<glyph unicode="&#xd9;" glyph-name="Ugrave" horiz-adv-x="1199" d="M1024 411Q1024 322 1001 246T926 113T792 25T592 -7Q482 -7 404 18T274 95T199 223T174 404V1380H290V405Q290 325 306 266T358 169T454 111T600 91Q693 91 752 113T846 176T894 275T908 406V1380H1024V411V411ZM555
1490L365 1741H502L654 1490H555Z" />
<glyph unicode="&#xda;" glyph-name="Uacute" horiz-adv-x="1199" d="M1024 411Q1024 322 1001 246T926 113T792 25T592 -7Q482 -7 404 18T274 95T199 223T174 404V1380H290V405Q290 325 306 266T358 169T454 111T600 91Q693 91 752 113T846 176T894 275T908 406V1380H1024V411V411ZM690
1741H827L638 1490H538L690 1741Z" />
<glyph unicode="&#xdb;" glyph-name="Ucircumflex" horiz-adv-x="1199" d="M1024 411Q1024 322 1001 246T926 113T792 25T592 -7Q482 -7 404 18T274 95T199 223T174 404V1380H290V405Q290 325 306 266T358 169T454 111T600 91Q693 91 752 113T846 176T894 275T908
406V1380H1024V411V411ZM369 1491L332 1548L601 1742L869 1550L830 1491L599 1629L369 1491Z" />
<glyph unicode="&#xdc;" glyph-name="Udieresis" horiz-adv-x="1199" d="M1024 411Q1024 322 1001 246T926 113T792 25T592 -7Q482 -7 404 18T274 95T199 223T174 404V1380H290V405Q290 325 306 266T358 169T454 111T600 91Q693 91 752 113T846 176T894 275T908
406V1380H1024V411V411ZM465 1521H355V1680H465V1521ZM842 1521H732V1680H842V1521Z" />
<glyph unicode="&#xdd;" glyph-name="Yacute" horiz-adv-x="944" d="M530 595V0H417V595L20 1380H153L332 1015L477 713L606 987L796 1380H925L530 595ZM559 1741H696L507 1490H407L559 1741Z" />
<glyph unicode="&#xde;" glyph-name="Thorn" horiz-adv-x="1013" d="M290 1141Q337 1143 391 1143T501 1143Q618 1143 700 1114T835 1031T912 897T936 719Q936 621 907 541T820 404T676 316T477 285Q429 285 383 285T290 287V0H174V1380H290V1141ZM815 712Q815
787 801 848T750 953T649 1021T484 1045Q425 1045 377 1044T290 1041V389Q323 386 367 385T480 383Q575 383 639 407T742 475T798 579T815 712Z" />
<glyph unicode="&#xdf;" glyph-name="germandbls" horiz-adv-x="979" d="M927 259Q927 196 907 147T848 63T757 11T638 -8Q585 -8 540 0T456 25L478 116Q505 104 545 96T634 88Q680 88 714 101T770 136T802 187T813 247Q813 310 787 355T720 435T634 504T547 577T481
670T454 798Q454 850 470 888T511 958T563 1015T616 1072T656 1138T673 1223Q673 1254 664 1285T634 1342T578 1384T491 1400Q435 1400 394 1380T327 1322T287 1233T274 1116V0H163V1114Q163 1201 185 1271T250 1392T355 1469T499 1496Q573 1496 627 1476T716 1420T768
1337T785 1236Q785 1174 769 1130T728 1053T675 993T622 940T582 883T565 811Q565 752 591 709T659 630T746 559T833 483T900 388T927 259Z" />
<glyph unicode="&#xe0;" glyph-name="agrave" horiz-adv-x="983" d="M607 496Q491 496 415 484T295 448T234 387T217 301Q217 257 229 219T263 152T318 107T393 90Q434 90 470 98T542 125T619 175T710 252V496H607ZM718 151Q662 103 618 72T533 24T453 -1T367
-8Q307 -8 258 14T174 76T120 171T101 293Q101 366 130 421T222 513T383 569T620 588H710V636Q710 708 702 767T669 869T596 934T469 957Q432 957 396 952T324 939T250 919T171 893L149 979Q240 1013 322 1032T485 1051Q575 1051 639 1029T743 960T803 841T822
671V0H732L718 151ZM486 1174L221 1443L323 1497L560 1212L486 1174Z" />
<glyph unicode="&#xe1;" glyph-name="aacute" horiz-adv-x="983" d="M607 496Q491 496 415 484T295 448T234 387T217 301Q217 257 229 219T263 152T318 107T393 90Q434 90 470 98T542 125T619 175T710 252V496H607ZM718 151Q662 103 618 72T533 24T453 -1T367
-8Q307 -8 258 14T174 76T120 171T101 293Q101 366 130 421T222 513T383 569T620 588H710V636Q710 708 702 767T669 869T596 934T469 957Q432 957 396 952T324 939T250 919T171 893L149 979Q240 1013 322 1032T485 1051Q575 1051 639 1029T743 960T803 841T822
671V0H732L718 151ZM478 1174L403 1212L640 1497L742 1443L478 1174Z" />
<glyph unicode="&#xe2;" glyph-name="acircumflex" horiz-adv-x="983" d="M607 496Q491 496 415 484T295 448T234 387T217 301Q217 257 229 219T263 152T318 107T393 90Q434 90 470 98T542 125T619 175T710 252V496H607ZM718 151Q662 103 618 72T533 24T453 -1T367
-8Q307 -8 258 14T174 76T120 171T101 293Q101 366 130 421T222 513T383 569T620 588H710V636Q710 708 702 767T669 869T596 934T469 957Q432 957 396 952T324 939T250 919T171 893L149 979Q240 1013 322 1032T485 1051Q575 1051 639 1029T743 960T803 841T822
671V0H732L718 151ZM674 1174L481 1356L288 1174L237 1230L483 1497L728 1232L674 1174Z" />
<glyph unicode="&#xe3;" glyph-name="atilde" horiz-adv-x="983" d="M607 496Q491 496 415 484T295 448T234 387T217 301Q217 257 229 219T263 152T318 107T393 90Q434 90 470 98T542 125T619 175T710 252V496H607ZM718 151Q662 103 618 72T533 24T453 -1T367
-8Q307 -8 258 14T174 76T120 171T101 293Q101 366 130 421T222 513T383 569T620 588H710V636Q710 708 702 767T669 869T596 934T469 957Q432 957 396 952T324 939T250 919T171 893L149 979Q240 1013 322 1032T485 1051Q575 1051 639 1029T743 960T803 841T822
671V0H732L718 151ZM782 1471Q789 1419 780 1377T748 1303T691 1255T613 1238Q578 1238 551 1249T502 1278T461 1315T425 1351T389 1379T349 1391Q299 1391 277 1357T254 1250H179Q172 1301 181 1344T213 1417T269 1465T348 1482Q383 1482 410 1471T459 1442T499
1405T536 1369T572 1341T612 1329Q662 1329 684 1364T706 1471H782V1471Z" />
<glyph unicode="&#xe4;" glyph-name="adieresis" horiz-adv-x="983" d="M607 496Q491 496 415 484T295 448T234 387T217 301Q217 257 229 219T263 152T318 107T393 90Q434 90 470 98T542 125T619 175T710 252V496H607ZM718 151Q662 103 618 72T533 24T453 -1T367
-8Q307 -8 258 14T174 76T120 171T101 293Q101 366 130 421T222 513T383 569T620 588H710V636Q710 708 702 767T669 869T596 934T469 957Q432 957 396 952T324 939T250 919T171 893L149 979Q240 1013 322 1032T485 1051Q575 1051 639 1029T743 960T803 841T822
671V0H732L718 151ZM605 1308V1469H713V1308H605ZM242 1308V1469H350V1308H242Z" />
<glyph unicode="&#xe5;" glyph-name="aring" horiz-adv-x="983" d="M607 496Q491 496 415 484T295 448T234 387T217 301Q217 257 229 219T263 152T318 107T393 90Q434 90 470 98T542 125T619 175T710 252V496H607ZM718 151Q662 103 618 72T533 24T453 -1T367 -8Q307
-8 258 14T174 76T120 171T101 293Q101 366 130 421T222 513T383 569T620 588H710V636Q710 708 702 767T669 869T596 934T469 957Q432 957 396 952T324 939T250 919T171 893L149 979Q240 1013 322 1032T485 1051Q575 1051 639 1029T743 960T803 841T822 671V0H732L718
151ZM701 1359Q701 1314 689 1276T651 1209T584 1164T484 1148Q424 1148 382 1162T314 1202T277 1268T265 1357Q265 1403 277 1442T317 1509T386 1552T488 1568Q599 1568 650 1516T701 1359ZM607 1359Q607 1387 601 1411T581 1452T543 1480T484 1491Q450 1491 426
1481T388 1453T366 1411T359 1357Q359 1329 365 1305T386 1263T424 1235T484 1225Q517 1225 540 1235T579 1263T600 1305T607 1359Z" />
<glyph unicode="&#xe6;" glyph-name="ae" horiz-adv-x="1548" d="M607 496Q491 496 415 484T295 448T234 387T217 301Q217 257 229 219T262 152T315 107T385 90Q425 90 463 102T542 141T626 212T721 319Q718 340 716 362T712 408T711 453T710 496H607ZM748 223Q701
168 658 125T568 53T471 8T359 -8Q301 -8 254 14T173 76T120 171T101 293Q101 366 130 421T222 513T383 569T620 588H710V636Q710 708 702 767T669 869T596 934T469 957Q432 957 396 952T324 939T250 919T171 893L149 979Q240 1013 322 1032T485 1051Q545 1051
594 1041T681 1009T746 949T787 857Q806 902 835 938T902 999T987 1037T1090 1051Q1173 1051 1237 1019T1346 928T1413 788T1436 612Q1436 598 1436 583T1435 552T1434 522T1432 496H822Q822 391 838 315T888 188T974 114T1098 90Q1123 90 1157 93T1230 103T1309
118T1384 138L1407 58Q1317 25 1236 9T1072 -8Q1011 -8 959 5T867 46T797 117T748 223ZM1324 608Q1324 674 1312 737T1271 849T1195 927T1080 957Q1008 957 960 924T883 839T839 720T822 588H1324V608Z" />
<glyph unicode="&#xe7;" glyph-name="ccedilla" horiz-adv-x="770" d="M737 91Q675 43 605 18T454 -8Q413 -8 371 1T291 32T219 92T162 187T124 324T110 510Q110 650 137 752T213 920T331 1019T481 1051Q551 1051 611 1027T722 958L682 879Q634 915 587 934T483
953Q429 953 381 931T299 857T244 723T224 521Q224 399 244 317T300 186T379 114T473 92Q533 92 585 110T696 167L737 91ZM373 -389H279L378 -104H505L373 -389Z" />
<glyph unicode="&#xe8;" glyph-name="egrave" horiz-adv-x="949" d="M809 58Q719 25 638 9T479 -8Q386 -8 317 20T201 109T132 270T109 513Q109 643 135 743T210 912T330 1015T491 1051Q574 1051 639 1019T747 928T814 788T837 612Q837 598 837 583T836 552T834
522T832 496H223Q223 391 239 315T289 188T374 114T497 90Q522 90 557 93T632 103T710 118T786 138L809 58ZM725 608Q725 674 713 737T672 849T596 927T481 957Q410 957 362 924T284 839T240 720T223 588H725V608ZM478 1174L213 1443L315 1497L552 1212L478 1174Z"
/>
<glyph unicode="&#xe9;" glyph-name="eacute" horiz-adv-x="949" d="M809 58Q719 25 638 9T479 -8Q386 -8 317 20T201 109T132 270T109 513Q109 643 135 743T210 912T330 1015T491 1051Q574 1051 639 1019T747 928T814 788T837 612Q837 598 837 583T836 552T834
522T832 496H223Q223 391 239 315T289 188T374 114T497 90Q522 90 557 93T632 103T710 118T786 138L809 58ZM725 608Q725 674 713 737T672 849T596 927T481 957Q410 957 362 924T284 839T240 720T223 588H725V608ZM487 1174L412 1212L649 1497L751 1443L487 1174Z"
/>
<glyph unicode="&#xea;" glyph-name="ecircumflex" horiz-adv-x="949" d="M809 58Q719 25 638 9T479 -8Q386 -8 317 20T201 109T132 270T109 513Q109 643 135 743T210 912T330 1015T491 1051Q574 1051 639 1019T747 928T814 788T837 612Q837 598 837 583T836 552T834
522T832 496H223Q223 391 239 315T289 188T374 114T497 90Q522 90 557 93T632 103T710 118T786 138L809 58ZM725 608Q725 674 713 737T672 849T596 927T481 957Q410 957 362 924T284 839T240 720T223 588H725V608ZM675 1174L482 1356L289 1174L238 1230L484 1497L729
1232L675 1174Z" />
<glyph unicode="&#xeb;" glyph-name="edieresis" horiz-adv-x="949" d="M809 58Q719 25 638 9T479 -8Q386 -8 317 20T201 109T132 270T109 513Q109 643 135 743T210 912T330 1015T491 1051Q574 1051 639 1019T747 928T814 788T837 612Q837 598 837 583T836 552T834
522T832 496H223Q223 391 239 315T289 188T374 114T497 90Q522 90 557 93T632 103T710 118T786 138L809 58ZM725 608Q725 674 713 737T672 849T596 927T481 957Q410 957 362 924T284 839T240 720T223 588H725V608ZM613 1308V1469H721V1308H613ZM250 1308V1469H358V1308H250Z"
/>
<glyph unicode="&#xec;" glyph-name="igrave" horiz-adv-x="437" d="M163 0V1042H274V0H163ZM246 1174L-19 1443L83 1497L320 1212L246 1174Z" />
<glyph unicode="&#xed;" glyph-name="iacute" horiz-adv-x="437" d="M163 0V1042H274V0H163ZM200 1174L125 1212L362 1497L464 1443L200 1174Z" />
<glyph unicode="&#xee;" glyph-name="icircumflex" horiz-adv-x="437" d="M163 0V1042H274V0H163ZM412 1174L219 1356L26 1174L-25 1230L221 1497L466 1232L412 1174Z" />
<glyph unicode="&#xef;" glyph-name="idieresis" horiz-adv-x="437" d="M163 0V1042H274V0H163ZM337 1308V1469H445V1308H337ZM-5 1308V1469H103V1308H-5Z" />
<glyph unicode="&#xf0;" glyph-name="eth" horiz-adv-x="961" d="M625 1283Q684 1208 727 1125T798 952T839 767T852 573Q852 430 829 321T759 139T642 28T475 -8H469Q401 -8 348 12T254 67T187 151T143 259T118 383T110 518Q110 642 134 740T200 907T302 1012T431
1049H437Q462 1049 493 1040T558 1013T626 971T693 917Q666 1009 625 1088T525 1239L322 1144L277 1220L463 1307Q429 1341 389 1373T300 1435L391 1496Q440 1463 483 1428T564 1354L782 1457L828 1381L625 1283ZM740 561Q740 582 739 612T735 673T730 734T723
785Q684 823 647 854T574 906T508 939T451 950Q402 950 360 918T287 829T239 694T222 523Q222 442 233 365T274 227T354 129T482 91Q552 91 601 119T681 205T726 351T740 561Z" />
<glyph unicode="&#xf1;" glyph-name="ntilde" horiz-adv-x="1017" d="M745 0V650Q745 708 735 762T702 859T644 926T561 951Q502 951 432 913T274 791V0H163V1042H252L267 892Q320 939 363 969T444 1018T517 1043T590 1051Q651 1051 700 1025T784 950T837 833T856
683V0H745ZM811 1471Q818 1419 809 1377T777 1303T720 1255T642 1238Q607 1238 580 1249T531 1278T490 1315T454 1351T418 1379T378 1391Q328 1391 306 1357T283 1250H208Q201 1301 210 1344T242 1417T298 1465T377 1482Q412 1482 439 1471T488 1442T528 1405T565
1369T601 1341T641 1329Q691 1329 713 1364T735 1471H811V1471Z" />
<glyph unicode="&#xf2;" glyph-name="ograve" horiz-adv-x="1023" d="M913 525Q913 411 891 314T819 146T694 33T510 -8H506Q400 -8 325 26T202 127T132 292T109 517Q109 631 132 728T204 897T329 1010T512 1051H517Q623 1051 698 1017T821 915T891 750T913 525ZM800
521Q800 615 785 694T737 831T648 921T512 954Q431 954 376 921T287 830T238 693T223 521Q223 427 238 348T286 212T375 122T511 90Q592 90 647 123T736 213T785 349T800 521ZM513 1174L248 1443L350 1497L587 1212L513 1174Z" />
<glyph unicode="&#xf3;" glyph-name="oacute" horiz-adv-x="1023" d="M913 525Q913 411 891 314T819 146T694 33T510 -8H506Q400 -8 325 26T202 127T132 292T109 517Q109 631 132 728T204 897T329 1010T512 1051H517Q623 1051 698 1017T821 915T891 750T913 525ZM800
521Q800 615 785 694T737 831T648 921T512 954Q431 954 376 921T287 830T238 693T223 521Q223 427 238 348T286 212T375 122T511 90Q592 90 647 123T736 213T785 349T800 521ZM521 1174L446 1212L683 1497L785 1443L521 1174Z" />
<glyph unicode="&#xf4;" glyph-name="ocircumflex" horiz-adv-x="1023" d="M913 525Q913 411 891 314T819 146T694 33T510 -8H506Q400 -8 325 26T202 127T132 292T109 517Q109 631 132 728T204 897T329 1010T512 1051H517Q623 1051 698 1017T821 915T891 750T913
525ZM800 521Q800 615 785 694T737 831T648 921T512 954Q431 954 376 921T287 830T238 693T223 521Q223 427 238 348T286 212T375 122T511 90Q592 90 647 123T736 213T785 349T800 521ZM705 1174L512 1356L319 1174L268 1230L514 1497L759 1232L705 1174Z" />
<glyph unicode="&#xf5;" glyph-name="otilde" horiz-adv-x="1023" d="M913 525Q913 411 891 314T819 146T694 33T510 -8H506Q400 -8 325 26T202 127T132 292T109 517Q109 631 132 728T204 897T329 1010T512 1051H517Q623 1051 698 1017T821 915T891 750T913 525ZM800
521Q800 615 785 694T737 831T648 921T512 954Q431 954 376 921T287 830T238 693T223 521Q223 427 238 348T286 212T375 122T511 90Q592 90 647 123T736 213T785 349T800 521ZM814 1471Q821 1419 812 1377T780 1303T723 1255T645 1238Q610 1238 583 1249T534 1278T493
1315T457 1351T421 1379T381 1391Q331 1391 309 1357T286 1250H211Q204 1301 213 1344T245 1417T301 1465T380 1482Q415 1482 442 1471T491 1442T531 1405T568 1369T604 1341T644 1329Q694 1329 716 1364T738 1471H814V1471Z" />
<glyph unicode="&#xf6;" glyph-name="odieresis" horiz-adv-x="1023" d="M913 525Q913 411 891 314T819 146T694 33T510 -8H506Q400 -8 325 26T202 127T132 292T109 517Q109 631 132 728T204 897T329 1010T512 1051H517Q623 1051 698 1017T821 915T891 750T913
525ZM800 521Q800 615 785 694T737 831T648 921T512 954Q431 954 376 921T287 830T238 693T223 521Q223 427 238 348T286 212T375 122T511 90Q592 90 647 123T736 213T785 349T800 521ZM640 1308V1469H748V1308H640ZM277 1308V1469H385V1308H277Z" />
<glyph unicode="&#xf7;" glyph-name="divide" horiz-adv-x="1126" d="M125 563V657H1002V563H125ZM500 133V321H626V133H500ZM500 897V1084H626V897H500Z" />
<glyph unicode="&#xf8;" glyph-name="oslash" horiz-adv-x="1028" d="M746 992Q838 931 878 813T918 525Q918 413 896 316T826 147T701 34T515 -8H511Q468 -8 433 -3T368 11L256 -277H156L282 50Q189 112 149 230T109 517Q109 630 131 727T202 896T327 1010T512
1051H517Q559 1051 594 1046T660 1031L765 1299H865L746 992ZM404 109Q428 99 456 95T516 90Q597 90 652 123T742 214T791 352T806 524Q806 582 801 635T784 734T751 819T703 885L404 109ZM624 933Q599 944 572 949T511 954Q431 954 376 921T286 830T237 691T222
518Q222 402 244 308T324 158L624 933Z" />
<glyph unicode="&#xf9;" glyph-name="ugrave" horiz-adv-x="1017" d="M272 1042V392Q272 334 282 280T315 184T372 117T456 91Q515 91 585 130T743 252V1042H854V0H765L751 151Q696 104 653 73T573 25T500 0T427 -8Q366 -8 317 18T233 93T180 209T161 359V1042H272ZM498
1174L233 1443L335 1497L572 1212L498 1174Z" />
<glyph unicode="&#xfa;" glyph-name="uacute" horiz-adv-x="1017" d="M272 1042V392Q272 334 282 280T315 184T372 117T456 91Q515 91 585 130T743 252V1042H854V0H765L751 151Q696 104 653 73T573 25T500 0T427 -8Q366 -8 317 18T233 93T180 209T161 359V1042H272ZM528
1174L453 1212L690 1497L792 1443L528 1174Z" />
<glyph unicode="&#xfb;" glyph-name="ucircumflex" horiz-adv-x="1017" d="M272 1042V392Q272 334 282 280T315 184T372 117T456 91Q515 91 585 130T743 252V1042H854V0H765L751 151Q696 104 653 73T573 25T500 0T427 -8Q366 -8 317 18T233 93T180 209T161 359V1042H272ZM698
1174L505 1356L312 1174L261 1230L507 1497L752 1232L698 1174Z" />
<glyph unicode="&#xfc;" glyph-name="udieresis" horiz-adv-x="1017" d="M272 1042V392Q272 334 282 280T315 184T372 117T456 91Q515 91 585 130T743 252V1042H854V0H765L751 151Q696 104 653 73T573 25T500 0T427 -8Q366 -8 317 18T233 93T180 209T161 359V1042H272ZM633
1308V1469H741V1308H633ZM270 1308V1469H378V1308H270Z" />
<glyph unicode="&#xfd;" glyph-name="yacute" horiz-adv-x="781" d="M488 70Q468 -2 449 -58T410 -158T368 -237T321 -300T264 -351T195 -396L143 -317Q179 -295 208 -271T261 -215T305 -137T344 -27L36 1042H159L375 265L405 138H407L448 311L632 1042H756L488
70ZM674 1174L599 1212L836 1497L938 1443L674 1174Z" />
<glyph unicode="&#xfe;" glyph-name="thorn" horiz-adv-x="994" d="M574 1051Q648 1051 705 1013T802 904T863 737T884 524Q884 397 859 298T790 131T684 28T550 -8Q518 -8 488 -1T426 22T356 67T274 139V-380L163 -396V1482L274 1496V897Q313 934 351 963T427
1011T501 1041T574 1051ZM772 520Q772 613 758 692T715 829T646 918T554 951Q494 951 423 909T274 783V260Q323 208 362 175T433 124T491 98T543 91Q592 91 634 123T706 212T754 347T772 520Z" />
<glyph unicode="&#xff;" glyph-name="ydieresis" horiz-adv-x="781" d="M488 70Q468 -2 449 -58T410 -158T368 -237T321 -300T264 -351T195 -396L143 -317Q179 -295 208 -271T261 -215T305 -137T344 -27L36 1042H159L375 265L405 138H407L448 311L632 1042H756L488
70ZM789 1308V1469H897V1308H789ZM426 1308V1469H534V1308H426Z" />
<glyph unicode="&#x100;" glyph-name="Amacron" horiz-adv-x="1049" d="M881 0L789 320H253L162 0H44L451 1380H600L1005 0H881ZM521 1255H518L278 417H764L521 1255ZM287 1559V1646H762V1559H287Z" />
<glyph unicode="&#x101;" glyph-name="amacron" horiz-adv-x="983" d="M607 496Q491 496 415 484T295 448T234 387T217 301Q217 257 229 219T263 152T318 107T393 90Q434 90 470 98T542 125T619 175T710 252V496H607ZM718 151Q662 103 618 72T533 24T453 -1T367
-8Q307 -8 258 14T174 76T120 171T101 293Q101 366 130 421T222 513T383 569T620 588H710V636Q710 708 702 767T669 869T596 934T469 957Q432 957 396 952T324 939T250 919T171 893L149 979Q240 1013 322 1032T485 1051Q575 1051 639 1029T743 960T803 841T822
671V0H732L718 151ZM246 1287V1377H729V1287H246Z" />
<glyph unicode="&#x102;" glyph-name="Abreve" horiz-adv-x="1049" d="M881 0L789 320H253L162 0H44L451 1380H600L1005 0H881ZM521 1255H518L278 417H764L521 1255ZM756 1735Q758 1684 745 1640T702 1564T628 1514T524 1495Q464 1495 420 1512T347 1560T305 1636T294
1735H380Q380 1695 390 1667T418 1619T464 1592T526 1583Q599 1583 634 1624T670 1735H756V1735Z" />
<glyph unicode="&#x103;" glyph-name="abreve" horiz-adv-x="983" d="M607 496Q491 496 415 484T295 448T234 387T217 301Q217 257 229 219T263 152T318 107T393 90Q434 90 470 98T542 125T619 175T710 252V496H607ZM718 151Q662 103 618 72T533 24T453 -1T367
-8Q307 -8 258 14T174 76T120 171T101 293Q101 366 130 421T222 513T383 569T620 588H710V636Q710 708 702 767T669 869T596 934T469 957Q432 957 396 952T324 939T250 919T171 893L149 979Q240 1013 322 1032T485 1051Q575 1051 639 1029T743 960T803 841T822
671V0H732L718 151ZM720 1461Q723 1408 710 1363T669 1285T594 1234T486 1215Q424 1215 379 1232T305 1280T263 1358T254 1461H343Q343 1375 380 1339T488 1303Q527 1303 554 1315T598 1347T624 1397T632 1461H720V1461Z" />
<glyph unicode="&#x104;" glyph-name="Aogonek" horiz-adv-x="1049" d="M1085 -332Q1048 -353 999 -367T897 -381Q810 -381 760 -343T709 -227Q709 -197 718 -166T747 -105T800 -48T880 5L789 320H253L162 0H44L451 1380H600L1005 0Q951 -25 915 -51T857 -105T824
-160T814 -211Q814 -247 837 -270T917 -293Q953 -293 991 -286T1066 -263L1085 -332ZM521 1255H518L278 417H764L521 1255Z" />
<glyph unicode="&#x105;" glyph-name="aogonek" horiz-adv-x="983" d="M949 -332Q911 -353 862 -367T760 -381Q674 -381 623 -343T572 -227Q572 -198 581 -169T608 -109T657 -47T730 18L718 151Q662 103 618 72T533 24T453 -1T367 -8Q307 -8 258 14T174 76T120
171T101 293Q101 366 130 421T222 513T383 569T620 588H710V636Q710 708 702 767T669 869T596 934T469 957Q432 957 396 952T324 939T250 919T171 893L149 979Q240 1013 322 1032T485 1051Q575 1051 639 1029T743 960T803 841T822 671V0Q779 -34 751 -63T707 -119T684
-168T678 -211Q678 -247 700 -270T780 -293Q816 -293 854 -286T929 -263L949 -332ZM710 496H607Q491 496 415 484T295 448T234 387T217 301Q217 257 229 219T263 152T318 107T393 90Q434 90 470 98T542 125T619 175T710 252V496Z" />
<glyph unicode="&#x106;" glyph-name="Cacute" horiz-adv-x="997" d="M940 79Q851 39 759 16T581 -8Q468 -8 383 27T239 143T151 357T121 686Q121 869 157 1001T257 1219T409 1346T604 1388Q646 1388 691 1381T780 1362T863 1336T934 1306L900 1212Q876 1224 842
1237T770 1262T691 1282T614 1290Q527 1290 458 1255T341 1146T267 960T242 690Q242 524 264 410T331 226T443 124T603 93Q635 93 673 99T753 116T834 141T911 170L940 79V79ZM661 1741H798L609 1490H509L661 1741Z" />
<glyph unicode="&#x107;" glyph-name="cacute" horiz-adv-x="770" d="M737 91Q675 43 605 18T454 -8Q413 -8 371 1T291 32T219 92T162 187T124 324T110 510Q110 650 137 752T213 920T331 1019T481 1051Q551 1051 611 1027T722 958L682 879Q634 915 587 934T483
953Q429 953 381 931T299 857T244 723T224 521Q224 399 244 317T300 186T379 114T473 92Q533 92 585 110T696 167L737 91ZM423 1174L348 1212L585 1497L687 1443L423 1174Z" />
<glyph unicode="&#x108;" glyph-name="Ccircumflex" horiz-adv-x="997" d="M940 79Q851 39 759 16T581 -8Q468 -8 383 27T239 143T151 357T121 686Q121 869 157 1001T257 1219T409 1346T604 1388Q646 1388 691 1381T780 1362T863 1336T934 1306L900 1212Q876 1224
842 1237T770 1262T691 1282T614 1290Q527 1290 458 1255T341 1146T267 960T242 690Q242 524 264 410T331 226T443 124T603 93Q635 93 673 99T753 116T834 141T911 170L940 79V79ZM352 1491L315 1548L584 1742L852 1550L813 1491L582 1629L352 1491Z" />
<glyph unicode="&#x109;" glyph-name="ccircumflex" horiz-adv-x="770" d="M737 91Q675 43 605 18T454 -8Q413 -8 371 1T291 32T219 92T162 187T124 324T110 510Q110 650 137 752T213 920T331 1019T481 1051Q551 1051 611 1027T722 958L682 879Q634 915 587 934T483
953Q429 953 381 931T299 857T244 723T224 521Q224 399 244 317T300 186T379 114T473 92Q533 92 585 110T696 167L737 91ZM638 1174L445 1356L252 1174L201 1230L447 1497L692 1232L638 1174Z" />
<glyph unicode="&#x10a;" glyph-name="Cdotaccent" horiz-adv-x="997" d="M940 79Q851 39 759 16T581 -8Q468 -8 383 27T239 143T151 357T121 686Q121 869 157 1001T257 1219T409 1346T604 1388Q646 1388 691 1381T780 1362T863 1336T934 1306L900 1212Q876 1224
842 1237T770 1262T691 1282T614 1290Q527 1290 458 1255T341 1146T267 960T242 690Q242 524 264 410T331 226T443 124T603 93Q635 93 673 99T753 116T834 141T911 170L940 79V79ZM541 1529V1700H654V1529H541Z" />
<glyph unicode="&#x10b;" glyph-name="cdotaccent" horiz-adv-x="770" d="M737 91Q675 43 605 18T454 -8Q413 -8 371 1T291 32T219 92T162 187T124 324T110 510Q110 650 137 752T213 920T331 1019T481 1051Q551 1051 611 1027T722 958L682 879Q634 915 587 934T483
953Q429 953 381 931T299 857T244 723T224 521Q224 399 244 317T300 186T379 114T473 92Q533 92 585 110T696 167L737 91ZM403 1304V1475H514V1304H403Z" />
<glyph unicode="&#x10c;" glyph-name="Ccaron" horiz-adv-x="997" d="M940 79Q851 39 759 16T581 -8Q468 -8 383 27T239 143T151 357T121 686Q121 869 157 1001T257 1219T409 1346T604 1388Q646 1388 691 1381T780 1362T863 1336T934 1306L900 1212Q876 1224 842
1237T770 1262T691 1282T614 1290Q527 1290 458 1255T341 1146T267 960T242 690Q242 524 264 410T331 226T443 124T603 93Q635 93 673 99T753 116T834 141T911 170L940 79V79ZM811 1742L848 1685L580 1491L311 1683L350 1742L582 1603L811 1742Z" />
<glyph unicode="&#x10d;" glyph-name="ccaron" horiz-adv-x="770" d="M737 91Q675 43 605 18T454 -8Q413 -8 371 1T291 32T219 92T162 187T124 324T110 510Q110 650 137 752T213 920T331 1019T481 1051Q551 1051 611 1027T722 958L682 879Q634 915 587 934T483
953Q429 953 381 931T299 857T244 723T224 521Q224 399 244 317T300 186T379 114T473 92Q533 92 585 110T696 167L737 91ZM255 1497L450 1315L642 1497L693 1441L448 1174L202 1439L255 1497Z" />
<glyph unicode="&#x10e;" glyph-name="Dcaron" horiz-adv-x="1167" d="M1044 704Q1044 537 1010 405T902 182T714 44T441 -4Q408 -4 373 -4T304 -3T236 -2T174 0V1380Q246 1382 313 1383T447 1384Q610 1384 723 1340T908 1210T1012 997T1044 704ZM926 702Q926
840 903 948T823 1132T674 1246T440 1286Q425 1286 407 1286T369 1285T329 1284T290 1282V99Q304 98 324 98T367 97T409 96T444 95Q580 95 672 135T820 254T901 444T926 702ZM749 1742L786 1685L518 1491L249 1683L288 1742L520 1603L749 1742Z" />
<glyph unicode="&#x10f;" glyph-name="dcaron" horiz-adv-x="1020" d="M742 0L727 151Q674 104 631 74T551 25T481 0T414 -8Q342 -8 286 30T190 138T131 305T110 518Q110 644 135 743T204 911T308 1015T439 1051Q466 1051 495 1044T559 1019T632 973T720 902V1482L831
1496V0H742ZM720 790Q632 872 566 911T451 951Q402 951 360 920T288 831T240 695T222 522Q222 429 236 350T279 214T348 124T440 91Q493 91 562 130T720 252V790ZM979 1327L906 1350L1016 1691L1126 1657L979 1327Z" />
<glyph unicode="&#x110;" glyph-name="Dcroat" horiz-adv-x="1190" d="M53 665V762H197V1380Q269 1382 336 1383T470 1384Q633 1384 746 1340T931 1210T1034 997T1066 704Q1066 537 1032 405T924 182T737 44T464 -4Q430 -4 395 -4T326 -3T258 -2T197 0V665H53ZM313
665V99Q327 98 347 98T389 97T431 96T467 95Q603 95 695 135T843 254T924 444T948 702Q948 840 925 948T846 1132T696 1246T463 1286Q447 1286 429 1286T390 1285T350 1284T313 1282V762H557V665H313Z" />
<glyph unicode="&#x111;" glyph-name="dcroat" horiz-adv-x="1005" d="M831 1201V0H742L727 151Q674 104 631 74T551 25T481 0T414 -8Q342 -8 286 30T190 138T131 305T110 518Q110 644 135 743T204 911T308 1015T439 1051Q466 1051 495 1044T559 1019T632 973T720
902V1201H474V1293H720V1482L831 1496V1293H1007V1201H831ZM720 790Q632 872 566 911T451 951Q402 951 360 920T288 831T240 695T222 522Q222 429 236 350T279 214T348 124T440 91Q493 91 562 130T720 252V790Z" />
<glyph unicode="&#x112;" glyph-name="Emacron" horiz-adv-x="872" d="M174 0V1380H778V1282H290V762H734V664H290V99H784V0H174ZM236 1559V1646H711V1559H236Z" />
<glyph unicode="&#x113;" glyph-name="emacron" horiz-adv-x="949" d="M809 58Q719 25 638 9T479 -8Q386 -8 317 20T201 109T132 270T109 513Q109 643 135 743T210 912T330 1015T491 1051Q574 1051 639 1019T747 928T814 788T837 612Q837 598 837 583T836 552T834
522T832 496H223Q223 391 239 315T289 188T374 114T497 90Q522 90 557 93T632 103T710 118T786 138L809 58ZM725 608Q725 674 713 737T672 849T596 927T481 957Q410 957 362 924T284 839T240 720T223 588H725V608ZM240 1287V1377H723V1287H240Z" />
<glyph unicode="&#x116;" glyph-name="Edotaccent" horiz-adv-x="872" d="M174 0V1380H778V1282H290V762H734V664H290V99H784V0H174ZM419 1529V1700H532V1529H419Z" />
<glyph unicode="&#x117;" glyph-name="edotaccent" horiz-adv-x="949" d="M809 58Q719 25 638 9T479 -8Q386 -8 317 20T201 109T132 270T109 513Q109 643 135 743T210 912T330 1015T491 1051Q574 1051 639 1019T747 928T814 788T837 612Q837 598 837 583T836 552T834
522T832 496H223Q223 391 239 315T289 188T374 114T497 90Q522 90 557 93T632 103T710 118T786 138L809 58ZM725 608Q725 674 713 737T672 849T596 927T481 957Q410 957 362 924T284 839T240 720T223 588H725V608ZM425 1304V1475H536V1304H425Z" />
<glyph unicode="&#x118;" glyph-name="Eogonek" horiz-adv-x="872" d="M819 -332Q781 -353 732 -367T630 -381Q543 -381 492 -343T441 -227Q441 -181 458 -143T500 -76T552 -28T600 0H174V1380H778V1282H290V762H734V664H290V99H784V0Q736 0 693 -19T618 -69T566
-137T547 -211Q547 -247 570 -270T650 -293Q686 -293 724 -286T799 -263L819 -332V-332Z" />
<glyph unicode="&#x119;" glyph-name="eogonek" horiz-adv-x="949" d="M846 -332Q808 -353 759 -367T656 -381Q613 -381 579 -371T520 -342T482 -291T468 -219Q468 -186 478 -154T505 -93T545 -39T596 4Q569 -1 537 -4T479 -8Q386 -8 317 20T201 109T132 270T109
513Q109 643 135 743T210 912T330 1015T491 1051Q574 1051 639 1019T747 928T814 788T837 612Q837 598 837 583T836 552T834 522T832 496H223Q223 391 239 315T289 188T374 114T497 90Q525 90 560 93T633 103T710 118T787 140L809 58Q750 39 707 8T634 -61T589
-135T574 -204Q574 -246 597 -269T677 -293Q713 -293 751 -286T826 -263L846 -332ZM725 608Q725 674 713 737T672 849T596 927T481 957Q410 957 362 924T284 839T240 720T223 588H725V608Z" />
<glyph unicode="&#x11a;" glyph-name="Ecaron" horiz-adv-x="872" d="M174 0V1380H778V1282H290V762H734V664H290V99H784V0H174ZM704 1742L741 1685L473 1491L204 1683L243 1742L475 1603L704 1742Z" />
<glyph unicode="&#x11b;" glyph-name="ecaron" horiz-adv-x="949" d="M809 58Q719 25 638 9T479 -8Q386 -8 317 20T201 109T132 270T109 513Q109 643 135 743T210 912T330 1015T491 1051Q574 1051 639 1019T747 928T814 788T837 612Q837 598 837 583T836 552T834
522T832 496H223Q223 391 239 315T289 188T374 114T497 90Q522 90 557 93T632 103T710 118T786 138L809 58ZM725 608Q725 674 713 737T672 849T596 927T481 957Q410 957 362 924T284 839T240 720T223 588H725V608ZM288 1497L483 1315L675 1497L726 1441L481 1174L235
1439L288 1497Z" />
<glyph unicode="&#x11c;" glyph-name="Gcircumflex" horiz-adv-x="1104" d="M963 81Q923 60 878 44T786 16T691 -2T599 -8Q479 -8 390 25T241 138T151 349T121 675Q121 864 156 999T256 1220T417 1347T633 1388Q673 1388 717 1382T805 1365T889 1341T959 1313L930
1222Q854 1252 778 1271T641 1290Q538 1290 463 1254T338 1143T266 953T242 679Q242 515 263 403T331 222T447 123T615 93Q671 93 730 105T848 140V636H963V81V81ZM366 1491L329 1548L598 1742L866 1550L827 1491L596 1629L366 1491Z" />
<glyph unicode="&#x11d;" glyph-name="gcircumflex" horiz-adv-x="993" d="M831 7Q831 -89 808 -164T736 -290T617 -369T449 -396Q428 -396 403 -396T352 -394T303 -391T258 -387L246 -301H416Q509 -301 568 -278T660 -214T707 -121T720 -9V144Q669 101 628 72T551
24T482 -1T414 -8Q342 -8 286 30T190 138T131 305T110 518Q110 644 135 743T204 911T308 1015T439 1051Q466 1051 496 1043T562 1017T638 969T727 893L743 1042H831V7ZM720 789Q632 872 566 911T451 951Q402 951 360 920T288 831T240 695T222 522Q222 429 236 350T279
214T348 124T440 91Q493 91 562 130T720 252V789ZM687 1174L494 1356L301 1174L250 1230L496 1497L741 1232L687 1174Z" />
<glyph unicode="&#x11e;" glyph-name="Gbreve" horiz-adv-x="1103" d="M963 81Q923 60 878 44T786 16T691 -2T599 -8Q479 -8 390 25T241 138T151 349T121 675Q121 864 156 999T256 1220T417 1347T633 1388Q673 1388 717 1382T805 1365T889 1341T959 1313L930 1222Q854
1252 778 1271T641 1290Q538 1290 463 1254T338 1143T266 953T242 679Q242 515 263 403T331 222T447 123T615 93Q671 93 730 105T848 140V636H963V81V81ZM823 1735Q825 1684 812 1640T769 1564T695 1514T591 1495Q531 1495 487 1512T414 1560T372 1636T361 1735H447Q447
1695 457 1667T485 1619T531 1592T593 1583Q666 1583 701 1624T737 1735H823V1735Z" />
<glyph unicode="&#x11f;" glyph-name="gbreve" horiz-adv-x="994" d="M831 7Q831 -89 808 -164T736 -290T617 -369T449 -396Q428 -396 403 -396T352 -394T303 -391T258 -387L246 -301H416Q509 -301 568 -278T660 -214T707 -121T720 -9V144Q669 101 628 72T551
24T482 -1T414 -8Q342 -8 286 30T190 138T131 305T110 518Q110 644 135 743T204 911T308 1015T439 1051Q466 1051 496 1043T562 1017T638 969T727 893L743 1042H831V7ZM720 789Q632 872 566 911T451 951Q402 951 360 920T288 831T240 695T222 522Q222 429 236 350T279
214T348 124T440 91Q493 91 562 130T720 252V789ZM730 1461Q733 1408 720 1363T679 1285T604 1234T496 1215Q434 1215 389 1232T315 1280T273 1358T264 1461H353Q353 1375 390 1339T498 1303Q537 1303 564 1315T608 1347T634 1397T642 1461H730V1461Z" />
<glyph unicode="&#x120;" glyph-name="Gdotaccent" horiz-adv-x="1104" d="M963 81Q923 60 878 44T786 16T691 -2T599 -8Q479 -8 390 25T241 138T151 349T121 675Q121 864 156 999T256 1220T417 1347T633 1388Q673 1388 717 1382T805 1365T889 1341T959 1313L930
1222Q854 1252 778 1271T641 1290Q538 1290 463 1254T338 1143T266 953T242 679Q242 515 263 403T331 222T447 123T615 93Q671 93 730 105T848 140V636H963V81V81ZM563 1529V1700H676V1529H563Z" />
<glyph unicode="&#x121;" glyph-name="gdotaccent" horiz-adv-x="993" d="M831 7Q831 -89 808 -164T736 -290T617 -369T449 -396Q428 -396 403 -396T352 -394T303 -391T258 -387L246 -301H416Q509 -301 568 -278T660 -214T707 -121T720 -9V144Q669 101 628 72T551
24T482 -1T414 -8Q342 -8 286 30T190 138T131 305T110 518Q110 644 135 743T204 911T308 1015T439 1051Q466 1051 496 1043T562 1017T638 969T727 893L743 1042H831V7ZM720 789Q632 872 566 911T451 951Q402 951 360 920T288 831T240 695T222 522Q222 429 236 350T279
214T348 124T440 91Q493 91 562 130T720 252V789ZM442 1304V1475H553V1304H442Z" />
<glyph unicode="&#x122;" glyph-name="Gcommaaccent" horiz-adv-x="1103" d="M963 81Q923 60 878 44T786 16T691 -2T599 -8Q479 -8 390 25T241 138T151 349T121 675Q121 864 156 999T256 1220T417 1347T633 1388Q673 1388 717 1382T805 1365T889 1341T959 1313L930
1222Q854 1252 778 1271T641 1290Q538 1290 463 1254T338 1143T266 953T242 679Q242 515 263 403T331 222T447 123T615 93Q671 93 730 105T848 140V636H963V81V81ZM529 -391H442L539 -111H659L529 -391Z" />
<glyph unicode="&#x123;" glyph-name="gcommaaccent" horiz-adv-x="994" d="M831 7Q831 -89 808 -164T736 -290T617 -369T449 -396Q428 -396 403 -396T352 -394T303 -391T258 -387L246 -301H416Q509 -301 568 -278T660 -214T707 -121T720 -9V144Q669 101 628 72T551
24T482 -1T414 -8Q342 -8 286 30T190 138T131 305T110 518Q110 644 135 743T204 911T308 1015T439 1051Q466 1051 496 1043T562 1017T638 969T727 893L743 1042H831V7ZM720 789Q632 872 566 911T451 951Q402 951 360 920T288 831T240 695T222 522Q222 429 236 350T279
214T348 124T440 91Q493 91 562 130T720 252V789ZM585 1534L660 1512L547 1171L438 1203L585 1534Z" />
<glyph unicode="&#x124;" glyph-name="Hcircumflex" horiz-adv-x="1212" d="M921 0V664H290V0H174V1380H290V763H921V1380H1037V0H921ZM375 1491L338 1548L607 1742L875 1550L836 1491L605 1629L375 1491Z" />
<glyph unicode="&#x125;" glyph-name="hcircumflex" horiz-adv-x="1018" d="M745 0V650Q745 708 735 762T702 859T644 926T561 951Q502 951 432 913T274 791V0H163V1482L274 1496V899Q325 943 366 972T445 1018T517 1043T590 1051Q651 1051 700 1025T784 950T837
833T856 683V0H745ZM264 1542L227 1599L496 1793L764 1601L725 1542L494 1680L264 1542Z" />
<glyph unicode="&#x126;" glyph-name="Hbar" horiz-adv-x="1253" d="M942 0V604H311V0H195V1104H57V1198H195V1380H311V1198H942V1380H1057V1198H1196V1104H1057V0H942ZM942 700V1104H311V700H942Z" />
<glyph unicode="&#x127;" glyph-name="hbar" horiz-adv-x="1038" d="M295 1247V899Q346 942 387 971T466 1018T537 1043T610 1051Q671 1051 720 1024T804 949T858 832T877 682V0H766V649Q766 707 756 761T723 858T665 925T582 950Q523 950 453 912T295 791V0H184V1247H20V1337H184V1481L295
1497V1337H535V1247H295Z" />
<glyph unicode="&#x128;" glyph-name="Itilde" horiz-adv-x="465" d="M174 0V1380H290V0H174ZM536 1809Q543 1757 534 1715T502 1641T445 1593T367 1576Q332 1576 305 1587T256 1616T215 1653T179 1689T143 1717T103 1729Q53 1729 31 1695T8 1588H-67Q-74 1639
-65 1682T-33 1755T23 1803T102 1820Q137 1820 164 1809T213 1780T253 1743T290 1707T326 1679T366 1667Q416 1667 438 1702T460 1809H536V1809Z" />
<glyph unicode="&#x129;" glyph-name="itilde" horiz-adv-x="436" d="M163 0V1042H274V0H163ZM497 1470Q504 1419 496 1377T467 1304T413 1256T337 1239Q303 1239 278 1250T234 1278T199 1315T168 1351T136 1379T97 1391Q51 1391 34 1357T17 1249H-56Q-64 1300
-57 1343T-28 1416T26 1464T103 1481Q137 1481 162 1470T206 1442T240 1405T271 1369T302 1341T341 1329Q388 1329 404 1363T421 1470H497Z" />
<glyph unicode="&#x12a;" glyph-name="Imacron" horiz-adv-x="466" d="M174 0V1380H290V0H174ZM-3 1559V1646H472V1559H-3Z" />
<glyph unicode="&#x12b;" glyph-name="imacron" horiz-adv-x="437" d="M163 0V1042H274V0H163ZM-21 1287V1377H462V1287H-21Z" />
<glyph unicode="&#x12e;" glyph-name="Iogonek" horiz-adv-x="466" d="M382 -333Q348 -353 300 -367T202 -381Q162 -381 130 -371T76 -342T41 -295T28 -227Q28 -166 62 -107T174 2V1380H290V0Q245 -28 215 -55T166 -109T141 -161T134 -211Q134 -247 154 -270T221
-293Q256 -293 293 -286T362 -264L382 -333V-333Z" />
<glyph unicode="&#x12f;" glyph-name="iogonek" horiz-adv-x="437" d="M163 1304V1475H274V1304H163ZM368 -333Q351 -343 331 -351T287 -366T238 -377T188 -381Q108 -381 62 -343T15 -227Q15 -197 23 -167T49 -107T95 -50T163 3V1042H274V0Q229 -29 199 -56T152
-110T127 -162T120 -211Q120 -247 140 -270T207 -293Q243 -293 280 -286T349 -264L368 -333Z" />
<glyph unicode="&#x130;" glyph-name="Idotaccent" horiz-adv-x="466" d="M174 0V1380H290V0H174ZM176 1529V1700H289V1529H176Z" />
<glyph unicode="&#x131;" glyph-name="dotlessi" horiz-adv-x="437" d="M163 0V1042H274V0H163Z" />
<glyph unicode="&#x132;" glyph-name="IJ" horiz-adv-x="1128" d="M174 0V1380H290V0H174ZM952 436Q952 329 937 247T888 108T799 22T664 -7Q601 -7 552 -1T454 17L462 111Q480 108 504 105T553 98T604 94T651 92Q712 92 749 120T805 197T831 310T837 447V1380H952V436V436Z"
/>
<glyph unicode="&#x133;" glyph-name="ij" horiz-adv-x="874" d="M163 1304V1475H274V1304H163ZM163 0V1042H274V0H163ZM599 1304V1475H710V1304H599ZM710 59Q710 -25 702 -90T678 -210T637 -309T578 -396L502 -346Q553 -267 576 -178T599 21V1042H710V59Z" />
<glyph unicode="&#x134;" glyph-name="Jcircumflex" horiz-adv-x="662" d="M487 436Q487 329 472 247T423 108T334 22T199 -7Q136 -7 87 -1T-11 17L-3 111Q15 108 39 105T88 98T139 94T186 92Q247 92 284 120T340 197T366 310T372 447V1380H487V436V436ZM198 1491L161
1548L430 1742L698 1550L659 1491L428 1629L198 1491Z" />
<glyph unicode="&#x135;" glyph-name="jcircumflex" horiz-adv-x="438" d="M66 -346Q118 -268 141 -178T164 20V1042H274V59Q274 -25 266 -91T242 -210T201 -309T141 -397L66 -346ZM217 1356L25 1174L-27 1231L219 1497L465 1233L412 1174L217 1356Z" />
<glyph unicode="&#x136;" glyph-name="Kcommaaccent" horiz-adv-x="916" d="M756 0L296 698H290V0H174V1380H290V723H296L713 1380H853L413 718L903 0H756ZM447 -391H360L457 -111H577L447 -391Z" />
<glyph unicode="&#x137;" glyph-name="kcommaaccent" horiz-adv-x="835" d="M680 0L276 565H274V0H163V1482L274 1496V580H276L628 1042H765L398 580L825 0H680ZM401 -391H314L411 -111H531L401 -391Z" />
<glyph unicode="&#x138;" glyph-name="kgreenlandic" horiz-adv-x="823" d="M664 0L276 545H274V0H164V1042H274V559H276L645 1042H782L399 559L809 0H664Z" />
<glyph unicode="&#x139;" glyph-name="Lacute" horiz-adv-x="727" d="M174 0V1380H290V101H707V0H174ZM379 1741H516L327 1490H227L379 1741Z" />
<glyph unicode="&#x13a;" glyph-name="lacute" horiz-adv-x="437" d="M163 0V1482L274 1496V0H163ZM351 1769H488L299 1544H199L351 1769Z" />
<glyph unicode="&#x13b;" glyph-name="Lcommaaccent" horiz-adv-x="727" d="M174 0V1380H290V101H707V0H174ZM384 -391H297L394 -111H514L384 -391Z" />
<glyph unicode="&#x13c;" glyph-name="lcommaaccent" horiz-adv-x="437" d="M163 0V1482L274 1496V0H163ZM414 -391H327L424 -111H544L414 -391Z" />
<glyph unicode="&#x13d;" glyph-name="Lcaron" horiz-adv-x="727" d="M174 0V1380H290V101H707V0H174ZM562 1184L489 1207L599 1548L709 1514L562 1184Z" />
<glyph unicode="&#x13e;" glyph-name="lcaron" horiz-adv-x="464" d="M163 0V1482L274 1496V0H163ZM424 1327L351 1350L461 1691L571 1657L424 1327Z" />
<glyph unicode="&#x13f;" glyph-name="Ldot" horiz-adv-x="727" d="M174 0V1380H290V101H707V0H174ZM507 538V721H644V538H507Z" />
<glyph unicode="&#x140;" glyph-name="ldot" horiz-adv-x="690" d="M163 0V1482L274 1496V0H163ZM494 518V701H631V518H494Z" />
<glyph unicode="&#x141;" glyph-name="Lslash" horiz-adv-x="749" d="M28 645V752L197 851V1380H313V918L538 1054V947L313 814V101H730V0H197V747L28 645Z" />
<glyph unicode="&#x142;" glyph-name="lslash" horiz-adv-x="480" d="M452 1119V1013L296 920V0H184V855L27 761V868L184 961V1482L296 1496V1026L452 1119Z" />
<glyph unicode="&#x143;" glyph-name="Nacute" horiz-adv-x="1207" d="M880 0L282 1254V0H174V1380H344L925 155V1380H1032V0H880ZM689 1741H826L637 1490H537L689 1741Z" />
<glyph unicode="&#x144;" glyph-name="nacute" horiz-adv-x="1017" d="M745 0V650Q745 708 735 762T702 859T644 926T561 951Q502 951 432 913T274 791V0H163V1042H252L267 892Q320 939 363 969T444 1018T517 1043T590 1051Q651 1051 700 1025T784 950T837 833T856
683V0H745ZM501 1174L426 1212L663 1497L765 1443L501 1174Z" />
<glyph unicode="&#x145;" glyph-name="Ncommaaccent" horiz-adv-x="1207" d="M880 0L282 1254V0H174V1380H344L925 155V1380H1032V0H880ZM521 -391H434L531 -111H651L521 -391Z" />
<glyph unicode="&#x146;" glyph-name="ncommaaccent" horiz-adv-x="1017" d="M745 0V650Q745 708 735 762T702 859T644 926T561 951Q502 951 432 913T274 791V0H163V1042H252L267 892Q320 939 363 969T444 1018T517 1043T590 1051Q651 1051 700 1025T784 950T837
833T856 683V0H745ZM457 -391H370L467 -111H587L457 -391Z" />
<glyph unicode="&#x147;" glyph-name="Ncaron" horiz-adv-x="1207" d="M880 0L282 1254V0H174V1380H344L925 155V1380H1032V0H880ZM839 1742L876 1685L608 1491L339 1683L378 1742L610 1603L839 1742Z" />
<glyph unicode="&#x148;" glyph-name="ncaron" horiz-adv-x="1017" d="M745 0V650Q745 708 735 762T702 859T644 926T561 951Q502 951 432 913T274 791V0H163V1042H252L267 892Q320 939 363 969T444 1018T517 1043T590 1051Q651 1051 700 1025T784 950T837 833T856
683V0H745ZM316 1497L511 1315L703 1497L754 1441L509 1174L263 1439L316 1497Z" />
<glyph unicode="&#x14a;" glyph-name="Eng" horiz-adv-x="1208" d="M823 -346Q849 -307 868 -270T900 -195T919 -117T926 -29L375 1063L283 1257V1032V0H174V1380H338L819 422L926 203V229L924 522V1380H1032V59Q1032 -27 1024 -93T1000 -212T960 -309T901 -397L823
-346Z" />
<glyph unicode="&#x14b;" glyph-name="eng" horiz-adv-x="1018" d="M647 -346Q700 -268 722 -178T745 20V649Q745 707 735 761T702 858T644 925T561 950Q502 950 432 912T274 791V0H164V1042H252L266 891Q321 938 364 969T444 1018T517 1043T590 1051Q651 1051
700 1024T783 949T837 832T856 682V59Q856 -25 848 -91T824 -210T784 -309T725 -397L647 -346Z" />
<glyph unicode="&#x14c;" glyph-name="Omacron" horiz-adv-x="1269" d="M1147 694Q1147 520 1116 389T1021 169T862 37T638 -8H626Q489 -8 394 32T238 156T149 371T121 684Q121 859 153 990T248 1210T406 1343T630 1388H643Q779 1388 874 1348T1030 1224T1119
1008T1147 694ZM1030 692Q1030 828 1012 938T948 1127T825 1247T631 1290Q522 1290 448 1250T327 1133T259 945T238 690Q238 553 257 443T321 254T444 134T638 91Q746 91 821 131T942 247T1009 436T1030 692ZM397 1559V1646H872V1559H397Z" />
<glyph unicode="&#x14d;" glyph-name="omacron" horiz-adv-x="1023" d="M913 525Q913 411 891 314T819 146T694 33T510 -8H506Q400 -8 325 26T202 127T132 292T109 517Q109 631 132 728T204 897T329 1010T512 1051H517Q623 1051 698 1017T821 915T891 750T913
525ZM800 521Q800 615 785 694T737 831T648 921T512 954Q431 954 376 921T287 830T238 693T223 521Q223 427 238 348T286 212T375 122T511 90Q592 90 647 123T736 213T785 349T800 521ZM270 1287V1377H753V1287H270Z" />
<glyph unicode="&#x150;" glyph-name="Ohungarumlaut" horiz-adv-x="1269" d="M1147 694Q1147 520 1116 389T1021 169T862 37T638 -8H626Q489 -8 394 32T238 156T149 371T121 684Q121 859 153 990T248 1210T406 1343T630 1388H643Q779 1388 874 1348T1030 1224T1119
1008T1147 694ZM1030 692Q1030 828 1012 938T948 1127T825 1247T631 1290Q522 1290 448 1250T327 1133T259 945T238 690Q238 553 257 443T321 254T444 134T638 91Q746 91 821 131T942 247T1009 436T1030 692ZM849 1502H753L906 1741H1036L849 1502ZM504 1502H408L562
1741H691L504 1502Z" />
<glyph unicode="&#x151;" glyph-name="ohungarumlaut" horiz-adv-x="1023" d="M913 525Q913 411 891 314T819 146T694 33T510 -8H506Q400 -8 325 26T202 127T132 292T109 517Q109 631 132 728T204 897T329 1010T512 1051H517Q623 1051 698 1017T821 915T891 750T913
525ZM800 521Q800 615 785 694T737 831T648 921T512 954Q431 954 376 921T287 830T238 693T223 521Q223 427 238 348T286 212T375 122T511 90Q592 90 647 123T736 213T785 349T800 521ZM367 1174L299 1212L511 1497L607 1443L367 1174ZM690 1174L622 1212L855 1491L950
1435L690 1174Z" />
<glyph unicode="&#x152;" glyph-name="OE" horiz-adv-x="1503" d="M817 0Q790 0 764 -1T714 -4T671 -7T638 -8H626Q489 -8 394 32T238 156T149 371T121 684Q121 859 153 990T248 1210T406 1343T630 1388H643Q686 1388 729 1385T819 1380H1408V1282H920V762H1364V664H920V99H1414V0H817ZM805
1275Q767 1281 725 1285T631 1290Q522 1290 448 1250T327 1133T259 945T238 690Q238 553 257 443T321 254T444 134T638 91Q685 91 727 94T805 102V1275Z" />
<glyph unicode="&#x153;" glyph-name="oe" horiz-adv-x="1638" d="M860 824Q883 884 916 927T991 997T1080 1038T1181 1051Q1264 1051 1328 1019T1437 928T1504 788T1527 612Q1527 598 1527 583T1526 552T1524 522T1522 496H912Q912 391 928 315T978 188T1063
114T1186 90Q1211 90 1246 93T1321 103T1400 118T1475 138L1498 58Q1408 25 1327 9T1169 -8Q1108 -8 1057 4T966 42T895 111T847 214Q827 164 796 123T723 53T627 8T510 -8H506Q400 -8 325 26T202 127T132 292T109 517Q109 631 132 728T204 897T329 1010T512 1051H517Q646
1051 732 996T860 824ZM800 521Q800 615 785 694T737 831T648 921T512 954Q431 954 376 921T287 830T238 693T223 521Q223 427 238 348T286 212T375 122T511 90Q592 90 647 123T736 213T785 349T800 521ZM1415 608Q1415 674 1403 737T1361 849T1286 927T1171 957Q1100
957 1052 924T973 839T929 720T912 588H1415V608Z" />
<glyph unicode="&#x154;" glyph-name="Racute" horiz-adv-x="1042" d="M834 0L493 673H290V0H174V1378Q214 1379 254 1380T335 1381T414 1382T489 1382Q606 1382 686 1358T817 1290T889 1183T911 1041Q911 972 891 913T833 808T738 733T610 691L968 0H834ZM791
1033Q791 1091 778 1137T730 1217T635 1267T482 1285Q436 1285 386 1284T290 1281V770H489Q571 770 628 790T722 844T774 927T791 1033ZM582 1741H719L530 1490H430L582 1741Z" />
<glyph unicode="&#x155;" glyph-name="racute" horiz-adv-x="621" d="M534 943Q497 943 468 935T410 908T349 859T274 785V0H163V1042H254L267 888Q321 946 359 978T429 1026T485 1047T539 1051H586V943H534ZM637 1174L562 1212L799 1497L901 1443L637 1174Z" />
<glyph unicode="&#x156;" glyph-name="Rcommaaccent" horiz-adv-x="1042" d="M834 0L493 673H290V0H174V1378Q214 1379 254 1380T335 1381T414 1382T489 1382Q606 1382 686 1358T817 1290T889 1183T911 1041Q911 972 891 913T833 808T738 733T610 691L968 0H834ZM791
1033Q791 1091 778 1137T730 1217T635 1267T482 1285Q436 1285 386 1284T290 1281V770H489Q571 770 628 790T722 844T774 927T791 1033ZM486 -391H399L496 -111H616L486 -391Z" />
<glyph unicode="&#x157;" glyph-name="rcommaaccent" horiz-adv-x="621" d="M534 943Q497 943 468 935T410 908T349 859T274 785V0H163V1042H254L267 888Q321 946 359 978T429 1026T485 1047T539 1051H586V943H534ZM437 -391H350L447 -111H567L437 -391Z" />
<glyph unicode="&#x158;" glyph-name="Rcaron" horiz-adv-x="1042" d="M834 0L493 673H290V0H174V1378Q214 1379 254 1380T335 1381T414 1382T489 1382Q606 1382 686 1358T817 1290T889 1183T911 1041Q911 972 891 913T833 808T738 733T610 691L968 0H834ZM791
1033Q791 1091 778 1137T730 1217T635 1267T482 1285Q436 1285 386 1284T290 1281V770H489Q571 770 628 790T722 844T774 927T791 1033ZM735 1742L772 1685L504 1491L235 1683L274 1742L506 1603L735 1742Z" />
<glyph unicode="&#x159;" glyph-name="rcaron" horiz-adv-x="621" d="M534 943Q497 943 468 935T410 908T349 859T274 785V0H163V1042H254L267 888Q321 946 359 978T429 1026T485 1047T539 1051H586V943H534ZM428 1497L623 1315L815 1497L866 1441L621 1174L375
1439L428 1497Z" />
<glyph unicode="&#x15a;" glyph-name="Sacute" horiz-adv-x="933" d="M850 358Q850 273 823 205T746 90T622 17T454 -8Q377 -8 290 14T121 84L161 172Q230 137 300 115T454 93Q591 93 662 159T734 345Q734 411 707 459T636 547T535 617T420 680T305 744T204 821T133
921T106 1053Q106 1126 131 1187T204 1293T322 1363T481 1388Q522 1388 564 1383T648 1366T727 1340T798 1305L759 1222Q731 1235 698 1248T628 1270T556 1285T483 1291Q418 1291 369 1274T287 1227T238 1156T221 1066Q221 1003 248 957T319 875T420 808T535 746T650
681T751 601T823 497T850 358ZM561 1741H698L509 1490H409L561 1741Z" />
<glyph unicode="&#x15b;" glyph-name="sacute" horiz-adv-x="725" d="M631 262Q631 199 610 149T550 64T456 11T329 -8Q255 -8 196 10T81 58L121 148Q178 117 228 103T330 89Q381 89 416 102T473 137T506 189T517 253Q517 284 509 312T479 368T418 426T318 494Q251
533 206 569T135 640T97 715T86 798Q86 856 107 903T165 982T252 1033T363 1051Q430 1051 489 1033T597 989L561 905Q522 924 470 940T363 956Q322 956 291 945T239 913T208 866T197 806Q197 776 205 750T234 698T292 644T386 584Q458 543 505 504T580 425T619
346T631 262ZM592 1174L517 1212L754 1497L856 1443L592 1174Z" />
<glyph unicode="&#x15c;" glyph-name="Scircumflex" horiz-adv-x="934" d="M850 358Q850 273 823 205T746 90T622 17T454 -8Q377 -8 290 14T121 84L161 172Q230 137 300 115T454 93Q591 93 662 159T734 345Q734 411 707 459T636 547T535 617T420 680T305 744T204
821T133 921T106 1053Q106 1126 131 1187T204 1293T322 1363T481 1388Q522 1388 564 1383T648 1366T727 1340T798 1305L759 1222Q731 1235 698 1248T628 1270T556 1285T483 1291Q418 1291 369 1274T287 1227T238 1156T221 1066Q221 1003 248 957T319 875T420 808T535
746T650 681T751 601T823 497T850 358ZM235 1491L198 1548L467 1742L735 1550L696 1491L465 1629L235 1491Z" />
<glyph unicode="&#x15d;" glyph-name="scircumflex" horiz-adv-x="725" d="M631 262Q631 199 610 149T550 64T456 11T329 -8Q255 -8 196 10T81 58L121 148Q178 117 228 103T330 89Q381 89 416 102T473 137T506 189T517 253Q517 284 509 312T479 368T418 426T318
494Q251 533 206 569T135 640T97 715T86 798Q86 856 107 903T165 982T252 1033T363 1051Q430 1051 489 1033T597 989L561 905Q522 924 470 940T363 956Q322 956 291 945T239 913T208 866T197 806Q197 776 205 750T234 698T292 644T386 584Q458 543 505 504T580
425T619 346T631 262ZM811 1174L618 1356L425 1174L374 1230L620 1497L865 1232L811 1174Z" />
<glyph unicode="&#x15e;" glyph-name="Scedilla" horiz-adv-x="933" d="M850 358Q850 273 823 205T746 90T622 17T454 -8Q377 -8 290 14T121 84L161 172Q230 137 300 115T454 93Q591 93 662 159T734 345Q734 411 707 459T636 547T535 617T420 680T305 744T204
821T133 921T106 1053Q106 1126 131 1187T204 1293T322 1363T481 1388Q522 1388 564 1383T648 1366T727 1340T798 1305L759 1222Q731 1235 698 1248T628 1270T556 1285T483 1291Q418 1291 369 1274T287 1227T238 1156T221 1066Q221 1003 248 957T319 875T420 808T535
746T650 681T751 601T823 497T850 358ZM412 -389H318L417 -104H544L412 -389Z" />
<glyph unicode="&#x15f;" glyph-name="scedilla" horiz-adv-x="725" d="M631 262Q631 199 610 149T550 64T456 11T329 -8Q255 -8 196 10T81 58L121 148Q178 117 228 103T330 89Q381 89 416 102T473 137T506 189T517 253Q517 284 509 312T479 368T418 426T318 494Q251
533 206 569T135 640T97 715T86 798Q86 856 107 903T165 982T252 1033T363 1051Q430 1051 489 1033T597 989L561 905Q522 924 470 940T363 956Q322 956 291 945T239 913T208 866T197 806Q197 776 205 750T234 698T292 644T386 584Q458 543 505 504T580 425T619
346T631 262ZM548 -389H454L553 -104H680L548 -389Z" />
<glyph unicode="&#x160;" glyph-name="Scaron" horiz-adv-x="933" d="M850 358Q850 273 823 205T746 90T622 17T454 -8Q377 -8 290 14T121 84L161 172Q230 137 300 115T454 93Q591 93 662 159T734 345Q734 411 707 459T636 547T535 617T420 680T305 744T204 821T133
921T106 1053Q106 1126 131 1187T204 1293T322 1363T481 1388Q522 1388 564 1383T648 1366T727 1340T798 1305L759 1222Q731 1235 698 1248T628 1270T556 1285T483 1291Q418 1291 369 1274T287 1227T238 1156T221 1066Q221 1003 248 957T319 875T420 808T535 746T650
681T751 601T823 497T850 358ZM705 1742L742 1685L474 1491L205 1683L244 1742L476 1603L705 1742Z" />
<glyph unicode="&#x161;" glyph-name="scaron" horiz-adv-x="725" d="M631 262Q631 199 610 149T550 64T456 11T329 -8Q255 -8 196 10T81 58L121 148Q178 117 228 103T330 89Q381 89 416 102T473 137T506 189T517 253Q517 284 509 312T479 368T418 426T318 494Q251
533 206 569T135 640T97 715T86 798Q86 856 107 903T165 982T252 1033T363 1051Q430 1051 489 1033T597 989L561 905Q522 924 470 940T363 956Q322 956 291 945T239 913T208 866T197 806Q197 776 205 750T234 698T292 644T386 584Q458 543 505 504T580 425T619
346T631 262ZM418 1497L613 1315L805 1497L856 1441L611 1174L365 1439L418 1497Z" />
<glyph unicode="&#x162;" glyph-name="Tcommaaccent" horiz-adv-x="852" d="M484 1280V0H369V1280H16V1380H837V1280H484ZM369 -391H282L379 -111H499L369 -391Z" />
<glyph unicode="&#x163;" glyph-name="tcommaaccent" horiz-adv-x="597" d="M535 19Q498 8 455 0T371 -8Q326 -8 290 2T229 38T190 107T177 215V950H0V1042H177V1361L288 1375V1042H533V950H288V236Q288 195 293 168T313 123T349 98T407 90Q431 90 458 93T522
102L535 19V19ZM277 -391H190L287 -111H407L277 -391Z" />
<glyph unicode="&#x164;" glyph-name="Tcaron" horiz-adv-x="852" d="M484 1280V0H369V1280H16V1380H837V1280H484ZM656 1742L693 1685L425 1491L156 1683L195 1742L427 1603L656 1742Z" />
<glyph unicode="&#x165;" glyph-name="tcaron" horiz-adv-x="597" d="M535 19Q498 8 455 0T371 -8Q326 -8 290 2T229 38T190 107T177 215V950H0V1042H177V1361L288 1375V1042H533V950H288V236Q288 195 293 168T313 123T349 98T407 90Q431 90 458 93T522 102L535
19V19ZM503 1192L430 1215L540 1556L650 1522L503 1192Z" />
<glyph unicode="&#x166;" glyph-name="Tbar" horiz-adv-x="893" d="M389 0V668H182V768H389V1280H37V1380H858V1280H504V768H711V668H504V0H389Z" />
<glyph unicode="&#x167;" glyph-name="tbar" horiz-adv-x="598" d="M535 20Q497 8 455 0T371 -8Q326 -8 290 2T228 39T190 107T176 215V532H20V618H176V952H0V1042H176V1362L289 1374V1042H532V952H289V618H502V532H289V238Q289 196 294 168T313 123T350 98T408
90Q432 90 458 93T522 102L535 20Z" />
<glyph unicode="&#x168;" glyph-name="Utilde" horiz-adv-x="1198" d="M1024 411Q1024 322 1001 246T926 113T792 25T592 -7Q482 -7 404 18T274 95T199 223T174 404V1380H290V405Q290 325 306 266T358 169T454 111T600 91Q693 91 752 113T846 176T894 275T908
406V1380H1024V411V411ZM899 1809Q906 1757 897 1715T865 1641T808 1593T730 1576Q695 1576 668 1587T619 1616T578 1653T542 1689T506 1717T466 1729Q416 1729 394 1695T371 1588H296Q289 1639 298 1682T330 1755T386 1803T465 1820Q500 1820 527 1809T576 1780T616
1743T653 1707T689 1679T729 1667Q779 1667 801 1702T823 1809H899V1809Z" />
<glyph unicode="&#x169;" glyph-name="utilde" horiz-adv-x="1018" d="M272 1042V392Q272 334 282 280T315 184T372 117T456 91Q515 91 585 130T743 252V1042H854V0H765L751 151Q696 104 653 73T573 25T500 0T427 -8Q366 -8 317 18T233 93T180 209T161 359V1042H272ZM819
1471Q826 1419 817 1377T785 1303T728 1255T650 1238Q615 1238 588 1249T539 1278T498 1315T462 1351T426 1379T386 1391Q336 1391 314 1357T291 1250H216Q209 1301 218 1344T250 1417T306 1465T385 1482Q420 1482 447 1471T496 1442T536 1405T573 1369T609 1341T649
1329Q699 1329 721 1364T743 1471H819V1471Z" />
<glyph unicode="&#x16a;" glyph-name="Umacron" horiz-adv-x="1199" d="M1024 411Q1024 322 1001 246T926 113T792 25T592 -7Q482 -7 404 18T274 95T199 223T174 404V1380H290V405Q290 325 306 266T358 169T454 111T600 91Q693 91 752 113T846 176T894 275T908
406V1380H1024V411V411ZM361 1559V1646H836V1559H361Z" />
<glyph unicode="&#x16b;" glyph-name="umacron" horiz-adv-x="1017" d="M272 1042V392Q272 334 282 280T315 184T372 117T456 91Q515 91 585 130T743 252V1042H854V0H765L751 151Q696 104 653 73T573 25T500 0T427 -8Q366 -8 317 18T233 93T180 209T161 359V1042H272ZM267
1287V1377H750V1287H267Z" />
<glyph unicode="&#x16c;" glyph-name="Ubreve" horiz-adv-x="1198" d="M1024 411Q1024 322 1001 246T926 113T792 25T592 -7Q482 -7 404 18T274 95T199 223T174 404V1380H290V405Q290 325 306 266T358 169T454 111T600 91Q693 91 752 113T846 176T894 275T908
406V1380H1024V411V411ZM830 1799Q833 1746 820 1701T779 1623T704 1572T596 1553Q534 1553 489 1570T415 1618T373 1696T364 1799H453Q453 1713 490 1677T598 1641Q637 1641 664 1653T708 1685T734 1735T742 1799H830V1799Z" />
<glyph unicode="&#x16d;" glyph-name="ubreve" horiz-adv-x="1018" d="M272 1042V392Q272 334 282 280T315 184T372 117T456 91Q515 91 585 130T743 252V1042H854V0H765L751 151Q696 104 653 73T573 25T500 0T427 -8Q366 -8 317 18T233 93T180 209T161 359V1042H272ZM738
1461Q741 1408 728 1363T687 1285T612 1234T504 1215Q442 1215 397 1232T323 1280T281 1358T272 1461H361Q361 1375 398 1339T506 1303Q545 1303 572 1315T616 1347T642 1397T650 1461H738V1461Z" />
<glyph unicode="&#x16e;" glyph-name="Uring" horiz-adv-x="1199" d="M1024 411Q1024 322 1001 246T926 113T792 25T592 -7Q482 -7 404 18T274 95T199 223T174 404V1380H290V405Q290 325 306 266T358 169T454 111T600 91Q693 91 752 113T846 176T894 275T908 406V1380H1024V411V411ZM800
1597Q800 1560 789 1529T753 1475T690 1437T599 1423Q543 1423 505 1434T442 1468T407 1523T396 1596Q396 1634 409 1665T446 1719T509 1755T603 1769Q704 1769 752 1727T800 1597ZM702 1597Q702 1617 697 1635T680 1665T648 1685T599 1694Q572 1694 552 1687T520
1666T501 1635T495 1596Q495 1576 500 1559T518 1528T550 1507T599 1499Q626 1499 646 1506T678 1527T696 1558T702 1597Z" />
<glyph unicode="&#x16f;" glyph-name="uring" horiz-adv-x="1017" d="M272 1042V392Q272 334 282 280T315 184T372 117T456 91Q515 91 585 130T743 252V1042H854V0H765L751 151Q696 104 653 73T573 25T500 0T427 -8Q366 -8 317 18T233 93T180 209T161 359V1042H272ZM727
1359Q727 1314 715 1276T677 1209T610 1164T510 1148Q450 1148 408 1162T340 1202T303 1268T291 1357Q291 1403 303 1442T343 1509T412 1552T514 1568Q625 1568 676 1516T727 1359ZM633 1359Q633 1387 627 1411T607 1452T569 1480T510 1491Q476 1491 452 1481T414
1453T392 1411T385 1357Q385 1329 391 1305T412 1263T450 1235T510 1225Q543 1225 566 1235T605 1263T626 1305T633 1359Z" />
<glyph unicode="&#x170;" glyph-name="Uhungarumlaut" horiz-adv-x="1199" d="M1024 411Q1024 322 1001 246T926 113T792 25T592 -7Q482 -7 404 18T274 95T199 223T174 404V1380H290V405Q290 325 306 266T358 169T454 111T600 91Q693 91 752 113T846 176T894 275T908
406V1380H1024V411V411ZM814 1502H718L871 1741H1001L814 1502ZM469 1502H373L527 1741H656L469 1502Z" />
<glyph unicode="&#x171;" glyph-name="uhungarumlaut" horiz-adv-x="1017" d="M272 1042V392Q272 334 282 280T315 184T372 117T456 91Q515 91 585 130T743 252V1042H854V0H765L751 151Q696 104 653 73T573 25T500 0T427 -8Q366 -8 317 18T233 93T180 209T161
359V1042H272ZM362 1174L294 1212L506 1497L602 1443L362 1174ZM685 1174L617 1212L850 1491L945 1435L685 1174Z" />
<glyph unicode="&#x172;" glyph-name="Uogonek" horiz-adv-x="1199" d="M1024 411Q1024 348 1012 291T976 186T912 100T819 36Q766 11 729 -20T668 -85T633 -150T622 -208Q622 -248 645 -270T725 -293Q761 -293 799 -286T873 -263L893 -332Q856 -353 807 -367T704
-381Q661 -381 627 -372T568 -343T530 -294T516 -223Q516 -192 525 -160T551 -100T590 -47T639 -4Q630 -6 617 -6T592 -7Q482 -7 404 18T274 95T199 223T174 404V1380H290V405Q290 325 306 266T358 169T454 111T600 91Q693 91 752 113T846 176T894 275T908 406V1380H1024V411V411Z"
/>
<glyph unicode="&#x173;" glyph-name="uogonek" horiz-adv-x="1017" d="M981 -332Q944 -353 895 -367T792 -381Q706 -381 655 -343T604 -227Q604 -198 613 -169T640 -109T689 -47T763 18L751 151Q696 104 653 73T573 25T500 0T427 -8Q366 -8 317 18T233 93T180
209T161 359V1042H272V392Q272 334 282 280T315 184T372 117T456 91Q515 91 585 130T743 252V1042H854V0Q811 -34 783 -63T739 -119T716 -168T710 -211Q710 -247 733 -270T813 -293Q849 -293 887 -286T961 -263L981 -332V-332Z" />
<glyph unicode="&#x174;" glyph-name="Wcircumflex" horiz-adv-x="1593" d="M1244 0H1087L832 1066L797 1248H794L759 1066L505 0H346L37 1380H162L401 287L428 125H430L463 280L723 1380H876L1137 287L1168 125H1170L1199 284L1436 1380H1556L1244 0ZM563 1491L526
1548L795 1742L1063 1550L1024 1491L793 1629L563 1491Z" />
<glyph unicode="&#x175;" glyph-name="wcircumflex" horiz-adv-x="1309" d="M997 0H844L658 788H656L469 0H307L61 1042H182L393 111H395L618 1042H706L929 111H931L1134 1042H1257L997 0ZM853 1174L660 1356L467 1174L416 1230L662 1497L907 1232L853 1174Z" />
<glyph unicode="&#x176;" glyph-name="Ycircumflex" horiz-adv-x="944" d="M530 595V0H417V595L20 1380H153L332 1015L477 713L606 987L796 1380H925L530 595ZM239 1491L202 1548L471 1742L739 1550L700 1491L469 1629L239 1491Z" />
<glyph unicode="&#x177;" glyph-name="ycircumflex" horiz-adv-x="780" d="M488 70Q468 -2 449 -58T410 -158T368 -237T321 -300T264 -351T195 -396L143 -317Q179 -295 208 -271T261 -215T305 -137T344 -27L36 1042H159L375 265L405 138H407L448 311L632 1042H756L488
70ZM844 1174L651 1356L458 1174L407 1230L653 1497L898 1232L844 1174Z" />
<glyph unicode="&#x178;" glyph-name="Ydieresis" horiz-adv-x="944" d="M530 595V0H417V595L20 1380H153L332 1015L477 713L606 987L796 1380H925L530 595ZM343 1521H233V1680H343V1521ZM720 1521H610V1680H720V1521Z" />
<glyph unicode="&#x179;" glyph-name="Zacute" horiz-adv-x="914" d="M87 0V89L684 1282H95V1380H806V1294L210 101H827V0H87ZM531 1741H668L479 1490H379L531 1741Z" />
<glyph unicode="&#x17a;" glyph-name="zacute" horiz-adv-x="692" d="M56 0V68L486 946H69V1042H612V970L185 97H634V0H56ZM586 1174L511 1212L748 1497L850 1443L586 1174Z" />
<glyph unicode="&#x17b;" glyph-name="Zdotaccent" horiz-adv-x="914" d="M87 0V89L684 1282H95V1380H806V1294L210 101H827V0H87ZM401 1529V1700H514V1529H401Z" />
<glyph unicode="&#x17c;" glyph-name="zdotaccent" horiz-adv-x="692" d="M56 0V68L486 946H69V1042H612V970L185 97H634V0H56ZM290 1304V1475H401V1304H290Z" />
<glyph unicode="&#x17d;" glyph-name="Zcaron" horiz-adv-x="914" d="M87 0V89L684 1282H95V1380H806V1294L210 101H827V0H87ZM690 1742L727 1685L459 1491L190 1683L229 1742L461 1603L690 1742Z" />
<glyph unicode="&#x17e;" glyph-name="zcaron" horiz-adv-x="692" d="M56 0V68L486 946H69V1042H612V970L185 97H634V0H56ZM409 1497L604 1315L796 1497L847 1441L602 1174L356 1439L409 1497Z" />
<glyph unicode="&#x192;" glyph-name="florin" horiz-adv-x="898" d="M836 1343Q812 1350 785 1356T729 1366T673 1373T625 1376Q571 1376 536 1364T478 1322T443 1246T422 1131L395 902H697V809H384L255 -285L139 -301L271 809H58V902H282L309 1135Q320 1226
343 1290T406 1394T501 1451T628 1469Q652 1469 684 1465T749 1454T811 1439T858 1424L836 1343Z" />
<glyph unicode="&#x218;" glyph-name="Scommaaccent" horiz-adv-x="933" d="M850 358Q850 273 823 205T746 90T622 17T454 -8Q377 -8 290 14T121 84L161 172Q230 137 300 115T454 93Q591 93 662 159T734 345Q734 411 707 459T636 547T535 617T420 680T305 744T204
821T133 921T106 1053Q106 1126 131 1187T204 1293T322 1363T481 1388Q522 1388 564 1383T648 1366T727 1340T798 1305L759 1222Q731 1235 698 1248T628 1270T556 1285T483 1291Q418 1291 369 1274T287 1227T238 1156T221 1066Q221 1003 248 957T319 875T420 808T535
746T650 681T751 601T823 497T850 358ZM407 -391H320L417 -111H537L407 -391Z" />
<glyph unicode="&#x219;" glyph-name="scommaaccent" horiz-adv-x="725" d="M631 262Q631 199 610 149T550 64T456 11T329 -8Q255 -8 196 10T81 58L121 148Q178 117 228 103T330 89Q381 89 416 102T473 137T506 189T517 253Q517 284 509 312T479 368T418 426T318
494Q251 533 206 569T135 640T97 715T86 798Q86 856 107 903T165 982T252 1033T363 1051Q430 1051 489 1033T597 989L561 905Q522 924 470 940T363 956Q322 956 291 945T239 913T208 866T197 806Q197 776 205 750T234 698T292 644T386 584Q458 543 505 504T580
425T619 346T631 262ZM280 -391H193L290 -111H410L280 -391Z" />
<glyph unicode="&#x21a;" glyph-name="Tcommaaccent" horiz-adv-x="852" d="M484 1280V0H369V1280H16V1380H837V1280H484ZM369 -391H282L379 -111H499L369 -391Z" />
<glyph unicode="&#x21b;" glyph-name="tcommaaccent" horiz-adv-x="597" d="M535 19Q498 8 455 0T371 -8Q326 -8 290 2T229 38T190 107T177 215V950H0V1042H177V1361L288 1375V1042H533V950H288V236Q288 195 293 168T313 123T349 98T407 90Q431 90 458 93T522
102L535 19V19ZM277 -391H190L287 -111H407L277 -391Z" />
<glyph unicode="&#x237;" glyph-name="dotlessj" horiz-adv-x="438" d="M66 -346Q118 -268 141 -178T164 20V1042H274V59Q274 -25 266 -91T242 -210T201 -309T141 -397L66 -346Z" />
<glyph unicode="&#x2c6;" glyph-name="circumflex" horiz-adv-x="819" d="M601 1174L408 1356L215 1174L164 1230L410 1497L655 1232L601 1174Z" />
<glyph unicode="&#x2c7;" glyph-name="caron" horiz-adv-x="819" d="M217 1497L412 1315L604 1497L655 1441L410 1174L164 1439L217 1497Z" />
<glyph unicode="&#x2c9;" glyph-name="macron" horiz-adv-x="819" d="M168 1287V1377H651V1287H168Z" />
<glyph unicode="&#x2d8;" glyph-name="breve" horiz-adv-x="819" d="M642 1461Q645 1408 632 1363T591 1285T516 1234T408 1215Q346 1215 301 1232T227 1280T185 1358T176 1461H265Q265 1375 302 1339T410 1303Q449 1303 476 1315T520 1347T546 1397T554 1461H642V1461Z" />
<glyph unicode="&#x2d9;" glyph-name="dotaccent" horiz-adv-x="438" d="M163 1304V1475H274V1304H163Z" />
<glyph unicode="&#x2da;" glyph-name="ring" horiz-adv-x="819" d="M629 1359Q629 1314 617 1276T579 1209T512 1164T412 1148Q352 1148 310 1162T242 1202T205 1268T193 1357Q193 1403 205 1442T245 1509T314 1552T416 1568Q527 1568 578 1516T629 1359ZM535
1359Q535 1387 529 1411T509 1452T471 1480T412 1491Q378 1491 354 1481T316 1453T294 1411T287 1357Q287 1329 293 1305T314 1263T352 1235T412 1225Q445 1225 468 1235T507 1263T528 1305T535 1359Z" />
<glyph unicode="&#x2db;" glyph-name="ogonek" horiz-adv-x="819" d="M218 -243Q218 -202 231 -167T265 -101T315 -45T376 0H504Q454 -26 420 -54T365 -112T334 -170T324 -227Q324 -263 347 -286T427 -309Q463 -309 504 -301T578 -284L596 -346Q558 -367 509 -381T406
-396Q319 -396 269 -358T218 -243Z" />
<glyph unicode="&#x2dc;" glyph-name="tilde" horiz-adv-x="819" d="M717 1471Q724 1419 715 1377T683 1303T626 1255T548 1238Q513 1238 486 1249T437 1278T396 1315T360 1351T324 1379T284 1391Q234 1391 212 1357T189 1250H114Q107 1301 116 1344T148 1417T204
1465T283 1482Q318 1482 345 1471T394 1442T434 1405T471 1369T507 1341T547 1329Q597 1329 619 1364T641 1471H717V1471Z" />
<glyph unicode="&#x2dd;" glyph-name="hungarumlaut" horiz-adv-x="819" d="M170 1174L102 1212L314 1497L410 1443L170 1174ZM493 1174L425 1212L658 1491L753 1435L493 1174Z" />
<glyph unicode="&#x312;" glyph-name="uni0312" horiz-adv-x="437" d="M255 1534L330 1512L217 1171L108 1203L255 1534Z" />
<glyph unicode="&#x315;" glyph-name="uni0315" horiz-adv-x="437" d="M181 1327L108 1350L218 1691L328 1657L181 1327Z" />
<glyph unicode="&#x326;" glyph-name="uni0326" horiz-adv-x="437" d="M196 -391H109L206 -111H326L196 -391Z" />
<glyph unicode="&#x394;" glyph-name="Delta" horiz-adv-x="1049" d="M44 0L451 1380H600L1005 0H44ZM520 1262L186 98H857L520 1262Z" />
<glyph unicode="&#x3a9;" glyph-name="Omega" horiz-adv-x="1332" d="M744 92Q826 118 884 174T981 313T1036 503T1054 740Q1054 886 1032 990T961 1162T841 1260T668 1291Q559 1291 486 1253T367 1142T302 968T282 738Q282 611 299 504T355 313T452 173T596 94V0H152V95H416Q350
134 303 193T224 331T179 511T165 734Q165 902 200 1025T300 1228T458 1348T667 1388H679Q792 1388 882 1353T1037 1240T1137 1041T1172 743Q1172 614 1154 512T1100 329T1014 191T898 95H1182V0H744V92V92Z" />
<glyph unicode="&#x3b1;" glyph-name="alpha" horiz-adv-x="1155" d="M1094 15Q1061 3 1026 -2T960 -8Q928 -8 900 5T849 50T806 137T770 275Q737 206 696 153T610 65T517 11T421 -8Q348 -8 291 30T193 137T131 304T110 518Q110 644 135 743T206 911T313 1015T446
1051Q506 1051 559 1028T656 951T737 807T798 585Q805 616 815 662T835 767T855 895T869 1042H982Q969 863 935 704T841 403Q860 308 877 248T912 152T949 104T992 90Q1010 90 1034 92T1082 99L1094 15ZM223 522Q223 429 238 350T281 214T349 124T443 91Q478 91
514 110T587 169T662 270T735 414Q708 549 682 650T623 818T550 918T455 951Q403 951 361 920T288 831T240 695T223 522Z" />
<glyph unicode="&#x3bc;" glyph-name="mu" horiz-adv-x="1126" d="M982 9Q957 2 924 -3T856 -8Q811 -8 781 2T732 33T709 81T707 145Q649 101 601 72T513 24T440 -1T376 -8Q339 -8 312 0T265 20T232 48T211 79L118 -387H8L286 1042H397L268 379Q241 236 270 164T386
91Q449 91 529 132T716 256L868 1042H979L821 238Q812 191 813 162T825 117T856 96T908 91Q920 91 943 93T986 98L982 9V9Z" />
<glyph unicode="&#x3c0;" glyph-name="pi" horiz-adv-x="1125" d="M1061 950H865V236Q865 178 878 146T918 100T982 87T1068 97L1080 12Q1071 9 1056 6T1023 0T983 -6T941 -8Q895 -8 861 3T802 39T766 108T754 215V950H359V0H248V950H59V1042H1061V950Z" />
<glyph unicode="&#x1e02;" glyph-name="uni1E02" horiz-adv-x="1032" d="M914 391Q914 307 888 235T804 111T652 28T425 -2Q363 -2 304 -1T174 0V1378Q211 1379 243 1379T306 1380T369 1381T437 1382Q554 1382 637 1360T772 1295T849 1187T874 1037Q874 978 860
927T815 834T738 764T628 723Q709 710 764 681T852 609T900 511T914 391ZM759 1030Q759 1088 745 1135T693 1216T586 1267T410 1285Q369 1285 341 1284T289 1281V764Q317 762 340 762T387 762Q506 762 579 784T692 842T745 928T759 1030ZM796 385Q796 443 781 494T720
583T595 643T383 665Q362 665 338 665T289 663V100Q323 97 353 97T426 96Q508 96 567 108T668 140T734 189T773 250T791 316T796 385ZM459 1529V1700H572V1529H459Z" />
<glyph unicode="&#x1e03;" glyph-name="uni1E03" horiz-adv-x="993" d="M884 524Q884 397 859 298T790 131T686 28T554 -8Q527 -8 497 0T431 26T355 74T266 150L252 0H163V1482L274 1496V899Q323 942 364 971T442 1018T512 1043T580 1051Q652 1051 708 1013T804
904T863 737T884 524ZM772 520Q772 613 758 692T715 829T646 918T554 951Q501 951 432 913T274 791V254Q362 171 428 131T543 91Q592 91 634 123T706 212T754 347T772 520ZM528 1304V1475H639V1304H528Z" />
<glyph unicode="&#x1e0a;" glyph-name="uni1E0A" horiz-adv-x="1167" d="M1044 704Q1044 537 1010 405T902 182T714 44T441 -4Q408 -4 373 -4T304 -3T236 -2T174 0V1380Q246 1382 313 1383T447 1384Q610 1384 723 1340T908 1210T1012 997T1044 704ZM926 702Q926
840 903 948T823 1132T674 1246T440 1286Q425 1286 407 1286T369 1285T329 1284T290 1282V99Q304 98 324 98T367 97T409 96T444 95Q580 95 672 135T820 254T901 444T926 702ZM527 1529V1700H640V1529H527Z" />
<glyph unicode="&#x1e0b;" glyph-name="uni1E0B" horiz-adv-x="995" d="M742 0L727 151Q674 104 631 74T551 25T481 0T414 -8Q342 -8 286 30T190 138T131 305T110 518Q110 644 135 743T204 911T308 1015T439 1051Q466 1051 495 1044T559 1019T632 973T720 902V1482L831
1496V0H742ZM720 790Q632 872 566 911T451 951Q402 951 360 920T288 831T240 695T222 522Q222 429 236 350T279 214T348 124T440 91Q493 91 562 130T720 252V790ZM349 1304V1475H460V1304H349Z" />
<glyph unicode="&#x1e1e;" glyph-name="uni1E1E" horiz-adv-x="836" d="M290 1282V761H717V662H290V0H174V1380H750V1282H290ZM410 1529V1700H523V1529H410Z" />
<glyph unicode="&#x1e1f;" glyph-name="uni1E1F" horiz-adv-x="537" d="M549 1394Q528 1397 497 1399T441 1402Q359 1402 324 1349T288 1199V1042H513V950H288V0H177V950H0V1042H177V1195Q177 1344 241 1420T440 1496Q479 1496 508 1493T560 1483L549 1394ZM344
1631V1802H457V1631H344Z" />
<glyph unicode="&#x1e40;" glyph-name="uni1E40" horiz-adv-x="1536" d="M1294 0L1208 1277H1206L806 0H725L325 1277H323L237 0H127L224 1380H412L769 233H771L1128 1380H1312L1410 0H1294ZM711 1529V1700H824V1529H711Z" />
<glyph unicode="&#x1e41;" glyph-name="uni1E41" horiz-adv-x="1583" d="M1311 0V650Q1311 708 1301 762T1269 859T1214 926T1131 951Q1072 951 1003 913T848 791V0H737V650Q737 708 728 762T696 859T640 926T558 951Q499 951 430 913T274 791V0H163V1042H252L267
892Q320 939 362 969T442 1018T513 1043T586 1051Q668 1051 727 1004T817 873Q878 927 925 961T1011 1016T1086 1043T1160 1051Q1221 1051 1269 1025T1351 950T1403 833T1422 683V0H1311ZM734 1304V1475H845V1304H734Z" />
<glyph unicode="&#x1e56;" glyph-name="uni1E56" horiz-adv-x="1014" d="M936 960Q936 862 907 783T820 646T676 558T477 527Q429 527 383 527T290 529V0H174V1378Q213 1379 254 1380T337 1381T420 1382T501 1382Q618 1382 700 1354T835 1271T912 1138T936 960ZM815
953Q815 1027 801 1088T750 1193T649 1260T484 1284Q461 1284 436 1284T384 1283T334 1282T290 1280V630Q323 628 367 627T480 625Q575 625 639 649T742 716T798 820T815 953ZM451 1529V1700H564V1529H451Z" />
<glyph unicode="&#x1e57;" glyph-name="uni1E57" horiz-adv-x="993" d="M884 524Q884 397 859 298T790 131T686 28T554 -8Q527 -8 498 -1T435 24T361 70T274 140V-381L163 -396V1042H252L267 892Q320 939 363 969T443 1018T513 1043T580 1051Q652 1051 708 1013T804
904T863 737T884 524ZM772 520Q772 613 758 692T715 829T646 918T554 951Q500 951 431 913T274 791V252Q362 171 428 131T543 91Q592 91 634 123T706 212T754 347T772 520ZM442 1304V1475H553V1304H442Z" />
<glyph unicode="&#x1e60;" glyph-name="uni1E60" horiz-adv-x="934" d="M850 358Q850 273 823 205T746 90T622 17T454 -8Q377 -8 290 14T121 84L161 172Q230 137 300 115T454 93Q591 93 662 159T734 345Q734 411 707 459T636 547T535 617T420 680T305 744T204
821T133 921T106 1053Q106 1126 131 1187T204 1293T322 1363T481 1388Q522 1388 564 1383T648 1366T727 1340T798 1305L759 1222Q731 1235 698 1248T628 1270T556 1285T483 1291Q418 1291 369 1274T287 1227T238 1156T221 1066Q221 1003 248 957T319 875T420 808T535
746T650 681T751 601T823 497T850 358ZM410 1529V1700H523V1529H410Z" />
<glyph unicode="&#x1e61;" glyph-name="uni1E61" horiz-adv-x="725" d="M631 262Q631 199 610 149T550 64T456 11T329 -8Q255 -8 196 10T81 58L121 148Q178 117 228 103T330 89Q381 89 416 102T473 137T506 189T517 253Q517 284 509 312T479 368T418 426T318 494Q251
533 206 569T135 640T97 715T86 798Q86 856 107 903T165 982T252 1033T363 1051Q430 1051 489 1033T597 989L561 905Q522 924 470 940T363 956Q322 956 291 945T239 913T208 866T197 806Q197 776 205 750T234 698T292 644T386 584Q458 543 505 504T580 425T619
346T631 262ZM306 1304V1475H417V1304H306Z" />
<glyph unicode="&#x1e6a;" glyph-name="uni1E6A" horiz-adv-x="852" d="M484 1280V0H369V1280H16V1380H837V1280H484ZM369 1529V1700H482V1529H369Z" />
<glyph unicode="&#x1e6b;" glyph-name="uni1E6B" horiz-adv-x="598" d="M535 19Q498 8 455 0T371 -8Q326 -8 290 2T229 38T190 107T177 215V950H0V1042H177V1361L288 1375V1042H533V950H288V236Q288 195 293 168T313 123T349 98T407 90Q431 90 458 93T522 102L535
19V19ZM178 1529V1700H291V1529H178Z" />
<glyph unicode="&#x1e80;" glyph-name="Wgrave" horiz-adv-x="1593" d="M1244 0H1087L832 1066L797 1248H794L759 1066L505 0H346L37 1380H162L401 287L428 125H430L463 280L723 1380H876L1137 287L1168 125H1170L1199 284L1436 1380H1556L1244 0ZM736 1490L546
1741H683L835 1490H736Z" />
<glyph unicode="&#x1e81;" glyph-name="wgrave" horiz-adv-x="1309" d="M997 0H844L658 788H656L469 0H307L61 1042H182L393 111H395L618 1042H706L929 111H931L1134 1042H1257L997 0ZM701 1174L436 1443L538 1497L775 1212L701 1174Z" />
<glyph unicode="&#x1e82;" glyph-name="Wacute" horiz-adv-x="1593" d="M1244 0H1087L832 1066L797 1248H794L759 1066L505 0H346L37 1380H162L401 287L428 125H430L463 280L723 1380H876L1137 287L1168 125H1170L1199 284L1436 1380H1556L1244 0ZM906 1741H1043L854
1490H754L906 1741Z" />
<glyph unicode="&#x1e83;" glyph-name="wacute" horiz-adv-x="1309" d="M997 0H844L658 788H656L469 0H307L61 1042H182L393 111H395L618 1042H706L929 111H931L1134 1042H1257L997 0ZM682 1174L607 1212L844 1497L946 1443L682 1174Z" />
<glyph unicode="&#x1e84;" glyph-name="Wdieresis" horiz-adv-x="1593" d="M1244 0H1087L832 1066L797 1248H794L759 1066L505 0H346L37 1380H162L401 287L428 125H430L463 280L723 1380H876L1137 287L1168 125H1170L1199 284L1436 1380H1556L1244 0ZM661 1521H551V1680H661V1521ZM1038
1521H928V1680H1038V1521Z" />
<glyph unicode="&#x1e85;" glyph-name="wdieresis" horiz-adv-x="1309" d="M997 0H844L658 788H656L469 0H307L61 1042H182L393 111H395L618 1042H706L929 111H931L1134 1042H1257L997 0ZM785 1308V1469H893V1308H785ZM422 1308V1469H530V1308H422Z" />
<glyph unicode="&#x1ef2;" glyph-name="Ygrave" horiz-adv-x="944" d="M530 595V0H417V595L20 1380H153L332 1015L477 713L606 987L796 1380H925L530 595ZM431 1490L241 1741H378L530 1490H431Z" />
<glyph unicode="&#x1ef3;" glyph-name="ygrave" horiz-adv-x="780" d="M488 70Q468 -2 449 -58T410 -158T368 -237T321 -300T264 -351T195 -396L143 -317Q179 -295 208 -271T261 -215T305 -137T344 -27L36 1042H159L375 265L405 138H407L448 311L632 1042H756L488
70ZM647 1174L382 1443L484 1497L721 1212L647 1174Z" />
<glyph unicode="&#x2010;" glyph-name="hyphen" horiz-adv-x="519" d="M78 533V634H458V533H78Z" />
<glyph unicode="&#x2013;" glyph-name="endash" horiz-adv-x="1024" d="M0 561V658H1024V561H0Z" />
<glyph unicode="&#x2014;" glyph-name="emdash" horiz-adv-x="2048" d="M205 561V658H1843V561H205Z" />
<glyph unicode="&#x2018;" glyph-name="quoteleft" horiz-adv-x="475" d="M313 1557L395 1528L229 1055L115 1092L313 1557Z" />
<glyph unicode="&#x2019;" glyph-name="quoteright" horiz-adv-x="473" d="M199 1053L115 1081L281 1556L395 1520L199 1053Z" />
<glyph unicode="&#x201a;" glyph-name="quotesinglbase" horiz-adv-x="473" d="M172 -309L88 -283L256 195L369 156L172 -309Z" />
<glyph unicode="&#x201c;" glyph-name="quotedblleft" horiz-adv-x="823" d="M311 1556L395 1528L227 1055L113 1092L311 1556ZM659 1556L743 1528L575 1053L463 1090L659 1556Z" />
<glyph unicode="&#x201d;" glyph-name="quotedblright" horiz-adv-x="823" d="M545 1053L463 1081L631 1554L745 1518L545 1053ZM199 1053L115 1081L281 1556L395 1520L199 1053Z" />
<glyph unicode="&#x201e;" glyph-name="quotedblbase" horiz-adv-x="823" d="M520 -309L436 -283L604 193L719 156L520 -309ZM172 -309L88 -283L256 195L369 156L172 -309Z" />
<glyph unicode="&#x2020;" glyph-name="dagger" horiz-adv-x="1024" d="M559 1026V282H448V1026H127V1120H448V1455H559V1120H879V1026H559Z" />
<glyph unicode="&#x2021;" glyph-name="daggerdbl" horiz-adv-x="1024" d="M559 386V0H448V386H125V480H448V1026H125V1120H448V1491H559V1120H881V1026H559V480H881V386H559Z" />
<glyph unicode="&#x2022;" glyph-name="bullet" horiz-adv-x="1126" d="M811 610Q811 559 792 514T739 435T660 383T563 363Q511 363 466 382T388 435T335 513T316 610Q316 662 335 707T387 786T466 839T563 859Q615 859 660 840T738 787T791 708T811 610Z" />
<glyph unicode="&#x2026;" glyph-name="ellipsis" horiz-adv-x="1396" d="M1073 0V174H1201V0H1073ZM634 0V174H761V0H634ZM194 0V174H321V0H194Z" />
<glyph unicode="&#x2030;" glyph-name="perthousand" horiz-adv-x="2065" d="M623 1049Q623 977 608 915T559 806T473 733T345 706Q274 706 224 728T143 794T96 901T81 1045Q81 1117 96 1179T145 1288T232 1361T359 1388Q430 1388 480 1366T562 1299T608 1192T623
1049ZM356 0H247L1057 1380H1167L356 0ZM523 1047Q523 1103 516 1151T490 1233T438 1287T352 1307Q303 1307 271 1287T218 1231T190 1147T181 1045Q181 989 188 942T214 861T267 806T352 786Q400 786 433 806T486 863T514 946T523 1047ZM1325 335Q1325 263 1310
201T1261 92T1174 19T1047 -8Q975 -8 925 15T844 81T798 188T783 332Q783 403 798 466T846 575T932 648T1061 675Q1131 675 1181 652T1263 585T1310 478T1325 335ZM1225 334Q1225 390 1218 437T1191 519T1139 574T1053 594Q1004 594 972 573T919 517T891 433T882
332Q882 276 889 229T915 147T968 93T1053 73Q1102 73 1135 93T1188 149T1216 232T1225 334ZM1983 335Q1983 263 1968 201T1919 92T1833 19T1706 -8Q1635 -8 1585 15T1503 81T1457 188T1442 332Q1442 403 1457 466T1506 575T1591 648T1719 675Q1790 675 1840 652T1922
585T1968 478T1983 335ZM1884 334Q1884 390 1877 437T1851 519T1798 574T1713 594Q1664 594 1631 573T1579 517T1551 433T1542 332Q1542 276 1549 229T1575 147T1627 93T1712 73Q1761 73 1793 93T1846 149T1875 232T1884 334Z" />
<glyph unicode="&#x2039;" glyph-name="guilsinglleft" horiz-adv-x="666" d="M404 168L120 607L406 1049L482 1017L257 610L482 203L404 168Z" />
<glyph unicode="&#x203a;" glyph-name="guilsinglright" horiz-adv-x="666" d="M263 1049L546 610L261 168L186 202L411 607L186 1015L263 1049Z" />
<glyph unicode="&#x2044;" glyph-name="fraction" horiz-adv-x="530" d="M-84 0H-193L617 1380H727L-84 0Z" />
<glyph unicode="&#x2070;" glyph-name="zero.superior" horiz-adv-x="719" d="M352 705Q272 705 223 735T145 813T108 921T98 1044Q98 1109 110 1171T152 1281T235 1359T367 1389Q447 1389 496 1359T574 1281T611 1172T621 1049Q621 984 609 923T567 813T484 735T352
705ZM360 786Q405 786 435 807T482 864T507 947T514 1047Q514 1099 507 1146T483 1229T436 1286T360 1307Q314 1307 284 1286T237 1229T212 1146T205 1047Q205 994 212 947T236 864T283 807T360 786Z" />
<glyph unicode="&#x2074;" glyph-name="four.superior" horiz-adv-x="659" d="M397 711V846H66V918L350 1380H500V928H600V846H500V711H397ZM397 1204L399 1300H397L346 1217L168 928H397V1204Z" />
<glyph unicode="&#x2075;" glyph-name="five.superior" horiz-adv-x="641" d="M100 823Q121 815 144 808T190 796T234 789T274 786Q362 786 400 816T438 915Q438 949 430 972T399 1008T337 1028T236 1034Q207 1034 179 1032T123 1026L162 1380H500L494 1292H240L221
1114Q230 1114 240 1115Q248 1115 258 1115T279 1116Q369 1116 422 1102T502 1063T538 1001T547 922Q547 862 528 821T474 754T390 717T281 705Q218 705 166 718T74 754L100 823Z" />
<glyph unicode="&#x2076;" glyph-name="six.superior" horiz-adv-x="678" d="M528 1294Q493 1302 459 1306T391 1311Q335 1311 299 1294T241 1246T212 1174T203 1087Q237 1106 279 1118T375 1130Q435 1130 475 1117T539 1079T574 1019T584 938Q584 884 567 841T518
767T439 721T336 705Q264 705 218 725T146 785T109 885T98 1024Q98 1107 112 1174T160 1289T251 1363T393 1389Q437 1389 477 1383T547 1364L528 1294ZM203 1014Q203 950 210 907T233 836T274 798T338 786Q413 786 446 822T479 930Q479 956 475 978T456 1017T414
1043T342 1053Q305 1053 267 1041T203 1014Z" />
<glyph unicode="&#x2077;" glyph-name="seven.superior" horiz-adv-x="588" d="M127 711L410 1292H80V1380H514V1303L242 711H127Z" />
<glyph unicode="&#x2078;" glyph-name="eight.superior" horiz-adv-x="682" d="M338 1018Q312 1004 288 990T243 959T211 921T199 872Q199 829 233 806T342 782Q413 782 448 806T483 868Q483 896 471 917T438 957T392 989T338 1018ZM430 1063Q459 1048 487 1030T537
990T572 938T586 872Q586 837 572 807T527 754T449 718T336 705Q207 705 151 748T94 864Q94 898 107 926T143 977T193 1020T252 1057Q226 1072 201 1088T157 1126T127 1173T115 1231Q115 1300 171 1344T344 1389Q460 1389 512 1350T565 1243Q565 1211 554 1185T523
1137T480 1097T430 1063ZM340 1100Q365 1114 388 1127T428 1157T455 1191T465 1233Q465 1311 338 1311Q276 1311 246 1290T215 1237Q215 1213 225 1194T252 1159T291 1128T340 1100Z" />
<glyph unicode="&#x2079;" glyph-name="nine.superior" horiz-adv-x="678" d="M145 801Q183 793 217 789T287 784Q343 784 379 801T437 849T466 920T475 1006Q438 987 395 975T301 963Q241 963 201 977T138 1016T104 1076T94 1153Q94 1266 158 1327T342 1389Q412
1389 458 1369T530 1308T567 1209T578 1071Q578 987 564 920T516 805T425 731T281 705Q240 705 198 711T125 729L145 801ZM475 1079Q475 1143 468 1187T444 1258T402 1297T338 1309Q263 1309 230 1272T197 1163Q197 1138 201 1116T220 1077T260 1050T332 1040Q350
1040 369 1043T408 1052T444 1064T475 1079Z" />
<glyph unicode="&#x2080;" glyph-name="zero.inferior" horiz-adv-x="719" d="M352 -5Q272 -5 223 25T145 103T108 211T98 334Q98 399 110 461T152 571T235 649T367 679Q447 679 496 649T574 571T611 462T621 339Q621 274 609 213T567 103T484 25T352 -5ZM360
76Q405 76 435 97T482 154T507 237T514 337Q514 389 507 436T483 519T436 576T360 597Q314 597 284 576T237 519T212 436T205 337Q205 284 212 237T236 154T283 97T360 76Z" />
<glyph unicode="&#x2081;" glyph-name="one.inferior" horiz-adv-x="471" d="M236 570L74 502L55 584L250 670H340V1H236V570Z" />
<glyph unicode="&#x2082;" glyph-name="two.inferior" horiz-adv-x="645" d="M87 595Q136 632 194 655T318 678Q377 678 419 663T489 623T529 564T542 492Q542 454 534 420T508 353T459 288T383 221L213 89H566V2H73V76L306 267Q347 300 372 328T410 381T427 432T431
484Q431 532 400 563T304 595Q259 595 214 577T120 530L87 595V595Z" />
<glyph unicode="&#x2083;" glyph-name="three.inferior" horiz-adv-x="643" d="M282 -6Q224 -6 169 11T70 56L101 115Q146 97 192 87T292 76Q335 76 363 84T408 108T431 143T437 187Q437 208 429 228T396 263T324 287T203 292V373Q267 371 309 377T376 399T411
437T422 489Q422 536 390 568T292 600Q268 600 247 596T206 583T163 564T115 539L81 601Q124 633 182 655T307 678Q365 678 407 664T475 625T514 567T527 496Q527 444 498 402T405 344Q463 334 500 293T538 193Q538 96 474 45T282 -6Z" />
<glyph unicode="&#x2084;" glyph-name="four.inferior" horiz-adv-x="659" d="M397 1V136H66V208L350 670H500V218H600V136H500V1H397ZM397 494L399 590H397L346 507L168 218H397V494Z" />
<glyph unicode="&#x2085;" glyph-name="five.inferior" horiz-adv-x="641" d="M100 113Q121 105 144 98T190 86T234 79T274 76Q362 76 400 106T438 205Q438 239 430 262T399 298T337 318T236 324Q207 324 179 322T123 316L162 670H500L494 582H240L221 404Q230
404 240 405Q248 405 258 405T279 406Q369 406 422 392T502 353T538 291T547 212Q547 152 528 111T474 44T390 7T281 -5Q218 -5 166 8T74 44L100 113Z" />
<glyph unicode="&#x2086;" glyph-name="six.inferior" horiz-adv-x="678" d="M528 584Q493 592 459 596T391 601Q335 601 299 584T241 536T212 464T203 377Q237 396 279 408T375 420Q435 420 475 407T539 369T574 309T584 228Q584 174 567 131T518 57T439 11T336
-5Q264 -5 218 15T146 75T109 175T98 314Q98 397 112 464T160 579T251 653T393 679Q437 679 477 673T547 654L528 584ZM203 304Q203 240 210 197T233 126T274 88T338 76Q413 76 446 112T479 220Q479 246 475 268T456 307T414 333T342 343Q305 343 267 331T203 304Z"
/>
<glyph unicode="&#x2087;" glyph-name="seven.inferior" horiz-adv-x="588" d="M127 1L410 582H80V670H514V593L242 1H127Z" />
<glyph unicode="&#x2088;" glyph-name="eight.inferior" horiz-adv-x="682" d="M338 308Q312 294 288 280T243 249T211 211T199 162Q199 119 233 96T342 72Q413 72 448 96T483 158Q483 186 471 207T438 247T392 279T338 308ZM430 353Q459 338 487 320T537 280T572
228T586 162Q586 127 572 97T527 44T449 8T336 -5Q207 -5 151 38T94 154Q94 188 107 216T143 267T193 310T252 347Q226 362 201 378T157 416T127 463T115 521Q115 590 171 634T344 679Q460 679 512 640T565 533Q565 501 554 475T523 427T480 387T430 353ZM340 390Q365
404 388 417T428 447T455 481T465 523Q465 601 338 601Q276 601 246 580T215 527Q215 503 225 484T252 449T291 418T340 390Z" />
<glyph unicode="&#x2089;" glyph-name="nine.inferior" horiz-adv-x="678" d="M145 91Q183 83 217 79T287 74Q343 74 379 91T437 139T466 210T475 296Q438 277 395 265T301 253Q241 253 201 267T138 306T104 366T94 443Q94 556 158 617T342 679Q412 679 458 659T530
598T567 499T578 361Q578 277 564 210T516 95T425 21T281 -5Q240 -5 198 1T125 19L145 91ZM475 369Q475 433 468 477T444 548T402 587T338 599Q263 599 230 562T197 453Q197 428 201 406T220 367T260 340T332 330Q350 330 369 333T408 342T444 354T475 369Z" />
<glyph unicode="&#x20ac;" glyph-name="Euro" horiz-adv-x="1126" d="M205 869Q239 1097 358 1218T681 1339Q717 1339 759 1333T845 1317T929 1293T1007 1264L976 1175Q950 1186 916 1197T844 1219T763 1235T682 1242Q600 1242 538 1217T433 1143T363 1025T323
869H754V779H314Q312 754 311 724T310 665Q310 638 310 611T312 557H754V467H321Q330 377 352 307T415 189T519 117T673 92Q703 92 743 98T826 113T910 134T986 158L1014 73Q970 55 923 40T828 14T737 -2T653 -8Q540 -8 461 20T328 107T245 255T200 467H41V557H193Q191
587 191 611T191 659Q191 683 192 714T195 779H41V869H205V869Z" />
<glyph unicode="&#x2122;" glyph-name="trademark" horiz-adv-x="1269" d="M1115 805L1044 1288L900 805H777L650 1288L593 805H496L588 1380H723L845 904L989 1380H1120L1216 805H1115ZM280 1297V805H183V1297H18V1380H446V1297H280Z" />
<glyph unicode="&#x2126;" glyph-name="Omega" horiz-adv-x="1332" d="M744 92Q826 118 884 174T981 313T1036 503T1054 740Q1054 886 1032 990T961 1162T841 1260T668 1291Q559 1291 486 1253T367 1142T302 968T282 738Q282 611 299 504T355 313T452 173T596
94V0H152V95H416Q350 134 303 193T224 331T179 511T165 734Q165 902 200 1025T300 1228T458 1348T667 1388H679Q792 1388 882 1353T1037 1240T1137 1041T1172 743Q1172 614 1154 512T1100 329T1014 191T898 95H1182V0H744V92V92Z" />
<glyph unicode="&#x2153;" glyph-name="onethird" horiz-adv-x="1354" d="M236 1280L74 1212L55 1294L250 1380H340V711H236V1280ZM252 0H143L953 1380H1063L252 0ZM993 -6Q935 -6 880 11T781 56L812 115Q857 97 903 87T1003 76Q1046 76 1074 84T1119 108T1142
143T1148 187Q1148 208 1140 228T1107 263T1035 287T914 292V373Q978 371 1020 377T1087 399T1122 437T1133 489Q1133 536 1101 568T1003 600Q979 600 958 596T917 583T874 564T826 539L792 601Q835 633 893 655T1018 678Q1076 678 1118 664T1186 625T1225 567T1238
496Q1238 444 1209 402T1116 344Q1174 334 1211 293T1249 193Q1249 96 1185 45T993 -6Z" />
<glyph unicode="&#x2154;" glyph-name="twothirds" horiz-adv-x="1542" d="M87 1305Q136 1342 194 1365T318 1388Q377 1388 419 1373T489 1333T529 1274T542 1202Q542 1164 534 1130T508 1063T459 998T383 931L213 799H566V712H73V786L306 977Q347 1010 372 1038T410
1091T427 1142T431 1194Q431 1242 400 1273T304 1305Q259 1305 214 1287T120 1240L87 1305V1305ZM440 0H331L1141 1380H1251L440 0ZM1181 -6Q1123 -6 1068 11T969 56L1000 115Q1045 97 1091 87T1191 76Q1234 76 1262 84T1307 108T1330 143T1336 187Q1336 208 1328
228T1295 263T1223 287T1102 292V373Q1166 371 1208 377T1275 399T1310 437T1321 489Q1321 536 1289 568T1191 600Q1167 600 1146 596T1105 583T1062 564T1014 539L980 601Q1023 633 1081 655T1206 678Q1264 678 1306 664T1374 625T1413 567T1426 496Q1426 444
1397 402T1304 344Q1362 334 1399 293T1437 193Q1437 96 1373 45T1181 -6Z" />
<glyph unicode="&#x215b;" glyph-name="oneeighth" horiz-adv-x="1356" d="M236 1280L74 1212L55 1294L250 1380H340V711H236V1280ZM252 0H143L953 1380H1063L252 0ZM1014 308Q988 294 964 280T919 249T887 211T875 162Q875 119 909 96T1018 72Q1089 72 1124 96T1159
158Q1159 186 1147 207T1114 247T1068 279T1014 308ZM1106 353Q1135 338 1163 320T1213 280T1248 228T1262 162Q1262 127 1248 97T1203 44T1125 8T1012 -5Q883 -5 827 38T770 154Q770 188 783 216T819 267T869 310T928 347Q902 362 877 378T833 416T803 463T791
521Q791 590 847 634T1020 679Q1136 679 1188 640T1241 533Q1241 501 1230 475T1199 427T1156 387T1106 353ZM1016 390Q1041 404 1064 417T1104 447T1131 481T1141 523Q1141 601 1014 601Q952 601 922 580T891 527Q891 503 901 484T928 449T967 418T1016 390Z"
/>
<glyph unicode="&#x215c;" glyph-name="threeeighths" horiz-adv-x="1464" d="M282 704Q224 704 169 721T70 766L101 825Q146 807 192 797T292 786Q335 786 363 794T408 818T431 853T437 897Q437 918 429 938T396 973T324 997T203 1002V1083Q267 1081 309 1087T376
1109T411 1147T422 1199Q422 1246 390 1278T292 1310Q268 1310 247 1306T206 1293T163 1274T115 1249L81 1311Q124 1343 182 1365T307 1388Q365 1388 407 1374T475 1335T514 1277T527 1206Q527 1154 498 1112T405 1054Q463 1044 500 1003T538 903Q538 806 474 755T282
704ZM360 0H251L1061 1380H1171L360 0ZM1120 308Q1094 294 1070 280T1025 249T993 211T981 162Q981 119 1015 96T1124 72Q1195 72 1230 96T1265 158Q1265 186 1253 207T1220 247T1174 279T1120 308ZM1212 353Q1241 338 1269 320T1319 280T1354 228T1368 162Q1368
127 1354 97T1309 44T1231 8T1118 -5Q989 -5 933 38T876 154Q876 188 889 216T925 267T975 310T1034 347Q1008 362 983 378T939 416T909 463T897 521Q897 590 953 634T1126 679Q1242 679 1294 640T1347 533Q1347 501 1336 475T1305 427T1262 387T1212 353ZM1122
390Q1147 404 1170 417T1210 447T1237 481T1247 523Q1247 601 1120 601Q1058 601 1028 580T997 527Q997 503 1007 484T1034 449T1073 418T1122 390Z" />
<glyph unicode="&#x215d;" glyph-name="fiveeighths" horiz-adv-x="1470" d="M100 823Q121 815 144 808T190 796T234 789T274 786Q362 786 400 816T438 915Q438 949 430 972T399 1008T337 1028T236 1034Q207 1034 179 1032T123 1026L162 1380H500L494 1292H240L221
1114Q230 1114 240 1115Q248 1115 258 1115T279 1116Q369 1116 422 1102T502 1063T538 1001T547 922Q547 862 528 821T474 754T390 717T281 705Q218 705 166 718T74 754L100 823ZM367 0H258L1068 1380H1178L367 0ZM1126 308Q1100 294 1076 280T1031 249T999 211T987
162Q987 119 1021 96T1130 72Q1201 72 1236 96T1271 158Q1271 186 1259 207T1226 247T1180 279T1126 308ZM1218 353Q1247 338 1275 320T1325 280T1360 228T1374 162Q1374 127 1360 97T1315 44T1237 8T1124 -5Q995 -5 939 38T882 154Q882 188 895 216T931 267T981
310T1040 347Q1014 362 989 378T945 416T915 463T903 521Q903 590 959 634T1132 679Q1248 679 1300 640T1353 533Q1353 501 1342 475T1311 427T1268 387T1218 353ZM1128 390Q1153 404 1176 417T1216 447T1243 481T1253 523Q1253 601 1126 601Q1064 601 1034 580T1003
527Q1003 503 1013 484T1040 449T1079 418T1128 390Z" />
<glyph unicode="&#x215e;" glyph-name="seveneighths" horiz-adv-x="1296" d="M127 711L410 1292H80V1380H514V1303L242 711H127ZM192 0H83L893 1380H1003L192 0ZM952 308Q926 294 902 280T857 249T825 211T813 162Q813 119 847 96T956 72Q1027 72 1062 96T1097
158Q1097 186 1085 207T1052 247T1006 279T952 308ZM1044 353Q1073 338 1101 320T1151 280T1186 228T1200 162Q1200 127 1186 97T1141 44T1063 8T950 -5Q821 -5 765 38T708 154Q708 188 721 216T757 267T807 310T866 347Q840 362 815 378T771 416T741 463T729 521Q729
590 785 634T958 679Q1074 679 1126 640T1179 533Q1179 501 1168 475T1137 427T1094 387T1044 353ZM954 390Q979 404 1002 417T1042 447T1069 481T1079 523Q1079 601 952 601Q890 601 860 580T829 527Q829 503 839 484T866 449T905 418T954 390Z" />
<glyph unicode="&#x2190;" glyph-name="arrowleft" horiz-adv-x="1802" d="M376 475L945 -93L874 -164L99 610L874 1384L945 1314L376 746L283 660H1670V561H283L376 475Z" />
<glyph unicode="&#x2191;" glyph-name="arrowup" horiz-adv-x="1704" d="M717 1197L148 629L78 699L852 1473L1626 699L1556 629L987 1197L902 1289V-97H802V1289L717 1197Z" />
<glyph unicode="&#x2192;" glyph-name="arrowright" horiz-adv-x="1802" d="M1426 746L857 1314L929 1384L1703 610L929 -164L857 -93L1426 475L1519 561H132V660H1519L1426 746Z" />
<glyph unicode="&#x2193;" glyph-name="arrowdown" horiz-adv-x="1704" d="M987 125L1556 694L1626 623L852 -151L78 623L148 694L717 125L802 33V1419H902V33L987 125Z" />
<glyph unicode="&#x2202;" glyph-name="partialdiff" horiz-adv-x="1053" d="M430 -8Q353 -8 297 18T204 92T151 208T134 363Q134 441 146 522T183 680T242 824T323 942T426 1021T550 1050H555Q580 1050 610 1041T671 1015T733 974T791 920Q779 999 756 1070T695
1204T604 1324T478 1433L570 1496Q742 1369 826 1186T910 766Q910 709 904 630T879 464T828 294T742 142T614 34T436 -8H430ZM800 786Q767 825 735 856T671 908T612 940T561 952Q516 952 475 929T399 864T336 766T287 645T256 510T245 371Q245 312 255 262T290
173T353 113T448 91Q529 91 586 130T682 233T744 375T779 531T796 675T800 782V786Z" />
<glyph unicode="&#x2206;" glyph-name="Delta" horiz-adv-x="1049" d="M44 0L451 1380H600L1005 0H44ZM520 1262L186 98H857L520 1262Z" />
<glyph unicode="&#x220f;" glyph-name="product" horiz-adv-x="1212" d="M174 0V1380H1037V0H921V1282H290V0H174Z" />
<glyph unicode="&#x2211;" glyph-name="summation" horiz-adv-x="958" d="M95 0V92L511 693L114 1292V1380H814V1282H256L643 702L226 101H835V0H95Z" />
<glyph unicode="&#x2212;" glyph-name="minus" horiz-adv-x="1126" d="M121 563V657H1006V563H121Z" />
<glyph unicode="&#x2215;" glyph-name="fraction" horiz-adv-x="530" d="M-84 0H-193L617 1380H727L-84 0Z" />
<glyph unicode="&#x2219;" glyph-name="periodcentered" horiz-adv-x="335" d="M99 518V701H236V518H99Z" />
<glyph unicode="&#x221a;" glyph-name="radical" horiz-adv-x="1133" d="M675 0H532L248 948H36V1042H344L608 118H610L1017 1561H1143L675 0Z" />
<glyph unicode="&#x221e;" glyph-name="infinity" horiz-adv-x="1666" d="M906 613Q947 569 989 528T1073 456T1157 406T1243 387Q1294 387 1335 403T1406 447T1452 516T1468 605Q1468 709 1408 768T1236 828Q1191 828 1148 810T1064 763T984 694T906 613ZM841
689Q883 735 929 777T1026 851T1131 903T1246 922Q1319 922 1380 901T1485 841T1554 744T1579 613Q1579 539 1553 480T1480 378T1371 314T1236 292Q1179 292 1124 311T1018 363T920 438T829 528Q787 481 740 439T643 364T539 312T426 292Q353 292 292 312T186 372T117
469T92 601Q92 676 119 735T192 835T301 899T435 922Q494 922 549 902T655 850T752 776T841 689ZM765 601Q725 645 684 685T600 757T515 808T428 828Q377 828 336 812T264 767T219 698T203 609Q203 506 263 447T436 387Q479 387 522 404T606 451T687 519T765 601Z"
/>
<glyph unicode="&#x222b;" glyph-name="integral'" horiz-adv-x="619" d="M233 1362Q233 1500 288 1571T460 1643Q485 1643 508 1642T555 1636L545 1545Q532 1547 508 1548T463 1549Q404 1549 374 1501T344 1366V-114Q344 -252 288 -324T117 -396Q67 -396 22 -389L32
-298Q44 -300 68 -301T114 -302Q174 -302 203 -253T233 -119V1362Z" />
<glyph unicode="&#x2248;" glyph-name="approxequal" horiz-adv-x="1126" d="M995 435Q976 408 951 384T894 343T828 315T754 304Q709 304 673 313T607 335T550 365T495 394T435 417T366 426Q321 426 275 399T187 334L136 392Q155 419 180 443T237 484T304 512T376
523Q422 523 458 514T524 492T581 463T636 434T696 411T765 401Q810 401 857 428T944 493L995 435ZM995 828Q976 802 951 778T894 737T828 709T754 699Q709 699 673 708T607 730T550 759T495 788T435 811T366 820Q321 820 275 794T187 727L136 786Q155 813 180
837T237 878T304 906T376 917Q422 917 458 908T524 886T581 857T636 828T696 805T765 795Q810 795 857 822T944 888L995 828Z" />
<glyph unicode="&#x2260;" glyph-name="notequal" horiz-adv-x="1126" d="M508 349L360 0H252L400 349H118V444H439L572 757H118V851H611L766 1217H874L720 851H1009V757H681L547 444H1009V349H508Z" />
<glyph unicode="&#x2264;" glyph-name="lessequal" horiz-adv-x="1126" d="M150 729V813L950 1267V1155L266 774L950 388V274L150 729ZM150 0V95H950V0H150Z" />
<glyph unicode="&#x2265;" glyph-name="greaterequal" horiz-adv-x="1126" d="M176 274V386L861 768L176 1153V1267L977 813V729L176 274ZM176 0V95H977V0H176Z" />
<glyph unicode="&#x25ca;" glyph-name="lozenge" horiz-adv-x="1058" d="M582 0H461L69 688L464 1380H585L978 692L582 0ZM521 1273L188 692L524 107L858 688L521 1273Z" />
<glyph unicode="&#xe080;" glyph-name="f_b" horiz-adv-x="1529" d="M1419 524Q1419 397 1394 298T1325 131T1221 28T1089 -8Q1061 -8 1031 0T966 26T891 74T801 150L786 0H697V1388Q679 1391 656 1393T608 1398T559 1401T513 1402Q445 1402 402 1389T333 1347T298
1278T288 1183V1042H492V950H288V0H177V950H0V1042H177V1191Q177 1342 264 1419T520 1496Q540 1496 564 1495T614 1492T663 1487T705 1482L809 1496V899Q859 942 900 971T977 1018T1047 1043T1115 1051Q1187 1051 1243 1013T1338 904T1398 737T1419 524ZM1307 520Q1307
613 1293 692T1250 829T1181 918T1088 951Q1036 951 967 913T809 791V254Q896 171 962 131T1077 91Q1126 91 1168 123T1241 212T1290 347T1307 520Z" />
<glyph unicode="&#xe081;" glyph-name="f_h" horiz-adv-x="1552" d="M1279 0V650Q1279 708 1269 762T1237 859T1180 926T1096 951Q1037 951 967 913T809 791V0H697V1388Q679 1391 656 1393T608 1398T559 1401T513 1402Q445 1402 402 1389T333 1347T298 1278T288
1183V1042H492V950H288V0H177V950H0V1042H177V1191Q177 1342 264 1419T520 1496Q540 1496 564 1495T614 1492T663 1487T705 1482L809 1496V899Q860 943 901 972T980 1018T1052 1043T1125 1051Q1186 1051 1235 1025T1318 950T1372 833T1391 683V0H1279Z" />
<glyph unicode="&#xe082;" glyph-name="f_j" horiz-adv-x="972" d="M697 1304V1475H809V1304H697ZM809 59Q809 -25 802 -90T778 -210T736 -309T677 -396L600 -346Q653 -267 675 -174T697 21V950H288V0H177V950H0V1042H177V1195Q177 1343 241 1419T439 1496Q478
1496 507 1493T556 1484L547 1394Q527 1397 496 1399T440 1402Q358 1402 323 1349T288 1199V1042H809V59Z" />
<glyph unicode="&#xe083;" glyph-name="f_k" horiz-adv-x="1370" d="M1215 0L812 565H809V0H697V1388Q679 1391 656 1393T608 1398T559 1401T513 1402Q445 1402 402 1389T333 1347T298 1278T288 1183V1042H492V950H288V0H177V950H0V1042H177V1191Q177 1342 264
1419T520 1496Q540 1496 564 1495T614 1492T663 1487T705 1482L809 1496V580H812L1162 1042H1300L934 580L1360 0H1215Z" />
<glyph unicode="&#xe084;" glyph-name="f_f" horiz-adv-x="1070" d="M1083 1394Q1062 1397 1030 1399T975 1402Q893 1402 858 1349T822 1199V1042H1046V950H822V0H711V950H288V0H177V950H0V1042H177V1195Q177 1344 241 1420T440 1496Q479 1496 508 1493T560 1483L549
1394Q528 1397 497 1399T441 1402Q359 1402 324 1349T288 1199V1042H711V1195Q711 1344 775 1420T974 1496Q1013 1496 1042 1493T1094 1483L1083 1394Z" />
<glyph unicode="&#xe085;" glyph-name="f_i" horiz-adv-x="973" d="M697 1304V1475H809V1304H697ZM697 0V950H288V0H177V950H0V1042H177V1195Q177 1343 241 1419T439 1496Q478 1496 507 1493T556 1484L547 1394Q527 1397 496 1399T440 1402Q358 1402 323 1349T288
1199V1042H809V0H697Z" />
<glyph unicode="&#xe086;" glyph-name="f_l" horiz-adv-x="973" d="M697 0V1388Q679 1391 656 1393T608 1398T559 1401T513 1402Q445 1402 402 1389T333 1347T298 1278T288 1183V1042H492V950H288V0H177V950H0V1042H177V1191Q177 1342 264 1419T520 1496Q540 1496
565 1495T615 1492T664 1487T707 1482L809 1496V0H697Z" />
<glyph unicode="&#xe087;" glyph-name="f_f_i" horiz-adv-x="1505" d="M1231 1305V1475H1343V1305H1231ZM1231 0V950H821V0H711V950H289V0H176V950H0V1042H176V1194Q176 1344 241 1420T440 1497Q479 1497 508 1493T561 1483L549 1395Q539 1396 526 1397T497 1400T467
1402T440 1403Q359 1403 324 1350T289 1200V1042H711V1194Q711 1344 775 1420T973 1497Q1011 1497 1040 1493T1090 1483L1081 1395Q1061 1398 1030 1400T973 1403Q891 1403 856 1350T821 1200V1042H1343V0H1231Z" />
<glyph unicode="&#xe088;" glyph-name="f_f_l" horiz-adv-x="1506" d="M1232 0V1388Q1213 1391 1190 1393T1142 1398T1092 1401T1046 1402Q978 1402 935 1389T866 1347T832 1278T822 1183V1042H1027V950H822V0H711V950H288V0H177V950H0V1042H177V1195Q177 1344
241 1420T440 1496Q479 1496 508 1493T560 1483L549 1394Q528 1397 497 1399T441 1402Q359 1402 324 1349T288 1199V1042H711V1191Q711 1342 798 1419T1054 1496Q1074 1496 1099 1495T1149 1492T1198 1487T1241 1482L1343 1496V0H1232Z" />
<glyph unicode="&#xe08a;" glyph-name="s_t" horiz-adv-x="1313" d="M1250 19Q1214 8 1171 0T1086 -8Q1041 -8 1006 2T945 38T906 107T892 215V950H718V1042H892V1187Q892 1235 879 1274T841 1341T777 1385T688 1400Q638 1400 601 1385T538 1343T500 1277T486
1194Q486 1126 513 1075T597 989L561 905Q522 924 470 940T363 956Q322 956 291 945T239 913T208 866T197 806Q197 776 205 750T234 698T292 644T386 584Q458 543 505 504T580 425T619 346T631 262Q631 199 610 149T550 64T456 11T329 -8Q255 -8 196 10T81 58L121
148Q178 117 228 103T330 89Q381 89 416 102T473 137T506 189T517 253Q517 284 509 312T479 368T418 426T318 494Q251 534 206 569T135 641T98 715T86 798Q86 856 107 903T165 982T252 1033T363 1051Q386 1051 408 1049T451 1040Q420 1055 400 1095T380 1202Q380
1266 401 1319T463 1412T563 1473T696 1495Q767 1495 824 1475T921 1416T982 1323T1003 1198V1042H1249V950H1003V236Q1003 195 1009 168T1028 123T1065 98T1123 90Q1147 90 1174 93T1238 102L1250 19V19Z" />
<glyph unicode="&#xe090;" glyph-name="zero.LinTab" horiz-adv-x="1065" d="M541 -8Q454 -8 389 19T277 96T200 211T151 355T126 518T119 690Q119 777 127 863T155 1026T208 1170T290 1285T407 1361T563 1389Q650 1389 715 1362T828 1285T906 1170T955 1026T980
863T987 690Q987 603 979 518T951 355T898 211T815 96T698 20T541 -8ZM553 90Q647 90 708 139T805 270T855 461T870 690Q870 770 864 845T844 987T807 1110T748 1206T665 1268T553 1290Q491 1290 443 1268T360 1206T301 1110T263 988T242 846T236 690Q236 570 250
462T299 271T396 139T553 90Z" />
<glyph unicode="&#xe091;" glyph-name="one.LinTab" horiz-adv-x="1065" d="M213 0V98H553V1260L158 1077L133 1169L565 1380H670V98H977V0H213Z" />
<glyph unicode="&#xe092;" glyph-name="two.LinTab" horiz-adv-x="1065" d="M102 0V88L508 510Q577 581 626 646T706 772T753 892T768 1008Q768 1068 752 1119T702 1209T614 1268T487 1290Q413 1290 332 1262T154 1182L117 1262Q214 1322 311 1355T508 1389Q600
1389 671 1362T790 1287T862 1173T887 1026Q887 954 871 887T821 754T735 619T610 475L246 100H961V0H102Z" />
<glyph unicode="&#xe093;" glyph-name="three.LinTab" horiz-adv-x="1065" d="M113 170Q196 136 287 113T483 90Q577 90 640 114T741 177T795 266T811 367Q811 431 795 484T734 575T611 634T410 655H244V752H414Q486 752 549 761T661 800T736 884T764 1030Q764
1084 752 1131T710 1214T627 1269T494 1290Q446 1290 400 1282T310 1261T226 1231T147 1196L109 1274Q155 1298 204 1319T305 1355T408 1380T512 1389Q612 1389 682 1363T797 1290T861 1180T881 1044Q881 983 866 928T822 828T749 752T649 709Q719 700 772 673T860
603T914 503T932 379Q932 298 905 228T821 105T679 22T477 -8Q414 -8 358 0T251 22T157 52T78 86L113 170Z" />
<glyph unicode="&#xe094;" glyph-name="four.LinTab" horiz-adv-x="1065" d="M686 0V295H45V381L629 1380H799V395H1024V295H799V0H686ZM686 1098V1286H684L580 1106L164 395H686V1098Z" />
<glyph unicode="&#xe095;" glyph-name="five.LinTab" horiz-adv-x="1065" d="M113 168Q154 151 201 137T297 113T390 96T473 90Q570 90 637 108T747 164T808 263T827 408Q827 493 810 549T745 640T612 688T391 702Q331 702 278 699T174 690L240 1380H862L852 1278H330L287
797Q322 799 359 800T430 801Q547 801 630 788T771 751T864 693T917 617T942 525T948 420Q948 299 915 217T820 85T667 14T461 -8Q346 -8 249 17T80 78L113 168Z" />
<glyph unicode="&#xe096;" glyph-name="six.LinTab" horiz-adv-x="1065" d="M874 1264Q809 1276 749 1283T629 1290Q515 1290 442 1248T325 1131T264 958T246 745Q320 786 402 814T582 842Q693 842 765 813T879 733T937 612T954 461Q954 354 927 268T847 120T713
25T524 -8Q407 -8 331 33T210 157T149 360T131 643Q131 818 155 956T239 1191T397 1338T645 1389Q716 1389 782 1378T893 1352L874 1264ZM246 649Q246 495 261 389T309 216T398 120T535 90Q616 90 673 113T767 182T821 293T838 444Q838 505 829 559T789 655T701
720T549 745Q511 745 471 737T390 716T313 686T246 649Z" />
<glyph unicode="&#xe097;" glyph-name="seven.LinTab" horiz-adv-x="1065" d="M223 0L846 1278H102V1380H965V1292L352 0H223Z" />
<glyph unicode="&#xe098;" glyph-name="eight.LinTab" horiz-adv-x="1065" d="M836 305Q836 368 810 419T741 512T643 591T528 662Q470 628 416 592T321 515T254 425T229 315Q229 208 305 148T535 88Q611 88 667 104T761 149T817 217T836 305ZM950 315Q950 247
925 189T847 86T714 17T524 -8H516Q414 -8 339 13T214 75T140 173T115 303Q115 376 141 435T212 545T313 636T432 715Q378 746 328 783T240 866T179 968T156 1094Q156 1156 179 1210T250 1303T370 1366T541 1389H547Q638 1389 706 1369T819 1313T886 1224T909 1106Q909
1038 886 983T825 881T737 795T631 721Q692 687 749 648T851 561T923 452T950 315ZM797 1094Q797 1191 731 1241T530 1292Q464 1292 415 1278T333 1238T284 1178T268 1104Q268 1046 289 999T347 913T432 839T535 774Q587 805 634 839T718 911T775 995T797 1094Z"
/>
<glyph unicode="&#xe099;" glyph-name="nine.LinTab" horiz-adv-x="1065" d="M190 117Q255 104 316 97T436 90Q550 90 623 133T740 250T801 423T821 637Q784 618 745 600T664 568T577 546T483 537Q372 537 301 566T188 647T130 769T113 922Q113 1028 140 1114T220
1262T354 1356T541 1389Q659 1389 735 1348T856 1225T918 1021T936 737Q936 560 911 422T827 188T669 42T422 -8Q350 -8 284 2T172 29L190 117ZM821 731Q821 888 806 995T758 1167T669 1261T532 1290Q451 1290 393 1267T298 1198T244 1088T227 938Q227 877 236
822T277 726T364 660T516 635Q554 635 595 643T677 664T754 694T821 731Z" />
<glyph unicode="&#xe0a0;" glyph-name="circumflex.cap" horiz-adv-x="819" d="M178 1491L141 1548L410 1742L678 1550L639 1491L408 1629L178 1491Z" />
<glyph unicode="&#xe0a1;" glyph-name="ring.cap" horiz-adv-x="819" d="M611 1597Q611 1560 600 1529T564 1475T501 1437T410 1423Q354 1423 316 1434T253 1468T218 1523T207 1596Q207 1634 220 1665T257 1719T320 1755T414 1769Q515 1769 563 1727T611 1597ZM513
1597Q513 1617 508 1635T491 1665T459 1685T410 1694Q383 1694 363 1687T331 1666T312 1635T306 1596Q306 1576 311 1559T329 1528T361 1507T410 1499Q437 1499 457 1506T489 1527T507 1558T513 1597Z" />
<glyph unicode="&#xe0a2;" glyph-name="tilde.cap" horiz-adv-x="819" d="M548 1500Q513 1500 486 1511T437 1540T396 1577T360 1614T324 1642T284 1654Q234 1654 212 1619T189 1512H114Q107 1563 116 1605T148 1678T204 1725T283 1742Q318 1742 345 1731T394
1703T434 1666T471 1629T507 1601T547 1589Q597 1589 619 1624T641 1731H717Q724 1680 715 1638T683 1565T626 1517T548 1500Z" />
<glyph unicode="&#xe0a3;" glyph-name="breve.cap" horiz-adv-x="819" d="M640 1735Q642 1684 629 1640T586 1564T512 1514T408 1495Q348 1495 304 1512T231 1560T189 1636T178 1735H264Q264 1695 274 1667T302 1619T348 1592T410 1583Q483 1583 518 1624T554
1735H640V1735Z" />
<glyph unicode="&#xe0a4;" glyph-name="dotaccent.cap" horiz-adv-x="437" d="M162 1529V1700H275V1529H162Z" />
<glyph unicode="&#xe0a5;" glyph-name="dieresis.narrow" horiz-adv-x="799" d="M516 1308V1469H624V1308H516ZM174 1308V1469H282V1308H174Z" />
<glyph unicode="&#xe0a9;" glyph-name="tilde.narrow" horiz-adv-x="770" d="M668 1470Q675 1419 667 1377T638 1304T584 1256T508 1239Q474 1239 449 1250T405 1278T370 1315T339 1351T307 1379T268 1391Q222 1391 205 1357T188 1249H115Q107 1300 114 1343T143
1416T197 1464T274 1481Q308 1481 333 1470T377 1442T411 1405T442 1369T473 1341T512 1329Q559 1329 575 1363T592 1470H668Z" />
<glyph unicode="&#xe0ae;" glyph-name="uni0315.cap" horiz-adv-x="437" d="M178 1226H98L213 1575H337L178 1226Z" />
<glyph unicode="&#xebe0;" glyph-name="zero.OnumTab" horiz-adv-x="1065" d="M959 604Q959 528 950 454T921 311T867 184T785 84T671 17T520 -8Q437 -8 375 16T266 84T189 185T140 311T114 453T106 604Q106 680 115 755T144 898T198 1024T280 1125T394 1192T543
1216Q626 1216 689 1192T798 1125T875 1024T924 898T951 755T959 604ZM842 604Q842 706 827 799T776 964T681 1076T532 1118Q444 1118 386 1077T291 964T239 800T223 604Q223 501 238 408T289 245T384 133T532 91Q620 91 679 132T774 245T826 409T842 604Z" />
<glyph unicode="&#xebe1;" glyph-name="one.OnumTab" horiz-adv-x="1065" d="M977 99V0H212V99H553V1089L157 907L132 998L565 1210H670V99H977Z" />
<glyph unicode="&#xebe2;" glyph-name="two.OnumTab" horiz-adv-x="1065" d="M103 0V89L491 441Q571 513 624 570T708 676T753 771T767 867Q767 921 752 967T703 1046T620 1098T499 1118Q421 1118 339 1090T156 1009L118 1090Q216 1149 315 1182T516 1216Q606
1216 675 1192T790 1125T861 1021T885 887Q885 822 872 768T827 659T739 544T598 407L253 101H961V0H103Z" />
<glyph unicode="&#xebe3;" glyph-name="three.OnumTab" horiz-adv-x="1065" d="M932 204Q932 118 904 43T820 -88T679 -176T479 -209Q417 -209 359 -200T248 -176T152 -145T75 -112L108 -26Q147 -43 191 -58T284 -85T383 -104T487 -111Q581 -111 643 -85T742 -17T794
80T810 190Q810 263 795 320T735 416T614 477T413 498H241V593H417Q489 593 552 601T663 638T737 721T764 864Q764 916 752 962T710 1044T628 1099T497 1119Q446 1119 398 1111T305 1089T219 1058T143 1023L107 1100Q149 1125 198 1146T300 1182T406 1207T514 1216Q614
1216 684 1190T797 1119T861 1012T881 877Q881 817 867 764T826 667T758 593T665 550Q733 541 784 514T868 443T916 339T932 204Z" />
<glyph unicode="&#xebe4;" glyph-name="four.OnumTab" horiz-adv-x="1065" d="M801 146V-201H685V146H43V234L627 1208H801V247H1024V146H801ZM685 1109H683L163 247H685V1109Z" />
<glyph unicode="&#xebe5;" glyph-name="five.OnumTab" horiz-adv-x="1065" d="M949 232Q949 109 915 25T818 -111T664 -186T459 -209Q344 -209 248 -184T75 -123L109 -32Q153 -49 201 -63T296 -88T389 -105T471 -111Q567 -111 635 -92T745 -33T808 70T828 220Q828
308 811 367T745 461T610 512T389 527Q358 527 331 526T279 523T228 519T171 514L235 1208H860L851 1105H324L282 621Q433 629 541 621T723 590T841 532T910 450T941 349T949 232Z" />
<glyph unicode="&#xebe6;" glyph-name="six.OnumTab" horiz-adv-x="1065" d="M954 455Q954 348 927 263T845 117T711 25T524 -8Q407 -8 331 32T210 152T148 351T130 630Q130 810 155 951T239 1189T398 1337T644 1388Q716 1388 782 1377T894 1351L875 1263Q810
1275 750 1283T629 1291Q516 1291 442 1248T325 1130T263 955T245 739V733Q283 752 322 769T402 801T489 823T582 832Q693 832 765 803T879 724T937 605T954 455ZM838 438Q838 498 829 552T789 646T701 711T549 735Q512 735 471 727T390 706T313 674T246 637Q246
482 261 378T310 209T399 118T534 90Q614 90 672 112T767 179T821 288T838 438Z" />
<glyph unicode="&#xebe7;" glyph-name="seven.OnumTab" horiz-adv-x="1065" d="M356 -201H229L845 1105H103V1208H965V1120L356 -201Z" />
<glyph unicode="&#xebe8;" glyph-name="eight.OnumTab" horiz-adv-x="1065" d="M836 306Q836 369 810 419T740 512T642 591T528 664Q470 629 417 593T322 516T255 425T229 315Q229 208 305 148T535 88Q610 88 666 104T760 150T817 219T836 306ZM951 315Q951 249
926 190T847 87T714 18T524 -8H516Q415 -8 340 14T214 76T139 174T114 303Q114 377 141 436T212 546T314 637T433 716Q378 749 328 786T239 869T179 970T156 1095Q156 1157 179 1210T251 1303T371 1365T541 1388H547Q637 1388 705 1369T819 1313T886 1224T909 1108Q909
1040 886 985T824 884T734 799T628 725Q689 690 747 651T850 563T923 454T951 315ZM797 1095Q797 1192 730 1242T530 1293Q465 1293 416 1279T334 1240T284 1181T267 1105Q267 1046 289 1000T348 914T434 842T537 777Q588 809 635 842T718 913T775 996T797 1095Z"
/>
<glyph unicode="&#xebe9;" glyph-name="nine.OnumTab" horiz-adv-x="1065" d="M111 754Q111 860 138 945T219 1091T353 1183T540 1216Q657 1216 733 1176T855 1057T917 858T935 578Q935 456 924 351T889 158T825 2T729 -113T595 -184T420 -209Q383 -209 349 -206T282
-198T219 -185T162 -170L179 -82Q249 -96 312 -103T435 -111Q510 -111 567 -90T667 -31T739 61T786 179T811 317T820 470V476Q782 458 743 440T663 408T576 385T483 376Q372 376 300 405T186 484T128 604T111 754ZM226 770Q226 710 236 656T276 562T363 498T515
474Q553 474 594 482T675 503T752 534T820 572Q820 727 805 832T755 1000T666 1091T531 1119Q370 1119 298 1030T226 770Z" />
<glyph unicode="&#xec00;" glyph-name="a.alt" horiz-adv-x="994" d="M742 0L727 151Q674 104 631 74T551 25T481 0T414 -8Q342 -8 286 30T190 138T131 305T110 518Q110 644 135 743T204 911T308 1015T439 1051Q466 1051 496 1043T562 1017T638 969T727 893L743
1042H831V0H742ZM720 789Q632 872 566 911T451 951Q402 951 360 920T288 831T240 695T222 522Q222 429 236 350T279 214T348 124T440 91Q493 91 562 130T720 252V789Z" />
<glyph unicode="&#xec01;" glyph-name="aogonek.alt" horiz-adv-x="994" d="M720 789Q632 872 566 911T451 951Q402 951 360 920T288 831T240 695T222 522Q222 429 236 350T279 214T348 124T440 91Q493 91 562 130T720 252V789ZM958 -332Q920 -353 871 -367T769
-381Q683 -381 632 -343T581 -227Q581 -198 590 -169T618 -109T667 -47T740 18L727 151Q674 104 631 74T551 25T481 0T414 -8Q342 -8 286 30T190 138T131 305T110 518Q110 644 135 743T204 911T308 1015T439 1051Q466 1051 496 1043T562 1017T638 969T727 893L743
1042H831V0Q788 -34 760 -63T716 -119T694 -168T687 -211Q687 -247 709 -270T790 -293Q825 -293 864 -286T939 -263L958 -332Z" />
<glyph unicode="&#xec02;" glyph-name="agrave.alt" horiz-adv-x="994" d="M742 0L727 151Q674 104 631 74T551 25T481 0T414 -8Q342 -8 286 30T190 138T131 305T110 518Q110 644 135 743T204 911T308 1015T439 1051Q466 1051 496 1043T562 1017T638 969T727 893L743
1042H831V0H742ZM720 789Q632 872 566 911T451 951Q402 951 360 920T288 831T240 695T222 522Q222 429 236 350T279 214T348 124T440 91Q493 91 562 130T720 252V789ZM522 1174L257 1443L359 1497L596 1212L522 1174Z" />
<glyph unicode="&#xec03;" glyph-name="aacute.alt" horiz-adv-x="994" d="M742 0L727 151Q674 104 631 74T551 25T481 0T414 -8Q342 -8 286 30T190 138T131 305T110 518Q110 644 135 743T204 911T308 1015T439 1051Q466 1051 496 1043T562 1017T638 969T727 893L743
1042H831V0H742ZM720 789Q632 872 566 911T451 951Q402 951 360 920T288 831T240 695T222 522Q222 429 236 350T279 214T348 124T440 91Q493 91 562 130T720 252V789ZM528 1174L453 1212L690 1497L792 1443L528 1174Z" />
<glyph unicode="&#xec04;" glyph-name="acircumflex.alt" horiz-adv-x="994" d="M742 0L727 151Q674 104 631 74T551 25T481 0T414 -8Q342 -8 286 30T190 138T131 305T110 518Q110 644 135 743T204 911T308 1015T439 1051Q466 1051 496 1043T562 1017T638 969T727
893L743 1042H831V0H742ZM720 789Q632 872 566 911T451 951Q402 951 360 920T288 831T240 695T222 522Q222 429 236 350T279 214T348 124T440 91Q493 91 562 130T720 252V789ZM699 1174L506 1356L313 1174L262 1230L508 1497L753 1232L699 1174Z" />
<glyph unicode="&#xec05;" glyph-name="atilde.alt" horiz-adv-x="994" d="M742 0L727 151Q674 104 631 74T551 25T481 0T414 -8Q342 -8 286 30T190 138T131 305T110 518Q110 644 135 743T204 911T308 1015T439 1051Q466 1051 496 1043T562 1017T638 969T727 893L743
1042H831V0H742ZM720 789Q632 872 566 911T451 951Q402 951 360 920T288 831T240 695T222 522Q222 429 236 350T279 214T348 124T440 91Q493 91 562 130T720 252V789ZM803 1471Q810 1419 801 1377T769 1303T712 1255T634 1238Q599 1238 572 1249T523 1278T482 1315T446
1351T410 1379T370 1391Q320 1391 298 1357T275 1250H200Q193 1301 202 1344T234 1417T290 1465T369 1482Q404 1482 431 1471T480 1442T520 1405T557 1369T593 1341T633 1329Q683 1329 705 1364T727 1471H803V1471Z" />
<glyph unicode="&#xec06;" glyph-name="adieresis.alt" horiz-adv-x="994" d="M742 0L727 151Q674 104 631 74T551 25T481 0T414 -8Q342 -8 286 30T190 138T131 305T110 518Q110 644 135 743T204 911T308 1015T439 1051Q466 1051 496 1043T562 1017T638 969T727
893L743 1042H831V0H742ZM720 789Q632 872 566 911T451 951Q402 951 360 920T288 831T240 695T222 522Q222 429 236 350T279 214T348 124T440 91Q493 91 562 130T720 252V789ZM620 1308V1469H728V1308H620ZM257 1308V1469H365V1308H257Z" />
<glyph unicode="&#xec07;" glyph-name="amacron.alt" horiz-adv-x="994" d="M742 0L727 151Q674 104 631 74T551 25T481 0T414 -8Q342 -8 286 30T190 138T131 305T110 518Q110 644 135 743T204 911T308 1015T439 1051Q466 1051 496 1043T562 1017T638 969T727
893L743 1042H831V0H742ZM720 789Q632 872 566 911T451 951Q402 951 360 920T288 831T240 695T222 522Q222 429 236 350T279 214T348 124T440 91Q493 91 562 130T720 252V789ZM254 1287V1377H737V1287H254Z" />
<glyph unicode="&#xec08;" glyph-name="abreve.alt" horiz-adv-x="994" d="M742 0L727 151Q674 104 631 74T551 25T481 0T414 -8Q342 -8 286 30T190 138T131 305T110 518Q110 644 135 743T204 911T308 1015T439 1051Q466 1051 496 1043T562 1017T638 969T727 893L743
1042H831V0H742ZM720 789Q632 872 566 911T451 951Q402 951 360 920T288 831T240 695T222 522Q222 429 236 350T279 214T348 124T440 91Q493 91 562 130T720 252V789ZM728 1461Q731 1408 718 1363T677 1285T602 1234T494 1215Q432 1215 387 1232T313 1280T271 1358T262
1461H351Q351 1375 388 1339T496 1303Q535 1303 562 1315T606 1347T632 1397T640 1461H728V1461Z" />
<glyph unicode="&#xec09;" glyph-name="aring.alt" horiz-adv-x="994" d="M742 0L727 151Q674 104 631 74T551 25T481 0T414 -8Q342 -8 286 30T190 138T131 305T110 518Q110 644 135 743T204 911T308 1015T439 1051Q466 1051 496 1043T562 1017T638 969T727 893L743
1042H831V0H742ZM720 789Q632 872 566 911T451 951Q402 951 360 920T288 831T240 695T222 522Q222 429 236 350T279 214T348 124T440 91Q493 91 562 130T720 252V789ZM722 1359Q722 1314 710 1276T672 1209T605 1164T505 1148Q445 1148 403 1162T335 1202T298 1268T286
1357Q286 1403 298 1442T338 1509T407 1552T509 1568Q620 1568 671 1516T722 1359ZM628 1359Q628 1387 622 1411T602 1452T564 1480T505 1491Q471 1491 447 1481T409 1453T387 1411T380 1357Q380 1329 386 1305T407 1263T445 1235T505 1225Q538 1225 561 1235T600
1263T621 1305T628 1359Z" />
<glyph unicode="&#xec0c;" glyph-name="c_t" horiz-adv-x="1365" d="M1300 19Q1264 8 1221 0T1137 -8Q1092 -8 1056 2T995 38T956 107T942 215V950H790V1042H942V1190Q942 1238 931 1276T895 1342T836 1385T755 1400Q708 1400 673 1385T615 1344T579 1280T567
1198Q567 1129 593 1081T676 998L638 914Q610 928 571 941T483 954Q429 954 381 931T299 857T244 723T224 521Q224 399 245 317T301 185T383 114T479 92Q541 92 596 111T710 169L751 92Q688 43 615 18T461 -8Q418 -8 375 1T293 32T221 92T163 187T124 324T110 510Q110
650 137 752T213 920T331 1019T481 1051Q492 1051 503 1050T525 1047Q497 1062 479 1101T460 1205Q460 1268 480 1321T540 1413T635 1473T762 1495Q829 1495 883 1475T975 1418T1033 1326T1054 1201V1042H1299V950H1054V236Q1054 195 1059 168T1078 123T1115 98T1173
90Q1198 90 1225 93T1288 102L1300 19V19Z" />
<glyph unicode="&#xec0f;" glyph-name="f_f_b" horiz-adv-x="2062" d="M711 1042V1191Q711 1342 798 1419T1054 1496Q1074 1496 1098 1495T1148 1492T1197 1487T1240 1482L1343 1496V899Q1392 942 1433 971T1510 1018T1580 1043T1649 1051Q1721 1051 1777 1013T1872
904T1932 737T1953 524Q1953 397 1928 298T1859 131T1755 28T1623 -8Q1595 -8 1565 0T1500 26T1424 74T1335 150L1320 0H1232V1388Q1213 1391 1190 1393T1142 1398T1092 1401T1046 1402Q978 1402 935 1389T866 1347T832 1278T822 1183V1042H1027V950H822V0H711V950H288V0H177V950H0V1042H177V1195Q177
1344 241 1420T440 1496Q479 1496 508 1493T560 1483L549 1394Q528 1397 497 1399T441 1402Q359 1402 324 1349T288 1199V1042H711ZM1841 520Q1841 613 1827 692T1784 829T1715 918T1623 951Q1570 951 1501 913T1343 791V254Q1430 171 1496 131T1611 91Q1660 91
1702 123T1775 212T1823 347T1841 520Z" />
<glyph unicode="&#xec20;" glyph-name="f_f_h" horiz-adv-x="2086" d="M711 1042V1191Q711 1342 798 1419T1054 1496Q1074 1496 1098 1495T1148 1492T1197 1487T1240 1482L1343 1496V899Q1393 943 1434 972T1513 1018T1585 1043T1658 1051Q1719 1051 1768 1025T1853
950T1906 833T1925 683V0H1814V650Q1814 708 1804 762T1771 859T1713 926T1630 951Q1571 951 1501 913T1343 791V0H1232V1388Q1213 1391 1190 1393T1142 1398T1092 1401T1046 1402Q978 1402 935 1389T866 1347T832 1278T822 1183V1042H1027V950H822V0H711V950H288V0H177V950H0V1042H177V1195Q177
1344 241 1420T440 1496Q479 1496 508 1493T560 1483L549 1394Q528 1397 497 1399T441 1402Q359 1402 324 1349T288 1199V1042H711Z" />
<glyph unicode="&#xec22;" glyph-name="f_f_j" horiz-adv-x="1506" d="M1232 1304V1475H1343V1304H1232ZM711 1042V1195Q711 1343 775 1419T973 1496Q1011 1496 1040 1493T1090 1484L1080 1394Q1061 1397 1029 1399T974 1402Q892 1402 857 1349T822 1199V1042H1343V59Q1343
-25 1335 -90T1311 -210T1270 -309T1210 -396L1134 -346Q1188 -265 1210 -173T1232 21V950H822V0H711V950H288V0H177V950H0V1042H177V1195Q177 1344 241 1420T440 1496Q479 1496 508 1493T560 1483L549 1394Q528 1397 497 1399T441 1402Q359 1402 324 1349T288
1199V1042H711Z" />
<glyph unicode="&#xec23;" glyph-name="f_f_k" horiz-adv-x="1903" d="M711 1042V1191Q711 1342 798 1419T1054 1496Q1074 1496 1098 1495T1148 1492T1197 1487T1240 1482L1343 1496V580H1345L1696 1042H1833L1467 580L1894 0H1748L1345 565H1343V0H1232V1388Q1213
1391 1190 1393T1142 1398T1092 1401T1046 1402Q978 1402 935 1389T866 1347T832 1278T822 1183V1042H1027V950H822V0H711V950H288V0H177V950H0V1042H177V1195Q177 1344 241 1420T440 1496Q479 1496 508 1493T560 1483L549 1394Q528 1397 497 1399T441 1402Q359
1402 324 1349T288 1199V1042H711Z" />
<glyph unicode="&#xec32;" glyph-name="ij.alt" horiz-adv-x="1018" d="M162 1305V1475H274V1305H162ZM743 1305V1475H856V1305H743ZM440 -301Q533 -301 592 -278T684 -215T730 -122T743 -8V143Q692 99 650 70T571 23T500 -1T428 -8Q367 -8 318 18T235 93T181
210T162 360V1042H274V393Q274 335 284 281T317 184T374 116T457 90Q516 90 585 129T743 252V1042H856V6Q856 -89 832 -164T761 -291T642 -370T475 -397Q453 -397 428 -397T377 -395T327 -391T283 -387L270 -301H440Z" />
<glyph unicode="&#xec3c;" glyph-name="y.alt" horiz-adv-x="1018" d="M440 -301Q533 -301 592 -278T684 -215T730 -122T743 -8V143Q692 99 650 70T571 23T500 -1T428 -8Q367 -8 318 18T235 93T181 210T162 360V1042H274V393Q274 335 284 281T317 184T374 116T457
90Q516 90 585 129T743 252V1042H856V6Q856 -89 832 -164T761 -291T642 -370T475 -397Q453 -397 428 -397T377 -395T327 -391T283 -387L270 -301H440Z" />
<glyph unicode="&#xec3d;" glyph-name="yacute.alt" horiz-adv-x="1018" d="M440 -301Q533 -301 592 -278T684 -215T730 -122T743 -8V143Q692 99 650 70T571 23T500 -1T428 -8Q367 -8 318 18T235 93T181 210T162 360V1042H274V393Q274 335 284 281T317 184T374
116T457 90Q516 90 585 129T743 252V1042H856V6Q856 -89 832 -164T761 -291T642 -370T475 -397Q453 -397 428 -397T377 -395T327 -391T283 -387L270 -301H440ZM526 1174L451 1212L688 1497L790 1443L526 1174Z" />
<glyph unicode="&#xec3e;" glyph-name="ydieresis.alt" horiz-adv-x="1018" d="M440 -301Q533 -301 592 -278T684 -215T730 -122T743 -8V143Q692 99 650 70T571 23T500 -1T428 -8Q367 -8 318 18T235 93T181 210T162 360V1042H274V393Q274 335 284 281T317 184T374
116T457 90Q516 90 585 129T743 252V1042H856V6Q856 -89 832 -164T761 -291T642 -370T475 -397Q453 -397 428 -397T377 -395T327 -391T283 -387L270 -301H440ZM635 1308V1469H743V1308H635ZM272 1308V1469H380V1308H272Z" />
<glyph unicode="&#xec3f;" glyph-name="ygrave.alt" horiz-adv-x="1018" d="M440 -301Q533 -301 592 -278T684 -215T730 -122T743 -8V143Q692 99 650 70T571 23T500 -1T428 -8Q367 -8 318 18T235 93T181 210T162 360V1042H274V393Q274 335 284 281T317 184T374
116T457 90Q516 90 585 129T743 252V1042H856V6Q856 -89 832 -164T761 -291T642 -370T475 -397Q453 -397 428 -397T377 -395T327 -391T283 -387L270 -301H440ZM496 1174L231 1443L333 1497L570 1212L496 1174Z" />
<glyph unicode="&#xec40;" glyph-name="ycircumflex.alt" horiz-adv-x="1018" d="M440 -301Q533 -301 592 -278T684 -215T730 -122T743 -8V143Q692 99 650 70T571 23T500 -1T428 -8Q367 -8 318 18T235 93T181 210T162 360V1042H274V393Q274 335 284 281T317 184T374
116T457 90Q516 90 585 129T743 252V1042H856V6Q856 -89 832 -164T761 -291T642 -370T475 -397Q453 -397 428 -397T377 -395T327 -391T283 -387L270 -301H440ZM699 1174L506 1356L313 1174L262 1230L508 1497L753 1232L699 1174Z" />
<glyph unicode="&#xecb7;" glyph-name="hyphen.cap" horiz-adv-x="518" d="M78 584V685H458V584H78Z" />
<glyph unicode="&#xece1;" glyph-name="zero.lowTab" horiz-adv-x="1065" d="M987 666Q987 583 979 501T950 344T897 204T815 93T697 19T540 -8Q454 -8 389 19T277 93T200 205T151 344T126 501T119 666Q119 749 127 831T155 989T208 1128T291 1238T408 1312T563
1339Q650 1339 715 1312T827 1238T905 1127T954 988T979 831T987 666ZM870 666Q870 779 856 883T806 1067T709 1194T553 1241Q491 1241 443 1220T360 1160T301 1067T262 950T241 814T235 666Q235 591 241 519T261 382T299 265T358 172T441 112T553 91Q645 91 706
138T804 264T855 448T870 666Z" />
<glyph unicode="&#xece2;" glyph-name="one.lowTab" horiz-adv-x="1065" d="M977 99V0H212V99H553V1212L157 1030L132 1121L565 1333H670V99H977Z" />
<glyph unicode="&#xece3;" glyph-name="two.lowTab" horiz-adv-x="1065" d="M103 0V89L507 495Q578 565 627 628T708 751T754 867T768 978Q768 1036 752 1084T701 1167T613 1221T487 1240Q413 1240 332 1212T155 1132L117 1212Q213 1272 311 1305T508 1339Q599
1339 669 1315T788 1246T861 1138T886 996Q886 926 871 862T822 733T737 602T610 462L246 101H961V0H103Z" />
<glyph unicode="&#xece4;" glyph-name="three.lowTab" horiz-adv-x="1065" d="M932 368Q932 289 904 221T819 101T677 21T477 -8Q414 -8 358 0T251 22T157 52T77 85L112 171Q196 135 287 113T483 90Q577 90 640 113T740 174T794 258T810 354Q810 417 794 468T733
556T610 612T410 632H245V727H414Q486 727 550 735T661 771T736 852T764 994Q764 1045 752 1090T709 1169T626 1222T494 1242Q445 1242 399 1234T310 1212T226 1182T147 1147L109 1225Q201 1274 304 1306T512 1339Q612 1339 682 1314T797 1245T861 1139T881 1007Q881
947 866 894T821 798T748 726T650 684Q719 675 772 650T860 583T914 488T932 368Z" />
<glyph unicode="&#xece5;" glyph-name="four.lowTab" horiz-adv-x="1065" d="M801 274V0H685V274H45V361L627 1331H801V375H1024V274H801ZM685 1231H683L165 375H685V1231Z" />
<glyph unicode="&#xece6;" glyph-name="five.lowTab" horiz-adv-x="1065" d="M949 408Q949 289 916 210T820 82T667 13T462 -8Q405 -8 352 -1T249 17T158 44T79 78L113 169Q154 151 201 137T297 112T391 96T473 90Q570 90 637 107T747 161T809 255T828 395Q828
478 811 532T746 619T613 665T391 679Q330 679 277 675T175 666L238 1331H862L853 1229H327L286 773Q436 781 543 774T725 745T843 691T910 615T941 519T949 408Z" />
<glyph unicode="&#xece7;" glyph-name="six.lowTab" horiz-adv-x="1065" d="M954 446Q954 342 927 258T845 115T711 24T524 -8Q407 -8 331 31T210 149T148 344T130 618Q130 788 155 922T239 1148T398 1290T644 1339Q716 1339 782 1328T894 1303L875 1214Q810 1226
750 1234T629 1242Q516 1242 442 1201T325 1089T263 924T245 723V721Q283 739 322 756T402 788T489 810T582 818Q693 818 765 790T879 712T937 594T954 446ZM838 430Q838 489 829 541T789 634T701 697T549 720Q512 720 471 713T390 692T313 662T246 624Q246 475
261 373T310 207T399 117T534 90Q614 90 672 112T767 178T821 284T838 430Z" />
<glyph unicode="&#xece8;" glyph-name="seven.lowTab" horiz-adv-x="1065" d="M372 0H245L845 1229H103V1331H965V1243L372 0Z" />
<glyph unicode="&#xecea;" glyph-name="eight.lowTab" horiz-adv-x="1065" d="M835 293Q835 354 810 403T741 492T643 567T528 637Q470 604 417 570T322 495T255 408T230 302Q230 199 306 144T535 88Q610 88 666 103T760 145T816 210T835 293ZM950 302Q950 237
925 181T847 82T714 16T524 -8H516Q415 -8 340 12T214 71T140 165T115 290Q115 362 141 419T212 525T313 612T431 690Q377 722 328 758T240 837T179 935T156 1056Q156 1116 180 1168T251 1258T371 1317T541 1339H547Q637 1339 705 1321T818 1267T886 1181T909 1069Q909
1003 887 950T826 851T737 768T631 696Q692 662 749 625T852 541T923 436T950 302ZM797 1056Q797 1148 730 1196T530 1244Q465 1244 416 1231T334 1194T285 1137T268 1066Q268 1010 289 966T347 883T433 813T535 750Q587 781 634 813T718 882T775 962T797 1056Z"
/>
<glyph unicode="&#xeceb;" glyph-name="nine.lowTab" horiz-adv-x="1065" d="M112 885Q112 989 139 1073T221 1216T355 1307T542 1339Q659 1339 735 1300T856 1183T919 987T937 713Q937 543 912 409T827 183T668 41T421 -8Q349 -8 283 3T171 29L190 117Q255 105
316 98T437 90Q512 90 569 109T669 162T740 243T787 349T812 472T821 610V612Q784 593 745 575T664 544T578 522T484 513Q373 513 301 541T187 619T129 737T112 885ZM227 901Q227 842 237 790T277 697T365 634T517 611Q555 611 596 618T677 639T754 670T821 708Q821
857 806 959T757 1124T668 1214T533 1242Q371 1242 299 1154T227 901Z" />
<glyph unicode="&#xed23;" glyph-name="onefifth" horiz-adv-x="1321" d="M236 1280L74 1212L55 1294L250 1380H340V711H236V1280ZM252 0H143L953 1380H1063L252 0ZM780 113Q801 105 824 98T870 86T914 79T954 76Q1042 76 1080 106T1118 205Q1118 239 1110 262T1079
298T1017 318T916 324Q887 324 859 322T803 316L842 670H1180L1174 582H920L901 404Q910 404 920 405Q928 405 938 405T959 406Q1049 406 1102 392T1182 353T1218 291T1227 212Q1227 152 1208 111T1154 44T1070 7T961 -5Q898 -5 846 8T754 44L780 113Z" />
<glyph unicode="&#xed24;" glyph-name="onesixth" horiz-adv-x="1335" d="M236 1280L74 1212L55 1294L250 1380H340V711H236V1280ZM252 0H143L953 1380H1063L252 0ZM1187 584Q1152 592 1118 596T1050 601Q994 601 958 584T900 536T871 464T862 377Q896 396 938
408T1034 420Q1094 420 1134 407T1198 369T1233 309T1243 228Q1243 174 1226 131T1177 57T1098 11T995 -5Q923 -5 877 15T805 75T768 175T757 314Q757 397 771 464T819 579T910 653T1052 679Q1096 679 1136 673T1206 654L1187 584ZM862 304Q862 240 869 197T892
126T933 88T997 76Q1072 76 1105 112T1138 220Q1138 246 1134 268T1115 307T1073 333T1001 343Q964 343 926 331T862 304Z" />
<glyph unicode="&#xed25;" glyph-name="twofifths" horiz-adv-x="1509" d="M87 1305Q136 1342 194 1365T318 1388Q377 1388 419 1373T489 1333T529 1274T542 1202Q542 1164 534 1130T508 1063T459 998T383 931L213 799H566V712H73V786L306 977Q347 1010 372 1038T410
1091T427 1142T431 1194Q431 1242 400 1273T304 1305Q259 1305 214 1287T120 1240L87 1305V1305ZM440 0H331L1141 1380H1251L440 0ZM968 113Q989 105 1012 98T1058 86T1102 79T1142 76Q1230 76 1268 106T1306 205Q1306 239 1298 262T1267 298T1205 318T1104 324Q1075
324 1047 322T991 316L1030 670H1368L1362 582H1108L1089 404Q1098 404 1108 405Q1116 405 1126 405T1147 406Q1237 406 1290 392T1370 353T1406 291T1415 212Q1415 152 1396 111T1342 44T1258 7T1149 -5Q1086 -5 1034 8T942 44L968 113Z" />
<glyph unicode="&#xed26;" glyph-name="threefifths" horiz-adv-x="1427" d="M282 704Q224 704 169 721T70 766L101 825Q146 807 192 797T292 786Q335 786 363 794T408 818T431 853T437 897Q437 918 429 938T396 973T324 997T203 1002V1083Q267 1081 309 1087T376
1109T411 1147T422 1199Q422 1246 390 1278T292 1310Q268 1310 247 1306T206 1293T163 1274T115 1249L81 1311Q124 1343 182 1365T307 1388Q365 1388 407 1374T475 1335T514 1277T527 1206Q527 1154 498 1112T405 1054Q463 1044 500 1003T538 903Q538 806 474 755T282
704ZM360 0H251L1061 1380H1171L360 0ZM886 113Q907 105 930 98T976 86T1020 79T1060 76Q1148 76 1186 106T1224 205Q1224 239 1216 262T1185 298T1123 318T1022 324Q993 324 965 322T909 316L948 670H1286L1280 582H1026L1007 404Q1016 404 1026 405Q1034 405
1044 405T1065 406Q1155 406 1208 392T1288 353T1324 291T1333 212Q1333 152 1314 111T1260 44T1176 7T1067 -5Q1004 -5 952 8T860 44L886 113Z" />
<glyph unicode="&#xed28;" glyph-name="fourfifths" horiz-adv-x="1516" d="M397 711V846H66V918L350 1380H500V928H600V846H500V711H397ZM397 1204L399 1300H397L346 1217L168 928H397V1204ZM448 0H339L1149 1380H1259L448 0ZM974 113Q995 105 1018 98T1064 86T1108
79T1148 76Q1236 76 1274 106T1312 205Q1312 239 1304 262T1273 298T1211 318T1110 324Q1081 324 1053 322T997 316L1036 670H1374L1368 582H1114L1095 404Q1104 404 1114 405Q1122 405 1132 405T1153 406Q1243 406 1296 392T1376 353T1412 291T1421 212Q1421 152
1402 111T1348 44T1264 7T1155 -5Q1092 -5 1040 8T948 44L974 113Z" />
<glyph unicode="&#xed29;" glyph-name="fivesixths" horiz-adv-x="1460" d="M100 823Q121 815 144 808T190 796T234 789T274 786Q362 786 400 816T438 915Q438 949 430 972T399 1008T337 1028T236 1034Q207 1034 179 1032T123 1026L162 1380H500L494 1292H240L221
1114Q230 1114 240 1115Q248 1115 258 1115T279 1116Q369 1116 422 1102T502 1063T538 1001T547 922Q547 862 528 821T474 754T390 717T281 705Q218 705 166 718T74 754L100 823ZM367 0H258L1068 1380H1178L367 0ZM1310 584Q1275 592 1241 596T1173 601Q1117 601
1081 584T1023 536T994 464T985 377Q1019 396 1061 408T1157 420Q1217 420 1257 407T1321 369T1356 309T1366 228Q1366 174 1349 131T1300 57T1221 11T1118 -5Q1046 -5 1000 15T928 75T891 175T880 314Q880 397 894 464T942 579T1033 653T1175 679Q1219 679 1259
673T1329 654L1310 584ZM985 304Q985 240 992 197T1015 126T1056 88T1120 76Q1195 76 1228 112T1261 220Q1261 246 1257 268T1238 307T1196 333T1124 343Q1087 343 1049 331T985 304Z" />
<glyph unicode="&#xee00;" glyph-name="Aring.connected" horiz-adv-x="1049" d="M881 0L789 320H253L162 0H44L451 1380H600L1005 0H881ZM521 1255H518L278 417H764L521 1255ZM744 1560Q744 1515 732 1477T694 1410T627 1365T527 1349Q467 1349 425 1363T357
1403T320 1469T308 1558Q308 1604 320 1643T360 1710T429 1753T531 1769Q642 1769 693 1717T744 1560ZM650 1560Q650 1588 644 1612T624 1653T586 1681T527 1692Q493 1692 469 1682T431 1654T409 1612T402 1558Q402 1530 408 1506T429 1464T467 1436T527 1426Q560
1426 583 1436T622 1464T643 1506T650 1560Z" />
<glyph unicode="&#xee01;" glyph-name="c_t.cedilla" horiz-adv-x="1364" d="M1300 19Q1264 8 1221 0T1137 -8Q1092 -8 1056 2T995 38T956 107T942 215V950H790V1042H942V1190Q942 1238 931 1276T895 1342T836 1385T755 1400Q708 1400 673 1385T615 1344T579 1280T567
1198Q567 1129 593 1081T676 998L638 914Q610 928 571 941T483 954Q429 954 381 931T299 857T244 723T224 521Q224 399 245 317T301 185T383 114T479 92Q541 92 596 111T710 169L751 92Q688 43 615 18T461 -8Q418 -8 375 1T293 32T221 92T163 187T124 324T110 510Q110
650 137 752T213 920T331 1019T481 1051Q492 1051 503 1050T525 1047Q497 1062 479 1101T460 1205Q460 1268 480 1321T540 1413T635 1473T762 1495Q829 1495 883 1475T975 1418T1033 1326T1054 1201V1042H1299V950H1054V236Q1054 195 1059 168T1078 123T1115 98T1173
90Q1198 90 1225 93T1288 102L1300 19V19ZM373 -389H279L378 -104H505L373 -389Z" />
<glyph unicode="&#xee02;" glyph-name="f_i_j" horiz-adv-x="1411" d="M176 0V950H0V1042H176V1194Q176 1344 241 1420T440 1497Q479 1497 507 1493T557 1483L547 1395Q527 1398 495 1400T440 1403Q359 1403 324 1350T289 1200V1042H512V950H289V0H176ZM698 1305V1475H809V1305H698ZM698
0V1042H809V0H698ZM1137 1305V1475H1247V1305H1137ZM1038 -346Q1091 -268 1114 -178T1137 20V1042H1247V59Q1247 -25 1239 -91T1215 -210T1174 -309T1114 -397L1038 -346Z" />
<glyph unicode="&#xee03;" glyph-name="f_f_i_j" horiz-adv-x="1937" d="M711 0V950H289V0H176V950H0V1042H176V1194Q176 1344 241 1420T440 1497Q479 1497 508 1493T561 1483L549 1395Q539 1396 526 1397T497 1400T467 1402T440 1403Q359 1403 324 1350T289 1200V1042H711V1194Q711
1344 775 1420T973 1497Q1011 1497 1040 1493T1090 1483L1081 1395Q1061 1398 1030 1400T973 1403Q891 1403 856 1350T821 1200V1042H1047V950H821V0H711ZM1227 1305V1475H1337V1305H1227ZM1227 0V1042H1337V0H1227ZM1663 1305V1475H1776V1305H1663ZM1567 -346Q1618
-268 1640 -178T1663 20V1042H1776V59Q1776 -25 1768 -91T1744 -210T1702 -309T1642 -397L1567 -346Z" />
<glyph unicode="&#xee04;" glyph-name="f_dotlessi" horiz-adv-x="973" d="M698 0V950H289V0H176V950H0V1042H176V1194Q176 1344 241 1420T440 1497Q471 1497 493 1495T532 1487L522 1397Q501 1400 482 1401T440 1403Q359 1403 324 1350T289 1200V1042H809V0H698Z" />
<glyph unicode="&#xee05;" glyph-name="f_f_dotlessi" horiz-adv-x="1505" d="M1231 0V950H821V0H711V950H289V0H176V950H0V1042H176V1194Q176 1344 241 1420T440 1497Q479 1497 508 1493T561 1483L549 1395Q539 1396 526 1397T497 1400T467 1402T440 1403Q359
1403 324 1350T289 1200V1042H711V1194Q711 1344 775 1420T973 1497Q1005 1497 1027 1495T1067 1487L1057 1397Q1035 1400 1016 1401T973 1403Q891 1403 856 1350T821 1200V1042H1343V0H1231Z" />
<glyph unicode="&#xee06;" glyph-name="f_igrave" horiz-adv-x="983" d="M709 0V950H289V0H176V950H0V1042H176V1194Q176 1344 241 1420T440 1497Q471 1497 493 1495T532 1487L522 1397Q501 1400 482 1401T440 1403Q359 1403 324 1350T289 1200V1042H819V0H709ZM797
1174L578 1440L684 1497L870 1212L797 1174Z" />
<glyph unicode="&#xee07;" glyph-name="f_f_igrave" horiz-adv-x="1516" d="M1241 0V950H821V0H711V950H289V0H176V950H0V1042H176V1194Q176 1344 241 1420T440 1497Q479 1497 508 1493T561 1483L549 1395Q539 1396 526 1397T497 1400T467 1402T440 1403Q359 1403
324 1350T289 1200V1042H711V1194Q711 1344 775 1420T973 1497Q1005 1497 1027 1495T1067 1487L1057 1397Q1035 1400 1016 1401T973 1403Q891 1403 856 1350T821 1200V1042H1354V0H1241ZM1329 1174L1112 1440L1219 1497L1403 1212L1329 1174Z" />
<glyph unicode="&#xee08;" glyph-name="f_iacute" horiz-adv-x="973" d="M698 0V950H289V0H176V950H0V1042H176V1194Q176 1344 241 1420T440 1497Q479 1497 507 1493T557 1483L547 1395Q527 1398 495 1400T440 1403Q359 1403 324 1350T289 1200V1042H809V0H698ZM651
1212L887 1497L989 1442L725 1174L651 1212Z" />
<glyph unicode="&#xee09;" glyph-name="f_f_iacute" horiz-adv-x="1505" d="M1231 0V950H821V0H711V950H289V0H176V950H0V1042H176V1194Q176 1344 241 1420T440 1497Q479 1497 508 1493T561 1483L549 1395Q539 1396 526 1397T497 1400T467 1402T440 1403Q359 1403
324 1350T289 1200V1042H711V1194Q711 1344 775 1420T973 1497Q1005 1497 1027 1495T1067 1487L1057 1397Q1035 1400 1016 1401T973 1403Q891 1403 856 1350T821 1200V1042H1343V0H1231ZM1186 1212L1421 1497L1524 1442L1260 1174L1186 1212Z" />
<glyph unicode="&#xee0a;" glyph-name="f_icircumflex" horiz-adv-x="973" d="M698 0V950H289V0H176V950H0V1042H176V1194Q176 1344 241 1420T440 1497Q471 1497 493 1495T532 1487L522 1397Q501 1400 482 1401T440 1403Q359 1403 324 1350T289 1200V1042H809V0H698ZM752
1356L563 1178L512 1235L754 1497L993 1237L940 1178L752 1356Z" />
<glyph unicode="&#xee0b;" glyph-name="f_f_icircumflex" horiz-adv-x="1505" d="M1231 0V950H821V0H711V950H289V0H176V950H0V1042H176V1194Q176 1344 241 1420T440 1497Q479 1497 508 1493T561 1483L549 1395Q539 1396 526 1397T497 1400T467 1402T440 1403Q359
1403 324 1350T289 1200V1042H711V1194Q711 1344 775 1420T973 1497Q1005 1497 1027 1495T1067 1487L1057 1397Q1035 1400 1016 1401T973 1403Q891 1403 856 1350T821 1200V1042H1343V0H1231ZM1284 1356L1098 1178L1047 1235L1286 1497L1528 1237L1475 1178L1284
1356Z" />
<glyph unicode="&#xee0c;" glyph-name="f_itilde" horiz-adv-x="993" d="M719 0V950H289V0H176V950H0V1042H176V1194Q176 1344 241 1420T440 1497Q453 1497 469 1496T498 1493L489 1401Q487 1401 475 1402T440 1403Q359 1403 324 1350T289 1200V1042H829V0H719ZM1012
1462Q1019 1412 1013 1372T988 1305T942 1262T877 1247Q846 1247 824 1257T785 1282T755 1315T729 1348T702 1374T668 1384Q636 1384 623 1356T610 1257H535Q521 1360 558 1417T672 1475Q703 1475 725 1465T764 1440T794 1406T819 1373T846 1347T879 1337Q910 1337
924 1365T938 1462H1012Z" />
<glyph unicode="&#xee0d;" glyph-name="f_f_itilde" horiz-adv-x="1526" d="M1251 0V950H821V0H711V950H289V0H176V950H0V1042H176V1194Q176 1344 241 1420T440 1497Q479 1497 508 1493T561 1483L549 1395Q539 1396 526 1397T497 1400T467 1402T440 1403Q359 1403
324 1350T289 1200V1042H711V1194Q711 1344 775 1420T973 1497Q987 1497 1002 1496T1030 1493L1024 1401Q1021 1401 1008 1402T973 1403Q891 1403 856 1350T821 1200V1042H1364V0H1251ZM1546 1462Q1554 1412 1548 1372T1523 1305T1476 1262T1411 1247Q1379 1247
1357 1257T1317 1282T1287 1315T1262 1348T1235 1374T1202 1384Q1170 1384 1158 1356T1145 1257H1069Q1062 1308 1068 1348T1093 1417T1139 1460T1204 1475Q1235 1475 1257 1465T1297 1440T1327 1406T1353 1373T1380 1347T1413 1337Q1444 1337 1457 1365T1470 1462H1546Z"
/>
<glyph unicode="&#xee0e;" glyph-name="f_idieresis" horiz-adv-x="993" d="M719 0V950H289V0H176V950H0V1042H176V1194Q176 1344 241 1420T440 1497Q453 1497 469 1496T498 1493L489 1401Q487 1401 475 1402T440 1403Q359 1403 324 1350T289 1200V1042H829V0H719ZM844
1309V1468H954V1309H844ZM592 1309V1468H700V1309H592Z" />
<glyph unicode="&#xee0f;" glyph-name="f_f_idieresis" horiz-adv-x="1526" d="M1251 0V950H821V0H711V950H289V0H176V950H0V1042H176V1194Q176 1344 241 1420T440 1497Q479 1497 508 1493T561 1483L549 1395Q539 1396 526 1397T497 1400T467 1402T440 1403Q359
1403 324 1350T289 1200V1042H711V1194Q711 1344 775 1420T973 1497Q987 1497 1002 1496T1030 1493L1024 1401Q1021 1401 1008 1402T973 1403Q891 1403 856 1350T821 1200V1042H1364V0H1251ZM1378 1309V1468H1487V1309H1378ZM1126 1309V1468H1235V1309H1126Z" />
<glyph unicode="&#xee10;" glyph-name="f_iogonek" horiz-adv-x="973" d="M903 -332Q869 -352 822 -366T723 -381Q642 -381 596 -343T549 -227Q549 -165 583 -106T698 4V950H289V0H176V950H0V1042H176V1194Q176 1344 241 1420T440 1497Q479 1497 507 1493T557
1483L547 1395Q527 1398 495 1400T440 1403Q359 1403 324 1350T289 1200V1042H809V0Q764 -29 734 -56T687 -110T662 -161T655 -211Q655 -246 675 -269T741 -293Q779 -293 815 -286T883 -264L903 -332ZM698 1305V1475H809V1305H698Z" />
<glyph unicode="&#xee11;" glyph-name="f_f_iogonek" horiz-adv-x="1505" d="M1438 -332Q1403 -352 1356 -366T1257 -381Q1177 -381 1130 -343T1083 -227Q1083 -165 1117 -106T1231 4V950H821V0H711V950H289V0H176V950H0V1042H176V1194Q176 1344 241 1420T440
1497Q479 1497 508 1493T561 1483L549 1395Q539 1396 526 1397T497 1400T467 1402T440 1403Q359 1403 324 1350T289 1200V1042H711V1194Q711 1344 775 1420T973 1497Q1011 1497 1040 1493T1090 1483L1081 1395Q1061 1398 1030 1400T973 1403Q891 1403 856 1350T821
1200V1042H1343V0Q1297 -29 1267 -56T1220 -110T1195 -161T1188 -211Q1188 -246 1208 -269T1276 -293Q1311 -293 1348 -286T1417 -264L1438 -332ZM1231 1305V1475H1343V1305H1231Z" />
<glyph unicode="&#xee12;" glyph-name="f_jcircumflex" horiz-adv-x="973" d="M600 -346Q653 -268 675 -178T698 20V950H289V0H176V950H0V1042H176V1194Q176 1344 241 1420T440 1497Q471 1497 493 1495T532 1487L522 1397Q501 1400 482 1401T440 1403Q359 1403
324 1350T289 1200V1042H809V59Q809 -25 801 -91T777 -210T736 -309T676 -397L600 -346ZM752 1356L563 1178L512 1235L754 1497L993 1237L940 1178L752 1356Z" />
<glyph unicode="&#xee13;" glyph-name="f_f_jcircumflex" horiz-adv-x="1505" d="M1135 -346Q1189 -265 1210 -174T1231 20V950H821V0H711V950H289V0H176V950H0V1042H176V1194Q176 1344 241 1420T440 1497Q479 1497 508 1493T561 1483L549 1395Q539 1396 526 1397T497
1400T467 1402T440 1403Q359 1403 324 1350T289 1200V1042H711V1194Q711 1344 775 1420T973 1497Q1010 1497 1037 1494T1085 1485L1075 1395Q1055 1398 1026 1400T973 1403Q891 1403 856 1350T821 1200V1042H1343V59Q1343 -25 1336 -91T1312 -210T1270 -309T1210
-397L1135 -346ZM1284 1356L1098 1178L1047 1235L1286 1497L1528 1237L1475 1178L1284 1356Z" />
<glyph unicode="&#xee14;" glyph-name="f_kcommaaccent" horiz-adv-x="1370" d="M1215 0L812 565H809V0H697V1388Q679 1391 656 1393T608 1398T559 1401T513 1402Q445 1402 402 1389T333 1347T298 1278T288 1183V1042H492V950H288V0H177V950H0V1042H177V1191Q177
1342 264 1419T520 1496Q540 1496 564 1495T614 1492T663 1487T705 1482L809 1496V580H812L1162 1042H1300L934 580L1360 0H1215ZM935 -391H848L945 -111H1065L935 -391Z" />
<glyph unicode="&#xee15;" glyph-name="f_f_kcommaaccent" horiz-adv-x="1903" d="M711 1042V1191Q711 1342 798 1419T1054 1496Q1074 1496 1098 1495T1148 1492T1197 1487T1240 1482L1343 1496V580H1345L1696 1042H1833L1467 580L1894 0H1748L1345 565H1343V0H1232V1388Q1213
1391 1190 1393T1142 1398T1092 1401T1046 1402Q978 1402 935 1389T866 1347T832 1278T822 1183V1042H1027V950H822V0H711V950H288V0H177V950H0V1042H177V1195Q177 1344 241 1420T440 1496Q479 1496 508 1493T560 1483L549 1394Q528 1397 497 1399T441 1402Q359
1402 324 1349T288 1199V1042H711ZM1470 -391H1383L1480 -111H1600L1470 -391Z" />
<glyph unicode="&#xee16;" glyph-name="f_lacute" horiz-adv-x="973" d="M888 1817H1025L836 1566H736L888 1817ZM697 0V1388Q679 1391 656 1393T608 1398T559 1401T513 1402Q445 1402 402 1389T333 1347T298 1278T288 1183V1042H492V950H288V0H177V950H0V1042H177V1191Q177
1342 264 1419T520 1496Q540 1496 565 1495T615 1492T664 1487T707 1482L809 1496V0H697Z" />
<glyph unicode="&#xee17;" glyph-name="f_f_lacute" horiz-adv-x="1505" d="M1418 1815H1555L1366 1564H1266L1418 1815ZM1232 0V1388Q1213 1391 1190 1393T1142 1398T1092 1401T1046 1402Q978 1402 935 1389T866 1347T832 1278T822 1183V1042H1027V950H822V0H711V950H288V0H177V950H0V1042H177V1195Q177
1344 241 1420T440 1496Q479 1496 508 1493T560 1483L549 1394Q528 1397 497 1399T441 1402Q359 1402 324 1349T288 1199V1042H711V1191Q711 1342 798 1419T1054 1496Q1074 1496 1099 1495T1149 1492T1198 1487T1241 1482L1343 1496V0H1232Z" />
<glyph unicode="&#xee18;" glyph-name="f_lcaron" horiz-adv-x="973" d="M957 1327L884 1350L994 1691L1104 1657L957 1327ZM697 0V1388Q679 1391 656 1393T608 1398T559 1401T513 1402Q445 1402 402 1389T333 1347T298 1278T288 1183V1042H492V950H288V0H177V950H0V1042H177V1191Q177
1342 264 1419T520 1496Q540 1496 565 1495T615 1492T664 1487T707 1482L809 1496V0H697Z" />
<glyph unicode="&#xee19;" glyph-name="f_f_lcaron" horiz-adv-x="1505" d="M1492 1327L1419 1350L1529 1691L1639 1657L1492 1327ZM1232 0V1388Q1213 1391 1190 1393T1142 1398T1092 1401T1046 1402Q978 1402 935 1389T866 1347T832 1278T822 1183V1042H1027V950H822V0H711V950H288V0H177V950H0V1042H177V1195Q177
1344 241 1420T440 1496Q479 1496 508 1493T560 1483L549 1394Q528 1397 497 1399T441 1402Q359 1402 324 1349T288 1199V1042H711V1191Q711 1342 798 1419T1054 1496Q1074 1496 1099 1495T1149 1492T1198 1487T1241 1482L1343 1496V0H1232Z" />
<glyph unicode="&#xee1a;" glyph-name="f_lcommaaccent" horiz-adv-x="973" d="M697 0V1388Q679 1391 656 1393T608 1398T559 1401T513 1402Q445 1402 402 1389T333 1347T298 1278T288 1183V1042H492V950H288V0H177V950H0V1042H177V1191Q177 1342 264 1419T520
1496Q540 1496 565 1495T615 1492T664 1487T707 1482L809 1496V0H697ZM692 -391H605L702 -111H822L692 -391Z" />
<glyph unicode="&#xee1b;" glyph-name="f_f_lcommaaccent" horiz-adv-x="1505" d="M1224 -391H1137L1234 -111H1354L1224 -391ZM1232 0V1388Q1213 1391 1190 1393T1142 1398T1092 1401T1046 1402Q978 1402 935 1389T866 1347T832 1278T822 1183V1042H1027V950H822V0H711V950H288V0H177V950H0V1042H177V1195Q177
1344 241 1420T440 1496Q479 1496 508 1493T560 1483L549 1394Q528 1397 497 1399T441 1402Q359 1402 324 1349T288 1199V1042H711V1191Q711 1342 798 1419T1054 1496Q1074 1496 1099 1495T1149 1492T1198 1487T1241 1482L1343 1496V0H1232Z" />
<glyph unicode="&#xee1c;" glyph-name="f_thorn" horiz-adv-x="1528" d="M809 897Q887 972 962 1011T1108 1051Q1183 1051 1240 1012T1338 904T1398 737T1419 524Q1419 397 1394 298T1324 131T1218 28T1083 -8Q1051 -8 1021 -1T959 23T891 68T809 139V-385L698
-401V1389Q680 1392 657 1394T608 1399T558 1402T512 1403Q444 1403 401 1389T333 1347T299 1278T289 1182V1042H494V950H289V0H176V950H0V1042H176V1190Q176 1343 263 1420T520 1497Q540 1497 564 1496T614 1492T664 1487T707 1481L809 1497V897ZM809 260Q858
208 897 175T968 123T1027 97T1077 90Q1126 90 1168 122T1241 211T1289 347T1307 520Q1307 613 1293 692T1250 828T1182 917T1090 950Q1030 950 958 908T809 782V260Z" />
<glyph unicode="&#xee1d;" glyph-name="f_f_thorn" horiz-adv-x="2062" d="M1343 897Q1422 972 1496 1011T1642 1051Q1716 1051 1774 1012T1872 904T1933 737T1954 524Q1954 397 1929 298T1859 131T1753 28T1618 -8Q1586 -8 1556 -1T1494 23T1425 68T1343 139V-385L1231
-401V1389Q1213 1392 1190 1394T1142 1399T1093 1402T1047 1403Q978 1403 935 1389T866 1347T831 1278T821 1182V1042H1026V950H821V0H711V950H289V0H176V950H0V1042H176V1194Q176 1344 241 1420T440 1497Q479 1497 508 1493T561 1483L549 1395Q539 1396 526 1397T497
1400T467 1402T440 1403Q359 1403 324 1350T289 1200V1042H711V1190Q711 1343 797 1420T1055 1497Q1075 1497 1099 1496T1149 1492T1199 1487T1241 1481L1343 1497V897ZM1343 260Q1392 208 1430 175T1501 123T1559 97T1610 90Q1660 90 1702 122T1775 211T1823 347T1841
520Q1841 613 1826 692T1783 828T1714 917T1622 950Q1563 950 1492 908T1343 782V260Z" />
<glyph unicode="&#xee1e;" glyph-name="g.alt" horiz-adv-x="979" d="M727 950Q767 924 794 863T821 717Q821 645 800 583T737 476T631 404T481 377Q441 377 407 381T344 393Q319 373 304 349T289 293Q289 245 322 225T432 205H565Q648 205 709 186T812 130T873
41T893 -76Q893 -144 867 -202T788 -304T658 -372T477 -397Q382 -397 312 -377T195 -321T125 -234T102 -119Q102 -80 110 -46T137 20T183 82T250 143Q178 187 178 274Q178 318 203 356T268 428Q206 468 177 539T147 711Q147 782 168 844T231 952T338 1024T487 1051Q544
1051 585 1042T655 1018Q680 1029 715 1035T807 1042H866V950H727ZM426 106Q401 106 379 108T338 113Q301 84 277 58T238 7T217 -44T211 -102Q211 -196 279 -250T487 -305Q570 -305 627 -287T719 -237T769 -166T784 -82Q784 -41 772 -7T733 53T663 92T559 106H426ZM483
467Q544 467 587 484T659 534T700 611T713 713Q713 770 700 815T659 893T588 943T483 961Q423 961 380 943T310 893T269 815T256 713Q256 657 269 612T309 534T380 485T483 467Z" />
<glyph unicode="&#xee1f;" glyph-name="gbreve.alt" horiz-adv-x="979" d="M727 950Q767 924 794 863T821 717Q821 645 800 583T737 476T631 404T481 377Q441 377 407 381T344 393Q319 373 304 349T289 293Q289 245 322 225T432 205H565Q648 205 709 186T812 130T873
41T893 -76Q893 -144 867 -202T788 -304T658 -372T477 -397Q382 -397 312 -377T195 -321T125 -234T102 -119Q102 -80 110 -46T137 20T183 82T250 143Q178 187 178 274Q178 318 203 356T268 428Q206 468 177 539T147 711Q147 782 168 844T231 952T338 1024T487 1051Q544
1051 585 1042T655 1018Q680 1029 715 1035T807 1042H866V950H727ZM426 106Q401 106 379 108T338 113Q301 84 277 58T238 7T217 -44T211 -102Q211 -196 279 -250T487 -305Q570 -305 627 -287T719 -237T769 -166T784 -82Q784 -41 772 -7T733 53T663 92T559 106H426ZM483
467Q544 467 587 484T659 534T700 611T713 713Q713 770 700 815T659 893T588 943T483 961Q423 961 380 943T310 893T269 815T256 713Q256 657 269 612T309 534T380 485T483 467ZM724 1461Q727 1408 714 1363T673 1285T598 1234T490 1215Q428 1215 383 1232T309
1280T267 1358T258 1461H347Q347 1375 384 1339T492 1303Q531 1303 558 1315T602 1347T628 1397T636 1461H724V1461Z" />
<glyph unicode="&#xee20;" glyph-name="gcommaaccent.alt" horiz-adv-x="979" d="M727 950Q767 924 794 863T821 717Q821 645 800 583T737 476T631 404T481 377Q441 377 407 381T344 393Q319 373 304 349T289 293Q289 245 322 225T432 205H565Q648 205 709 186T812
130T873 41T893 -76Q893 -144 867 -202T788 -304T658 -372T477 -397Q382 -397 312 -377T195 -321T125 -234T102 -119Q102 -80 110 -46T137 20T183 82T250 143Q178 187 178 274Q178 318 203 356T268 428Q206 468 177 539T147 711Q147 782 168 844T231 952T338 1024T487
1051Q544 1051 585 1042T655 1018Q680 1029 715 1035T807 1042H866V950H727ZM426 106Q401 106 379 108T338 113Q301 84 277 58T238 7T217 -44T211 -102Q211 -196 279 -250T487 -305Q570 -305 627 -287T719 -237T769 -166T784 -82Q784 -41 772 -7T733 53T663 92T559
106H426ZM483 467Q544 467 587 484T659 534T700 611T713 713Q713 770 700 815T659 893T588 943T483 961Q423 961 380 943T310 893T269 815T256 713Q256 657 269 612T309 534T380 485T483 467ZM572 1534L647 1512L534 1171L425 1203L572 1534Z" />
<glyph unicode="&#xee21;" glyph-name="gcircumflex.alt" horiz-adv-x="979" d="M727 950Q767 924 794 863T821 717Q821 645 800 583T737 476T631 404T481 377Q441 377 407 381T344 393Q319 373 304 349T289 293Q289 245 322 225T432 205H565Q648 205 709 186T812
130T873 41T893 -76Q893 -144 867 -202T788 -304T658 -372T477 -397Q382 -397 312 -377T195 -321T125 -234T102 -119Q102 -80 110 -46T137 20T183 82T250 143Q178 187 178 274Q178 318 203 356T268 428Q206 468 177 539T147 711Q147 782 168 844T231 952T338 1024T487
1051Q544 1051 585 1042T655 1018Q680 1029 715 1035T807 1042H866V950H727ZM426 106Q401 106 379 108T338 113Q301 84 277 58T238 7T217 -44T211 -102Q211 -196 279 -250T487 -305Q570 -305 627 -287T719 -237T769 -166T784 -82Q784 -41 772 -7T733 53T663 92T559
106H426ZM483 467Q544 467 587 484T659 534T700 611T713 713Q713 770 700 815T659 893T588 943T483 961Q423 961 380 943T310 893T269 815T256 713Q256 657 269 612T309 534T380 485T483 467ZM673 1174L480 1356L287 1174L236 1230L482 1497L727 1232L673 1174Z"
/>
<glyph unicode="&#xee22;" glyph-name="gdotaccent.alt" horiz-adv-x="979" d="M727 950Q767 924 794 863T821 717Q821 645 800 583T737 476T631 404T481 377Q441 377 407 381T344 393Q319 373 304 349T289 293Q289 245 322 225T432 205H565Q648 205 709 186T812
130T873 41T893 -76Q893 -144 867 -202T788 -304T658 -372T477 -397Q382 -397 312 -377T195 -321T125 -234T102 -119Q102 -80 110 -46T137 20T183 82T250 143Q178 187 178 274Q178 318 203 356T268 428Q206 468 177 539T147 711Q147 782 168 844T231 952T338 1024T487
1051Q544 1051 585 1042T655 1018Q680 1029 715 1035T807 1042H866V950H727ZM426 106Q401 106 379 108T338 113Q301 84 277 58T238 7T217 -44T211 -102Q211 -196 279 -250T487 -305Q570 -305 627 -287T719 -237T769 -166T784 -82Q784 -41 772 -7T733 53T663 92T559
106H426ZM483 467Q544 467 587 484T659 534T700 611T713 713Q713 770 700 815T659 893T588 943T483 961Q423 961 380 943T310 893T269 815T256 713Q256 657 269 612T309 534T380 485T483 467ZM423 1304V1475H534V1304H423Z" />
<glyph unicode="&#xee23;" glyph-name="i_j" horiz-adv-x="874" d="M163 1304V1475H274V1304H163ZM163 0V1042H274V0H163ZM599 1304V1475H710V1304H599ZM710 59Q710 -25 702 -90T678 -210T637 -309T578 -396L502 -346Q553 -267 576 -178T599 21V1042H710V59Z" />
<glyph unicode="&#xee24;" glyph-name="s_t.cedilla" horiz-adv-x="1313" d="M1250 19Q1214 8 1171 0T1086 -8Q1041 -8 1006 2T945 38T906 107T892 215V950H718V1042H892V1187Q892 1235 879 1274T841 1341T777 1385T688 1400Q638 1400 601 1385T538 1343T500 1277T486
1194Q486 1126 513 1075T597 989L561 905Q522 924 470 940T363 956Q322 956 291 945T239 913T208 866T197 806Q197 776 205 750T234 698T292 644T386 584Q458 543 505 504T580 425T619 346T631 262Q631 199 610 149T550 64T456 11T329 -8Q255 -8 196 10T81 58L121
148Q178 117 228 103T330 89Q381 89 416 102T473 137T506 189T517 253Q517 284 509 312T479 368T418 426T318 494Q251 534 206 569T135 641T98 715T86 798Q86 856 107 903T165 982T252 1033T363 1051Q386 1051 408 1049T451 1040Q420 1055 400 1095T380 1202Q380
1266 401 1319T463 1412T563 1473T696 1495Q767 1495 824 1475T921 1416T982 1323T1003 1198V1042H1249V950H1003V236Q1003 195 1009 168T1028 123T1065 98T1123 90Q1147 90 1174 93T1238 102L1250 19V19ZM548 -389H454L553 -104H680L548 -389Z" />
<glyph unicode="&#xee25;" glyph-name="s_t.commaaccent" horiz-adv-x="1313" d="M1250 19Q1214 8 1171 0T1086 -8Q1041 -8 1006 2T945 38T906 107T892 215V950H718V1042H892V1187Q892 1235 879 1274T841 1341T777 1385T688 1400Q638 1400 601 1385T538 1343T500
1277T486 1194Q486 1126 513 1075T597 989L561 905Q522 924 470 940T363 956Q322 956 291 945T239 913T208 866T197 806Q197 776 205 750T234 698T292 644T386 584Q458 543 505 504T580 425T619 346T631 262Q631 199 610 149T550 64T456 11T329 -8Q255 -8 196 10T81
58L121 148Q178 117 228 103T330 89Q381 89 416 102T473 137T506 189T517 253Q517 284 509 312T479 368T418 426T318 494Q251 534 206 569T135 641T98 715T86 798Q86 856 107 903T165 982T252 1033T363 1051Q386 1051 408 1049T451 1040Q420 1055 400 1095T380
1202Q380 1266 401 1319T463 1412T563 1473T696 1495Q767 1495 824 1475T921 1416T982 1323T1003 1198V1042H1249V950H1003V236Q1003 195 1009 168T1028 123T1065 98T1123 90Q1147 90 1174 93T1238 102L1250 19V19ZM280 -391H193L290 -111H410L280 -391Z" />
<glyph unicode="&#xee26;" glyph-name="germandbls.alt" horiz-adv-x="979" d="M479 117Q511 104 548 96T635 88Q681 88 714 101T770 136T802 186T813 246Q813 294 798 330T759 397T703 452T638 503T574 557T518 619T478 698T463 799Q463 853 478 895T519 969T580
1023T657 1059Q668 1094 674 1130T680 1212Q680 1250 669 1284T635 1344T574 1385T485 1401Q429 1401 389 1381T324 1323T286 1233T274 1116V0H164V1114Q164 1201 184 1271T246 1391T349 1468T494 1495Q567 1495 622 1474T715 1416T772 1329T791 1221Q791 1156
776 1095T743 987Q660 970 617 926T573 805Q573 761 588 727T628 663T685 609T750 557T816 502T872 438T912 358T928 258Q928 196 908 147T849 63T757 10T637 -8Q584 -8 540 0T455 25L479 117Z" />
<glyph unicode="&#xee27;" glyph-name="ordfeminine.alt" horiz-adv-x="772" d="M166 480V569H643V480H166ZM560 707L551 800Q514 771 485 753T430 723T382 707T335 702Q286 702 247 726T181 794T140 901T125 1040Q125 1124 142 1189T190 1297T261 1364T350 1387Q370
1387 392 1382T438 1365T489 1335T551 1289L560 1380H641V707H560ZM543 1206Q485 1253 444 1278T373 1303Q341 1303 314 1284T266 1231T235 1149T224 1043Q224 986 233 939T261 857T304 804T362 784Q397 784 441 808T543 881V1206Z" />
<glyph unicode="&#xee28;" glyph-name="ampersand.alt" horiz-adv-x="1321" d="M211 1176Q211 1253 235 1313T305 1414T416 1476T565 1497Q643 1497 706 1477T812 1420T879 1327T903 1202Q903 1127 873 1068T793 959T680 867T551 782Q580 751 614 718T688 647L989
362Q1029 422 1069 494T1155 655L1241 608Q1195 514 1152 436T1063 293L1294 76L1221 -8L993 205Q947 151 897 111T791 45T670 5T530 -8Q318 -8 209 87T100 358Q100 435 124 497T189 611T283 706T393 788Q339 853 304 906T248 1006T219 1094T211 1176ZM627 551Q576
597 534 639T457 719Q407 685 363 649T286 570T234 479T215 371Q215 225 294 157T541 88Q603 88 656 99T755 132T843 189T924 270L627 551ZM324 1186Q324 1151 330 1116T354 1042T404 955T487 850Q545 887 599 923T696 1000T763 1088T788 1192Q788 1292 729 1346T557
1401Q494 1401 450 1385T378 1340T337 1272T324 1186Z" />
<glyph unicode="&#xee29;" glyph-name="Euro.oldstyle" horiz-adv-x="1126" d="M1016 92Q926 45 834 19T650 -8Q539 -8 460 22T327 113T244 270T199 495H41V585H193Q191 611 191 635T191 684Q191 709 192 741T195 802H41V892H205Q238 1135 358 1261T681 1388Q719
1388 761 1382T845 1363T929 1332T1009 1291L971 1206Q939 1226 905 1241T834 1268T759 1285T682 1291Q600 1291 538 1264T433 1186T363 1060T323 892H754V802H314Q312 780 311 750T310 689Q310 662 310 635T312 585H754V495H319Q329 397 351 322T414 195T516 118T666
92Q703 92 742 98T822 115T904 141T984 176L1016 92V92Z" />
<glyph unicode="&#xee2a;" glyph-name="dollar.LinProp" horiz-adv-x="895" d="M420 -238V0Q381 0 345 3T272 15T198 36T117 68L154 162Q214 133 284 116T426 98Q485 98 535 114T622 162T679 238T700 340Q700 404 675 452T607 538T512 607T402 669T293 734T197
811T130 909T104 1040Q104 1120 131 1181T202 1284T304 1350T420 1380V1583H520V1380Q594 1372 657 1351T774 1298L735 1214Q670 1249 601 1268T463 1288Q418 1288 374 1275T295 1233T239 1162T217 1057Q217 995 242 949T310 865T406 796T516 733T626 666T722 586T789
484T815 350Q815 279 793 222T731 121T637 49T520 8V-238H420Z" />
<glyph unicode="&#xee2b;" glyph-name="sterling.oldstyle" horiz-adv-x="1024" d="M113 0V77L250 94V652H68V746H250V953Q250 1076 276 1159T346 1294T447 1366T566 1388Q619 1388 662 1382T740 1366T799 1344T840 1322L808 1240Q783 1251 759 1260T708 1276T648
1286T576 1290Q520 1290 480 1271T414 1210T376 1103T363 947V746H702V652H363V99H837V0H113Z" />
<glyph unicode="&#xee2c;" glyph-name="yen.oldstyle" horiz-adv-x="1126" d="M630 651V611H942V521H630V300H942V211H630V0H518V211H205V300H518V521H205V611H518V651L125 1380H256L424 1061L578 752L746 1086L895 1380H1020L630 651Z" />
<glyph unicode="&#xee2d;" glyph-name="Adieresis.round" horiz-adv-x="1049" d="M881 0L789 320H253L162 0H44L451 1380H600L1005 0H881ZM521 1255H518L278 417H764L521 1255ZM332 1516Q297 1516 274 1540T250 1599Q250 1635 273 1659T332 1683Q367 1683 390
1659T414 1599Q414 1564 390 1540T332 1516ZM715 1516Q680 1516 657 1540T633 1599Q633 1635 657 1659T715 1683Q750 1683 774 1659T799 1599Q799 1564 775 1540T715 1516Z" />
<glyph unicode="&#xee2e;" glyph-name="Cdotaccent.round" horiz-adv-x="997" d="M940 80Q852 38 760 15T582 -8Q469 -8 383 27T239 143T151 357T121 686Q121 869 157 1001T257 1220T409 1348T604 1389Q646 1389 691 1382T779 1363T862 1337T934 1307L901 1212Q877
1224 843 1237T770 1262T691 1282T614 1290Q527 1290 458 1255T341 1147T268 960T242 690Q242 524 264 410T331 226T444 124T604 92Q635 92 673 98T753 115T834 140T911 170L940 80ZM578 1516Q540 1516 516 1541T492 1604Q492 1641 517 1666T578 1692Q615 1692
639 1667T664 1604Q664 1566 640 1541T578 1516Z" />
<glyph unicode="&#xee2f;" glyph-name="uni1E02.round" horiz-adv-x="1032" d="M914 391Q914 307 888 235T804 111T652 28T425 -2Q363 -2 304 -1T174 0V1378Q211 1379 243 1379T306 1380T369 1381T437 1382Q554 1382 637 1360T772 1295T849 1187T874 1037Q874
978 860 927T815 834T738 764T628 723Q709 710 764 681T852 609T900 511T914 391ZM759 1030Q759 1088 745 1135T693 1216T586 1267T410 1285Q369 1285 341 1284T289 1281V764Q317 762 340 762T387 762Q506 762 579 784T692 842T745 928T759 1030ZM796 385Q796 443
781 494T720 583T595 643T383 665Q362 665 338 665T289 663V100Q323 97 353 97T426 96Q508 96 567 108T668 140T734 189T773 250T791 316T796 385ZM506 1516Q469 1516 445 1541T420 1604Q420 1641 444 1666T506 1692Q543 1692 567 1667T592 1604Q592 1566 568 1541T506
1516Z" />
<glyph unicode="&#xee30;" glyph-name="uni1E0A.round" horiz-adv-x="1167" d="M1044 704Q1044 537 1010 405T902 182T714 44T441 -4Q408 -4 373 -4T304 -3T236 -2T174 0V1380Q246 1382 313 1383T447 1384Q610 1384 723 1340T908 1210T1012 997T1044 704ZM926
702Q926 840 903 948T823 1132T674 1246T440 1286Q425 1286 407 1286T369 1285T329 1284T290 1282V99Q304 98 324 98T367 97T409 96T444 95Q580 95 672 135T820 254T901 444T926 702ZM567 1516Q530 1516 506 1541T481 1604Q481 1641 505 1666T567 1692Q604 1692
628 1667T653 1604Q653 1566 629 1541T567 1516Z" />
</font>
</defs>
</svg>
